G04 #@! TF.GenerationSoftware,KiCad,Pcbnew,5.99.0+really5.1.10+dfsg1-1*
G04 #@! TF.CreationDate,2022-06-24T16:38:05+05:30*
G04 #@! TF.ProjectId,AB1-4_display,4142312d-345f-4646-9973-706c61792e6b,rev?*
G04 #@! TF.SameCoordinates,Original*
G04 #@! TF.FileFunction,Copper,L1,Top*
G04 #@! TF.FilePolarity,Positive*
%FSLAX46Y46*%
G04 Gerber Fmt 4.6, Leading zero omitted, Abs format (unit mm)*
G04 Created by KiCad (PCBNEW 5.99.0+really5.1.10+dfsg1-1) date 2022-06-24 16:38:05*
%MOMM*%
%LPD*%
G01*
G04 APERTURE LIST*
G04 #@! TA.AperFunction,ComponentPad*
%ADD10R,2.032000X1.727200*%
G04 #@! TD*
G04 #@! TA.AperFunction,ComponentPad*
%ADD11O,2.032000X1.727200*%
G04 #@! TD*
G04 #@! TA.AperFunction,ComponentPad*
%ADD12C,1.998980*%
G04 #@! TD*
G04 #@! TA.AperFunction,ComponentPad*
%ADD13R,1.998980X1.998980*%
G04 #@! TD*
G04 #@! TA.AperFunction,ComponentPad*
%ADD14C,2.000000*%
G04 #@! TD*
G04 #@! TA.AperFunction,SMDPad,CuDef*
%ADD15R,1.500000X0.550000*%
G04 #@! TD*
G04 #@! TA.AperFunction,SMDPad,CuDef*
%ADD16R,0.550000X1.500000*%
G04 #@! TD*
G04 #@! TA.AperFunction,ComponentPad*
%ADD17R,2.032000X2.032000*%
G04 #@! TD*
G04 #@! TA.AperFunction,ComponentPad*
%ADD18O,2.032000X2.032000*%
G04 #@! TD*
G04 #@! TA.AperFunction,ComponentPad*
%ADD19O,1.727200X2.032000*%
G04 #@! TD*
G04 #@! TA.AperFunction,ComponentPad*
%ADD20R,1.727200X2.032000*%
G04 #@! TD*
G04 #@! TA.AperFunction,SMDPad,CuDef*
%ADD21R,1.700000X2.000000*%
G04 #@! TD*
G04 #@! TA.AperFunction,SMDPad,CuDef*
%ADD22R,3.800000X2.000000*%
G04 #@! TD*
G04 #@! TA.AperFunction,SMDPad,CuDef*
%ADD23R,1.500000X2.000000*%
G04 #@! TD*
G04 #@! TA.AperFunction,ViaPad*
%ADD24C,0.800000*%
G04 #@! TD*
G04 #@! TA.AperFunction,Conductor*
%ADD25C,0.300000*%
G04 #@! TD*
G04 #@! TA.AperFunction,Conductor*
%ADD26C,0.250000*%
G04 #@! TD*
G04 #@! TA.AperFunction,Conductor*
%ADD27C,0.400000*%
G04 #@! TD*
G04 #@! TA.AperFunction,Conductor*
%ADD28C,0.254000*%
G04 #@! TD*
G04 #@! TA.AperFunction,Conductor*
%ADD29C,0.100000*%
G04 #@! TD*
G04 APERTURE END LIST*
D10*
G04 #@! TO.P,Y1,1*
G04 #@! TO.N,/XTAL1*
X32740600Y-37388800D03*
D11*
G04 #@! TO.P,Y1,2*
G04 #@! TO.N,/XTAL2*
X32760600Y-42518800D03*
G04 #@! TO.P,Y1,3*
G04 #@! TO.N,N/C*
X32690600Y-39988800D03*
G04 #@! TD*
G04 #@! TO.P,C1,2*
G04 #@! TO.N,/GND*
G04 #@! TA.AperFunction,SMDPad,CuDef*
G36*
G01*
X62238460Y-38544261D02*
X62238460Y-37244259D01*
G75*
G02*
X62488459Y-36994260I249999J0D01*
G01*
X63313461Y-36994260D01*
G75*
G02*
X63563460Y-37244259I0J-249999D01*
G01*
X63563460Y-38544261D01*
G75*
G02*
X63313461Y-38794260I-249999J0D01*
G01*
X62488459Y-38794260D01*
G75*
G02*
X62238460Y-38544261I0J249999D01*
G01*
G37*
G04 #@! TD.AperFunction*
G04 #@! TO.P,C1,1*
G04 #@! TO.N,Net-(C1-Pad1)*
G04 #@! TA.AperFunction,SMDPad,CuDef*
G36*
G01*
X59113460Y-38544261D02*
X59113460Y-37244259D01*
G75*
G02*
X59363459Y-36994260I249999J0D01*
G01*
X60188461Y-36994260D01*
G75*
G02*
X60438460Y-37244259I0J-249999D01*
G01*
X60438460Y-38544261D01*
G75*
G02*
X60188461Y-38794260I-249999J0D01*
G01*
X59363459Y-38794260D01*
G75*
G02*
X59113460Y-38544261I0J249999D01*
G01*
G37*
G04 #@! TD.AperFunction*
G04 #@! TD*
G04 #@! TO.P,C2,1*
G04 #@! TO.N,/VCC5*
G04 #@! TA.AperFunction,SMDPad,CuDef*
G36*
G01*
X19149100Y-34978101D02*
X19149100Y-33678099D01*
G75*
G02*
X19399099Y-33428100I249999J0D01*
G01*
X20224101Y-33428100D01*
G75*
G02*
X20474100Y-33678099I0J-249999D01*
G01*
X20474100Y-34978101D01*
G75*
G02*
X20224101Y-35228100I-249999J0D01*
G01*
X19399099Y-35228100D01*
G75*
G02*
X19149100Y-34978101I0J249999D01*
G01*
G37*
G04 #@! TD.AperFunction*
G04 #@! TO.P,C2,2*
G04 #@! TO.N,/GND*
G04 #@! TA.AperFunction,SMDPad,CuDef*
G36*
G01*
X22274100Y-34978101D02*
X22274100Y-33678099D01*
G75*
G02*
X22524099Y-33428100I249999J0D01*
G01*
X23349101Y-33428100D01*
G75*
G02*
X23599100Y-33678099I0J-249999D01*
G01*
X23599100Y-34978101D01*
G75*
G02*
X23349101Y-35228100I-249999J0D01*
G01*
X22524099Y-35228100D01*
G75*
G02*
X22274100Y-34978101I0J249999D01*
G01*
G37*
G04 #@! TD.AperFunction*
G04 #@! TD*
G04 #@! TO.P,C3,2*
G04 #@! TO.N,/GND*
G04 #@! TA.AperFunction,SMDPad,CuDef*
G36*
G01*
X30388799Y-29856000D02*
X31688801Y-29856000D01*
G75*
G02*
X31938800Y-30105999I0J-249999D01*
G01*
X31938800Y-30931001D01*
G75*
G02*
X31688801Y-31181000I-249999J0D01*
G01*
X30388799Y-31181000D01*
G75*
G02*
X30138800Y-30931001I0J249999D01*
G01*
X30138800Y-30105999D01*
G75*
G02*
X30388799Y-29856000I249999J0D01*
G01*
G37*
G04 #@! TD.AperFunction*
G04 #@! TO.P,C3,1*
G04 #@! TO.N,/VCC5*
G04 #@! TA.AperFunction,SMDPad,CuDef*
G36*
G01*
X30388799Y-26731000D02*
X31688801Y-26731000D01*
G75*
G02*
X31938800Y-26980999I0J-249999D01*
G01*
X31938800Y-27806001D01*
G75*
G02*
X31688801Y-28056000I-249999J0D01*
G01*
X30388799Y-28056000D01*
G75*
G02*
X30138800Y-27806001I0J249999D01*
G01*
X30138800Y-26980999D01*
G75*
G02*
X30388799Y-26731000I249999J0D01*
G01*
G37*
G04 #@! TD.AperFunction*
G04 #@! TD*
G04 #@! TO.P,C4,1*
G04 #@! TO.N,/VCC3v3*
G04 #@! TA.AperFunction,SMDPad,CuDef*
G36*
G01*
X35557699Y-26807200D02*
X36857701Y-26807200D01*
G75*
G02*
X37107700Y-27057199I0J-249999D01*
G01*
X37107700Y-27882201D01*
G75*
G02*
X36857701Y-28132200I-249999J0D01*
G01*
X35557699Y-28132200D01*
G75*
G02*
X35307700Y-27882201I0J249999D01*
G01*
X35307700Y-27057199D01*
G75*
G02*
X35557699Y-26807200I249999J0D01*
G01*
G37*
G04 #@! TD.AperFunction*
G04 #@! TO.P,C4,2*
G04 #@! TO.N,/GND*
G04 #@! TA.AperFunction,SMDPad,CuDef*
G36*
G01*
X35557699Y-29932200D02*
X36857701Y-29932200D01*
G75*
G02*
X37107700Y-30182199I0J-249999D01*
G01*
X37107700Y-31007201D01*
G75*
G02*
X36857701Y-31257200I-249999J0D01*
G01*
X35557699Y-31257200D01*
G75*
G02*
X35307700Y-31007201I0J249999D01*
G01*
X35307700Y-30182199D01*
G75*
G02*
X35557699Y-29932200I249999J0D01*
G01*
G37*
G04 #@! TD.AperFunction*
G04 #@! TD*
G04 #@! TO.P,C6,1*
G04 #@! TO.N,/XTAL1*
G04 #@! TA.AperFunction,SMDPad,CuDef*
G36*
G01*
X34749700Y-33220899D02*
X34749700Y-34520901D01*
G75*
G02*
X34499701Y-34770900I-249999J0D01*
G01*
X33674699Y-34770900D01*
G75*
G02*
X33424700Y-34520901I0J249999D01*
G01*
X33424700Y-33220899D01*
G75*
G02*
X33674699Y-32970900I249999J0D01*
G01*
X34499701Y-32970900D01*
G75*
G02*
X34749700Y-33220899I0J-249999D01*
G01*
G37*
G04 #@! TD.AperFunction*
G04 #@! TO.P,C6,2*
G04 #@! TO.N,/GND*
G04 #@! TA.AperFunction,SMDPad,CuDef*
G36*
G01*
X31624700Y-33220899D02*
X31624700Y-34520901D01*
G75*
G02*
X31374701Y-34770900I-249999J0D01*
G01*
X30549699Y-34770900D01*
G75*
G02*
X30299700Y-34520901I0J249999D01*
G01*
X30299700Y-33220899D01*
G75*
G02*
X30549699Y-32970900I249999J0D01*
G01*
X31374701Y-32970900D01*
G75*
G02*
X31624700Y-33220899I0J-249999D01*
G01*
G37*
G04 #@! TD.AperFunction*
G04 #@! TD*
G04 #@! TO.P,C7,2*
G04 #@! TO.N,/GND*
G04 #@! TA.AperFunction,SMDPad,CuDef*
G36*
G01*
X31675500Y-45349399D02*
X31675500Y-46649401D01*
G75*
G02*
X31425501Y-46899400I-249999J0D01*
G01*
X30600499Y-46899400D01*
G75*
G02*
X30350500Y-46649401I0J249999D01*
G01*
X30350500Y-45349399D01*
G75*
G02*
X30600499Y-45099400I249999J0D01*
G01*
X31425501Y-45099400D01*
G75*
G02*
X31675500Y-45349399I0J-249999D01*
G01*
G37*
G04 #@! TD.AperFunction*
G04 #@! TO.P,C7,1*
G04 #@! TO.N,/XTAL2*
G04 #@! TA.AperFunction,SMDPad,CuDef*
G36*
G01*
X34800500Y-45349399D02*
X34800500Y-46649401D01*
G75*
G02*
X34550501Y-46899400I-249999J0D01*
G01*
X33725499Y-46899400D01*
G75*
G02*
X33475500Y-46649401I0J249999D01*
G01*
X33475500Y-45349399D01*
G75*
G02*
X33725499Y-45099400I249999J0D01*
G01*
X34550501Y-45099400D01*
G75*
G02*
X34800500Y-45349399I0J-249999D01*
G01*
G37*
G04 #@! TD.AperFunction*
G04 #@! TD*
D12*
G04 #@! TO.P,D1,2*
G04 #@! TO.N,/VCC_raw*
X21475700Y-16522700D03*
D13*
G04 #@! TO.P,D1,1*
G04 #@! TO.N,Net-(D1-Pad1)*
X25285700Y-16522700D03*
G04 #@! TD*
G04 #@! TO.P,F1,1*
G04 #@! TO.N,Net-(D1-Pad1)*
G04 #@! TA.AperFunction,SMDPad,CuDef*
G36*
G01*
X20942500Y-20681101D02*
X20942500Y-19781099D01*
G75*
G02*
X21192499Y-19531100I249999J0D01*
G01*
X21842501Y-19531100D01*
G75*
G02*
X22092500Y-19781099I0J-249999D01*
G01*
X22092500Y-20681101D01*
G75*
G02*
X21842501Y-20931100I-249999J0D01*
G01*
X21192499Y-20931100D01*
G75*
G02*
X20942500Y-20681101I0J249999D01*
G01*
G37*
G04 #@! TD.AperFunction*
G04 #@! TO.P,F1,2*
G04 #@! TO.N,Net-(F1-Pad2)*
G04 #@! TA.AperFunction,SMDPad,CuDef*
G36*
G01*
X22992500Y-20681101D02*
X22992500Y-19781099D01*
G75*
G02*
X23242499Y-19531100I249999J0D01*
G01*
X23892501Y-19531100D01*
G75*
G02*
X24142500Y-19781099I0J-249999D01*
G01*
X24142500Y-20681101D01*
G75*
G02*
X23892501Y-20931100I-249999J0D01*
G01*
X23242499Y-20931100D01*
G75*
G02*
X22992500Y-20681101I0J249999D01*
G01*
G37*
G04 #@! TD.AperFunction*
G04 #@! TD*
D14*
G04 #@! TO.P,FB1,2*
G04 #@! TO.N,Net-(F1-Pad2)*
X23672800Y-26847800D03*
G04 #@! TO.P,FB1,1*
G04 #@! TO.N,/VCC5*
X18592800Y-26847800D03*
G04 #@! TD*
D15*
G04 #@! TO.P,IC1,1*
G04 #@! TO.N,Net-(IC1-Pad1)*
X43363100Y-29877100D03*
G04 #@! TO.P,IC1,2*
G04 #@! TO.N,Net-(IC1-Pad2)*
X43363100Y-30677100D03*
G04 #@! TO.P,IC1,3*
G04 #@! TO.N,/GND*
X43363100Y-31477100D03*
G04 #@! TO.P,IC1,4*
G04 #@! TO.N,/VCC3v3*
X43363100Y-32277100D03*
G04 #@! TO.P,IC1,5*
G04 #@! TO.N,/GND*
X43363100Y-33077100D03*
G04 #@! TO.P,IC1,6*
G04 #@! TO.N,/VCC3v3*
X43363100Y-33877100D03*
G04 #@! TO.P,IC1,7*
G04 #@! TO.N,/XTAL1*
X43363100Y-34677100D03*
G04 #@! TO.P,IC1,8*
G04 #@! TO.N,/XTAL2*
X43363100Y-35477100D03*
D16*
G04 #@! TO.P,IC1,9*
G04 #@! TO.N,/D5*
X44863100Y-36977100D03*
G04 #@! TO.P,IC1,10*
G04 #@! TO.N,/D6*
X45663100Y-36977100D03*
G04 #@! TO.P,IC1,11*
G04 #@! TO.N,/D7/CO2_O*
X46463100Y-36977100D03*
G04 #@! TO.P,IC1,12*
G04 #@! TO.N,/RX2*
X47263100Y-36977100D03*
G04 #@! TO.P,IC1,13*
G04 #@! TO.N,/TX2*
X48063100Y-36977100D03*
G04 #@! TO.P,IC1,14*
G04 #@! TO.N,/D10*
X48863100Y-36977100D03*
G04 #@! TO.P,IC1,15*
G04 #@! TO.N,/D11*
X49663100Y-36977100D03*
G04 #@! TO.P,IC1,16*
G04 #@! TO.N,/D12*
X50463100Y-36977100D03*
D15*
G04 #@! TO.P,IC1,17*
G04 #@! TO.N,/D13*
X51963100Y-35477100D03*
G04 #@! TO.P,IC1,18*
G04 #@! TO.N,/VCC3v3*
X51963100Y-34677100D03*
G04 #@! TO.P,IC1,19*
G04 #@! TO.N,Net-(IC1-Pad19)*
X51963100Y-33877100D03*
G04 #@! TO.P,IC1,20*
G04 #@! TO.N,Net-(C1-Pad1)*
X51963100Y-33077100D03*
G04 #@! TO.P,IC1,21*
G04 #@! TO.N,/GND*
X51963100Y-32277100D03*
G04 #@! TO.P,IC1,22*
G04 #@! TO.N,Net-(IC1-Pad22)*
X51963100Y-31477100D03*
G04 #@! TO.P,IC1,23*
G04 #@! TO.N,Net-(IC1-Pad23)*
X51963100Y-30677100D03*
G04 #@! TO.P,IC1,24*
G04 #@! TO.N,Net-(IC1-Pad24)*
X51963100Y-29877100D03*
D16*
G04 #@! TO.P,IC1,25*
G04 #@! TO.N,/A2/CTL*
X50463100Y-28377100D03*
G04 #@! TO.P,IC1,26*
G04 #@! TO.N,Net-(IC1-Pad26)*
X49663100Y-28377100D03*
G04 #@! TO.P,IC1,27*
G04 #@! TO.N,/A4/SDA*
X48863100Y-28377100D03*
G04 #@! TO.P,IC1,28*
G04 #@! TO.N,/A5/SCL*
X48063100Y-28377100D03*
G04 #@! TO.P,IC1,29*
G04 #@! TO.N,/RST*
X47263100Y-28377100D03*
G04 #@! TO.P,IC1,30*
G04 #@! TO.N,/RXA*
X46463100Y-28377100D03*
G04 #@! TO.P,IC1,31*
G04 #@! TO.N,Net-(IC1-Pad31)*
X45663100Y-28377100D03*
G04 #@! TO.P,IC1,32*
G04 #@! TO.N,/D2/INT*
X44863100Y-28377100D03*
G04 #@! TD*
D17*
G04 #@! TO.P,P1,1*
G04 #@! TO.N,/VCC_raw*
X17729200Y-16878300D03*
D18*
G04 #@! TO.P,P1,2*
G04 #@! TO.N,/GND*
X17729200Y-19418300D03*
G04 #@! TD*
D19*
G04 #@! TO.P,P6,3*
G04 #@! TO.N,/RX2*
X65514220Y-44889420D03*
G04 #@! TO.P,P6,2*
G04 #@! TO.N,/TX2*
X62974220Y-44889420D03*
D20*
G04 #@! TO.P,P6,1*
G04 #@! TO.N,/GND*
X60434220Y-44889420D03*
G04 #@! TD*
G04 #@! TO.P,P10,1*
G04 #@! TO.N,/RX2*
X40220900Y-44894500D03*
D19*
G04 #@! TO.P,P10,2*
G04 #@! TO.N,/TX2*
X42760900Y-44894500D03*
G04 #@! TO.P,P10,3*
G04 #@! TO.N,/GND*
X45300900Y-44894500D03*
G04 #@! TO.P,P10,4*
G04 #@! TO.N,Net-(P10-Pad4)*
X47840900Y-44894500D03*
G04 #@! TO.P,P10,5*
G04 #@! TO.N,/VCC5*
X50380900Y-44894500D03*
G04 #@! TO.P,P10,6*
G04 #@! TO.N,Net-(P10-Pad6)*
X52920900Y-44894500D03*
G04 #@! TO.P,P10,7*
G04 #@! TO.N,/A2/CTL*
X55460900Y-44894500D03*
G04 #@! TD*
D10*
G04 #@! TO.P,P12,1*
G04 #@! TO.N,/RST*
X61902340Y-19400520D03*
D11*
G04 #@! TO.P,P12,2*
G04 #@! TO.N,/D11*
X61902340Y-21940520D03*
G04 #@! TO.P,P12,3*
G04 #@! TO.N,/D12*
X61902340Y-24480520D03*
G04 #@! TO.P,P12,4*
G04 #@! TO.N,/D13*
X61902340Y-27020520D03*
G04 #@! TO.P,P12,5*
G04 #@! TO.N,/GND*
X61902340Y-29560520D03*
G04 #@! TD*
D20*
G04 #@! TO.P,P15,1*
G04 #@! TO.N,Net-(P15-Pad1)*
X51015900Y-78562200D03*
D19*
G04 #@! TO.P,P15,2*
G04 #@! TO.N,Net-(P15-Pad2)*
X48475900Y-78562200D03*
G04 #@! TO.P,P15,3*
G04 #@! TO.N,Net-(P15-Pad3)*
X45935900Y-78562200D03*
G04 #@! TO.P,P15,4*
G04 #@! TO.N,/D7/CO2_O*
X43395900Y-78562200D03*
G04 #@! TO.P,P15,5*
G04 #@! TO.N,Net-(P15-Pad5)*
X40855900Y-78562200D03*
G04 #@! TO.P,P15,6*
G04 #@! TO.N,/GND*
X38315900Y-78562200D03*
G04 #@! TO.P,P15,7*
G04 #@! TO.N,/VCC5*
X35775900Y-78562200D03*
G04 #@! TO.P,P15,8*
G04 #@! TO.N,Net-(P15-Pad8)*
X33235900Y-78562200D03*
G04 #@! TO.P,P15,9*
G04 #@! TO.N,Net-(P15-Pad9)*
X30695900Y-78562200D03*
G04 #@! TD*
D21*
G04 #@! TO.P,R1,1*
G04 #@! TO.N,/XTAL2*
X29197300Y-41979600D03*
G04 #@! TO.P,R1,2*
G04 #@! TO.N,/XTAL1*
X29197300Y-37979600D03*
G04 #@! TD*
G04 #@! TO.P,R6,1*
G04 #@! TO.N,/A4/SDA*
X52374800Y-22815300D03*
G04 #@! TO.P,R6,2*
G04 #@! TO.N,/VCC3v3*
X52374800Y-18815300D03*
G04 #@! TD*
G04 #@! TO.P,R7,2*
G04 #@! TO.N,/VCC3v3*
X47675800Y-18815300D03*
G04 #@! TO.P,R7,1*
G04 #@! TO.N,/A5/SCL*
X47675800Y-22815300D03*
G04 #@! TD*
G04 #@! TO.P,R8,2*
G04 #@! TO.N,/VCC3v3*
X42824400Y-18764500D03*
G04 #@! TO.P,R8,1*
G04 #@! TO.N,/RST*
X42824400Y-22764500D03*
G04 #@! TD*
D22*
G04 #@! TO.P,U1,2*
G04 #@! TO.N,/VCC3v3*
X33223200Y-23152500D03*
D23*
X33223200Y-16852500D03*
G04 #@! TO.P,U1,3*
G04 #@! TO.N,/VCC5*
X30923200Y-16852500D03*
G04 #@! TO.P,U1,1*
G04 #@! TO.N,/GND*
X35523200Y-16852500D03*
G04 #@! TD*
D11*
G04 #@! TO.P,U2,9*
G04 #@! TO.N,/D12*
X71107300Y-44945300D03*
G04 #@! TO.P,U2,8*
G04 #@! TO.N,/VCC3v3*
X71107300Y-42405300D03*
G04 #@! TO.P,U2,7*
G04 #@! TO.N,/D13*
X71107300Y-39865300D03*
G04 #@! TO.P,U2,6*
G04 #@! TO.N,/D11*
X71107300Y-37325300D03*
G04 #@! TO.P,U2,5*
G04 #@! TO.N,/D5*
X71107300Y-34785300D03*
G04 #@! TO.P,U2,4*
G04 #@! TO.N,/D6*
X71107300Y-32245300D03*
G04 #@! TO.P,U2,3*
G04 #@! TO.N,/D10*
X71107300Y-29705300D03*
G04 #@! TO.P,U2,2*
G04 #@! TO.N,/GND*
X71107300Y-27165300D03*
D10*
G04 #@! TO.P,U2,1*
G04 #@! TO.N,/VCC3v3*
X71107300Y-24625300D03*
G04 #@! TD*
D24*
G04 #@! TO.N,/GND*
X40952420Y-26431240D03*
X63654940Y-34843720D03*
X39702740Y-32979360D03*
G04 #@! TO.N,/D5*
X38112700Y-39547800D03*
G04 #@! TO.N,/D6*
X41328340Y-55526940D03*
X66776600Y-52384960D03*
X68148200Y-38092380D03*
G04 #@! TO.N,/RX2*
X48846740Y-47650400D03*
G04 #@! TO.N,/D10*
X65488820Y-36019740D03*
G04 #@! TO.N,/D11*
X65763140Y-39217600D03*
G04 #@! TO.N,/D12*
X54759860Y-37381180D03*
G04 #@! TO.N,/D13*
X56067040Y-35477100D03*
X62354460Y-33489900D03*
G04 #@! TD*
D25*
G04 #@! TO.N,/GND*
X42508098Y-31477100D02*
X41112440Y-30081442D01*
X43363100Y-31477100D02*
X42508098Y-31477100D01*
X41112440Y-30081442D02*
X41112440Y-28145740D01*
X59185760Y-32277100D02*
X61902340Y-29560520D01*
X51963100Y-32277100D02*
X59185760Y-32277100D01*
D26*
X43363100Y-33077100D02*
X39800480Y-33077100D01*
X39800480Y-33077100D02*
X39702740Y-32979360D01*
X39702740Y-32979360D02*
X39702740Y-32979360D01*
D27*
G04 #@! TO.N,Net-(C1-Pad1)*
X56466740Y-33901380D02*
X56466740Y-33901380D01*
X55642460Y-33077100D02*
X51963100Y-33077100D01*
X59775960Y-37210600D02*
X55642460Y-33077100D01*
X59775960Y-37894260D02*
X59775960Y-37210600D01*
G04 #@! TO.N,/VCC5*
X18592800Y-33109300D02*
X19811600Y-34328100D01*
X18592800Y-26847800D02*
X18592800Y-33109300D01*
X19811600Y-34328100D02*
X22580200Y-31559500D01*
X22580200Y-31559500D02*
X25679400Y-31559500D01*
X29845400Y-27393500D02*
X31038800Y-27393500D01*
X25679400Y-31559500D02*
X29845400Y-27393500D01*
X30923200Y-16852500D02*
X29489800Y-16852500D01*
X29489800Y-16852500D02*
X28232100Y-18110200D01*
X28232100Y-24586800D02*
X31038800Y-27393500D01*
X28232100Y-18110200D02*
X28232100Y-24586800D01*
X19811600Y-62597900D02*
X35775900Y-78562200D01*
X19811600Y-34328100D02*
X19811600Y-62597900D01*
X35775900Y-78562200D02*
X39146480Y-81932780D01*
X39146480Y-81932780D02*
X58912760Y-81932780D01*
X58912760Y-81932780D02*
X59852560Y-80992980D01*
X59852560Y-80992980D02*
X59852560Y-60258960D01*
X50380900Y-50787300D02*
X50380900Y-44894500D01*
X59852560Y-60258960D02*
X50380900Y-50787300D01*
G04 #@! TO.N,/VCC3v3*
X33223200Y-16852500D02*
X33223200Y-23152500D01*
X33223200Y-24485200D02*
X36207700Y-27469700D01*
X33223200Y-23152500D02*
X33223200Y-24485200D01*
D26*
X33223200Y-16852500D02*
X33236300Y-16852500D01*
D27*
X34373201Y-15452499D02*
X40430859Y-15452499D01*
X33223200Y-16602500D02*
X34373201Y-15452499D01*
X33223200Y-16852500D02*
X33223200Y-16602500D01*
X42824400Y-17846040D02*
X42824400Y-18764500D01*
X40430859Y-15452499D02*
X42824400Y-17846040D01*
X47625000Y-18764500D02*
X47675800Y-18815300D01*
X42824400Y-18764500D02*
X47625000Y-18764500D01*
X47675800Y-18815300D02*
X52374800Y-18815300D01*
X52374800Y-18815300D02*
X54588160Y-18815300D01*
X54588160Y-18815300D02*
X57985660Y-15417800D01*
X58115200Y-15417800D02*
X58160920Y-15372080D01*
X57985660Y-15417800D02*
X58115200Y-15417800D01*
X58160920Y-15372080D02*
X64018160Y-15372080D01*
X71107300Y-22461220D02*
X71107300Y-24625300D01*
X64018160Y-15372080D02*
X71107300Y-22461220D01*
D25*
X37505700Y-27469700D02*
X36207700Y-27469700D01*
X42313100Y-32277100D02*
X37505700Y-27469700D01*
X43363100Y-32277100D02*
X42313100Y-32277100D01*
D27*
X51018098Y-34677100D02*
X51963100Y-34677100D01*
X50218098Y-33877100D02*
X51018098Y-34677100D01*
X43363100Y-33877100D02*
X50218098Y-33877100D01*
X48618098Y-32277100D02*
X50218098Y-33877100D01*
X43363100Y-32277100D02*
X48618098Y-32277100D01*
X71107300Y-42405300D02*
X71935340Y-42405300D01*
X71935340Y-42405300D02*
X73474580Y-40866060D01*
X73474580Y-26992580D02*
X71107300Y-24625300D01*
X73474580Y-40866060D02*
X73474580Y-26992580D01*
D25*
G04 #@! TO.N,/XTAL1*
X34893400Y-34677100D02*
X34087200Y-33870900D01*
X43363100Y-34677100D02*
X34893400Y-34677100D01*
X32740600Y-35217500D02*
X34087200Y-33870900D01*
X32740600Y-37388800D02*
X32740600Y-35217500D01*
X29788100Y-37388800D02*
X29197300Y-37979600D01*
X32740600Y-37388800D02*
X29788100Y-37388800D01*
G04 #@! TO.N,/XTAL2*
X39802300Y-35477100D02*
X32760600Y-42518800D01*
X43363100Y-35477100D02*
X39802300Y-35477100D01*
X29736500Y-42518800D02*
X29197300Y-41979600D01*
X32760600Y-42518800D02*
X29736500Y-42518800D01*
X32760600Y-44622000D02*
X34138000Y-45999400D01*
X32760600Y-42518800D02*
X32760600Y-44622000D01*
D27*
G04 #@! TO.N,/VCC_raw*
X21120100Y-16878300D02*
X21475700Y-16522700D01*
X17729200Y-16878300D02*
X21120100Y-16878300D01*
G04 #@! TO.N,Net-(D1-Pad1)*
X23886209Y-17922191D02*
X22362209Y-17922191D01*
X25285700Y-16522700D02*
X23886209Y-17922191D01*
X21517500Y-18766900D02*
X21517500Y-20231100D01*
X22362209Y-17922191D02*
X21517500Y-18766900D01*
G04 #@! TO.N,Net-(F1-Pad2)*
X23567500Y-26742500D02*
X23672800Y-26847800D01*
X23567500Y-20231100D02*
X23567500Y-26742500D01*
D25*
G04 #@! TO.N,/D5*
X40683400Y-36977100D02*
X44863100Y-36977100D01*
X38112700Y-39547800D02*
X40683400Y-36977100D01*
G04 #@! TO.N,/D6*
X45663100Y-38027100D02*
X43786800Y-39903400D01*
X45663100Y-36977100D02*
X45663100Y-38027100D01*
X43786800Y-39903400D02*
X39794180Y-39903400D01*
X37539030Y-42158550D02*
X37539030Y-52306590D01*
X39794180Y-39903400D02*
X37539030Y-42158550D01*
X37539030Y-52306590D02*
X40759380Y-55526940D01*
X40759380Y-55526940D02*
X41328340Y-55526940D01*
X41328340Y-55526940D02*
X41328340Y-55526940D01*
X41328340Y-55526940D02*
X41328340Y-55526940D01*
X66776600Y-52384960D02*
X66776600Y-48483520D01*
X68148200Y-47111920D02*
X66776600Y-48483520D01*
X68148200Y-38092380D02*
X68148200Y-47111920D01*
G04 #@! TO.N,/D7/CO2_O*
X38039040Y-47680880D02*
X43395900Y-53037740D01*
X38039040Y-43329860D02*
X38039040Y-47680880D01*
X40388540Y-40980360D02*
X38039040Y-43329860D01*
X43509840Y-40980360D02*
X40388540Y-40980360D01*
X43395900Y-53037740D02*
X43395900Y-78562200D01*
X46463100Y-38027100D02*
X43509840Y-40980360D01*
X46463100Y-36977100D02*
X46463100Y-38027100D01*
G04 #@! TO.N,/RX2*
X47263100Y-37934220D02*
X47263100Y-36977100D01*
X41586910Y-43528490D02*
X41668830Y-43528490D01*
X41668830Y-43528490D02*
X47263100Y-37934220D01*
X40220900Y-44894500D02*
X41586910Y-43528490D01*
X40220900Y-44894500D02*
X40220900Y-45674280D01*
X40220900Y-45674280D02*
X42197020Y-47650400D01*
X42197020Y-47650400D02*
X48846740Y-47650400D01*
X48846740Y-47650400D02*
X48846740Y-47650400D01*
G04 #@! TO.N,/TX2*
X42760900Y-44894500D02*
X42760900Y-44455080D01*
X48063100Y-39152880D02*
X48063100Y-36977100D01*
X42760900Y-44455080D02*
X48063100Y-39152880D01*
X49281760Y-39152880D02*
X51754400Y-41625520D01*
X48063100Y-39152880D02*
X49281760Y-39152880D01*
X59710320Y-41625520D02*
X62974220Y-44889420D01*
X51754400Y-41625520D02*
X59710320Y-41625520D01*
G04 #@! TO.N,/D10*
X48863100Y-37934220D02*
X51739060Y-40810180D01*
X48863100Y-36977100D02*
X48863100Y-37934220D01*
X51739060Y-40810180D02*
X65946020Y-40810180D01*
X65946020Y-40810180D02*
X67056000Y-39700200D01*
X67056000Y-39700200D02*
X67056000Y-38402260D01*
X67056000Y-38402260D02*
X65488820Y-36835080D01*
X65488820Y-36835080D02*
X65488820Y-36019740D01*
X65488820Y-36019740D02*
X65488820Y-36019740D01*
G04 #@! TO.N,/D11*
X65763140Y-39217600D02*
X65763140Y-39217600D01*
X63662560Y-39535100D02*
X51171100Y-39535100D01*
X51171100Y-39535100D02*
X49663100Y-38027100D01*
X64437260Y-38760400D02*
X63662560Y-39535100D01*
X49663100Y-38027100D02*
X49663100Y-36977100D01*
X65305940Y-38760400D02*
X64437260Y-38760400D01*
X65763140Y-39217600D02*
X65305940Y-38760400D01*
X63218340Y-21940520D02*
X67972940Y-26695120D01*
X61902340Y-21940520D02*
X63218340Y-21940520D01*
X67972940Y-34190940D02*
X71107300Y-37325300D01*
X67972940Y-26695120D02*
X67972940Y-34190940D01*
G04 #@! TO.N,/D12*
X50463100Y-37687600D02*
X51081240Y-38305740D01*
X50463100Y-36977100D02*
X50463100Y-37687600D01*
X51081240Y-38305740D02*
X53835300Y-38305740D01*
X53835300Y-38305740D02*
X54759860Y-37381180D01*
X54759860Y-37381180D02*
X54759860Y-37381180D01*
D27*
G04 #@! TO.N,/D13*
X51963100Y-35477100D02*
X56067040Y-35477100D01*
X56067040Y-35477100D02*
X56067040Y-35477100D01*
D25*
X62354460Y-33489900D02*
X64655722Y-33489900D01*
X71031122Y-39865300D02*
X64655722Y-33489900D01*
X71107300Y-39865300D02*
X71031122Y-39865300D01*
X64655722Y-33489900D02*
X64355980Y-33489900D01*
X64355980Y-29474160D02*
X61902340Y-27020520D01*
X64355980Y-33489900D02*
X64355980Y-29474160D01*
G04 #@! TO.N,/A4/SDA*
X48863100Y-27527400D02*
X48863100Y-28377100D01*
X52374800Y-24015700D02*
X48863100Y-27527400D01*
X52374800Y-22815300D02*
X52374800Y-24015700D01*
G04 #@! TO.N,/A5/SCL*
X48063100Y-23202600D02*
X47675800Y-22815300D01*
X48063100Y-28377100D02*
X48063100Y-23202600D01*
G04 #@! TO.N,/RST*
X47263100Y-27327100D02*
X44967700Y-25031700D01*
X47263100Y-28377100D02*
X47263100Y-27327100D01*
X44967700Y-25031700D02*
X43345100Y-25031700D01*
X42824400Y-24511000D02*
X42824400Y-22764500D01*
X43345100Y-25031700D02*
X42824400Y-24511000D01*
X42824400Y-22764500D02*
X42824400Y-21691600D01*
X42824400Y-21691600D02*
X43822620Y-20693380D01*
X60609480Y-20693380D02*
X61902340Y-19400520D01*
X43822620Y-20693380D02*
X60609480Y-20693380D01*
G04 #@! TD*
D28*
G04 #@! TO.N,/GND*
X33430404Y-15214428D02*
X32473200Y-15214428D01*
X32348718Y-15226688D01*
X32229020Y-15262998D01*
X32118706Y-15321963D01*
X32073200Y-15359309D01*
X32027694Y-15321963D01*
X31917380Y-15262998D01*
X31797682Y-15226688D01*
X31673200Y-15214428D01*
X30173200Y-15214428D01*
X30048718Y-15226688D01*
X29929020Y-15262998D01*
X29818706Y-15321963D01*
X29722015Y-15401315D01*
X29642663Y-15498006D01*
X29583698Y-15608320D01*
X29547388Y-15728018D01*
X29535128Y-15852500D01*
X29535128Y-16017500D01*
X29530807Y-16017500D01*
X29489799Y-16013461D01*
X29448791Y-16017500D01*
X29448781Y-16017500D01*
X29326111Y-16029582D01*
X29168713Y-16077328D01*
X29023654Y-16154864D01*
X28896509Y-16259209D01*
X28870358Y-16291074D01*
X27670679Y-17490754D01*
X27638809Y-17516909D01*
X27547909Y-17627672D01*
X27534464Y-17644055D01*
X27456928Y-17789114D01*
X27409182Y-17946512D01*
X27393060Y-18110200D01*
X27397100Y-18151219D01*
X27397101Y-24545772D01*
X27393060Y-24586800D01*
X27409182Y-24750488D01*
X27456928Y-24907886D01*
X27526910Y-25038812D01*
X27534465Y-25052946D01*
X27638810Y-25180091D01*
X27670674Y-25206241D01*
X29258992Y-26794560D01*
X29252109Y-26800209D01*
X29225963Y-26832068D01*
X25333533Y-30724500D01*
X22621218Y-30724500D01*
X22580200Y-30720460D01*
X22539182Y-30724500D01*
X22539181Y-30724500D01*
X22416511Y-30736582D01*
X22259113Y-30784328D01*
X22114054Y-30861864D01*
X21986909Y-30966209D01*
X21960763Y-30998068D01*
X20168804Y-32790028D01*
X19454395Y-32790028D01*
X19427800Y-32763433D01*
X19427800Y-28256268D01*
X19635052Y-28117787D01*
X19862787Y-27890052D01*
X20041718Y-27622263D01*
X20164968Y-27324712D01*
X20227800Y-27008833D01*
X20227800Y-26686767D01*
X20164968Y-26370888D01*
X20041718Y-26073337D01*
X19862787Y-25805548D01*
X19635052Y-25577813D01*
X19367263Y-25398882D01*
X19069712Y-25275632D01*
X18753833Y-25212800D01*
X18431767Y-25212800D01*
X18115888Y-25275632D01*
X17818337Y-25398882D01*
X17550548Y-25577813D01*
X17322813Y-25805548D01*
X17143882Y-26073337D01*
X17020632Y-26370888D01*
X16957800Y-26686767D01*
X16957800Y-27008833D01*
X17020632Y-27324712D01*
X17143882Y-27622263D01*
X17322813Y-27890052D01*
X17550548Y-28117787D01*
X17757800Y-28256269D01*
X17757801Y-33068272D01*
X17753760Y-33109300D01*
X17769882Y-33272988D01*
X17817628Y-33430386D01*
X17884778Y-33556014D01*
X17895165Y-33575446D01*
X17999510Y-33702591D01*
X18031374Y-33728741D01*
X18511028Y-34208395D01*
X18511028Y-34978101D01*
X18528092Y-35151355D01*
X18578628Y-35317951D01*
X18660695Y-35471487D01*
X18771138Y-35606062D01*
X18905713Y-35716505D01*
X18976600Y-35754395D01*
X18976601Y-62556871D01*
X18972560Y-62597900D01*
X18988682Y-62761588D01*
X19036428Y-62918986D01*
X19036429Y-62918987D01*
X19113965Y-63064046D01*
X19218310Y-63191191D01*
X19250174Y-63217341D01*
X32963600Y-76930769D01*
X32942124Y-76932884D01*
X32659637Y-77018575D01*
X32399295Y-77157731D01*
X32171103Y-77345003D01*
X31983831Y-77573194D01*
X31965900Y-77606741D01*
X31947969Y-77573194D01*
X31760697Y-77345003D01*
X31532506Y-77157731D01*
X31272164Y-77018575D01*
X30989677Y-76932884D01*
X30695900Y-76903949D01*
X30402124Y-76932884D01*
X30119637Y-77018575D01*
X29859295Y-77157731D01*
X29631103Y-77345003D01*
X29443831Y-77573194D01*
X29304675Y-77833536D01*
X29218984Y-78116023D01*
X29197300Y-78336181D01*
X29197300Y-78788218D01*
X29218984Y-79008376D01*
X29304675Y-79290863D01*
X29443831Y-79551205D01*
X29631103Y-79779397D01*
X29859294Y-79966669D01*
X30119636Y-80105825D01*
X30402123Y-80191516D01*
X30695900Y-80220451D01*
X30989676Y-80191516D01*
X31272163Y-80105825D01*
X31532505Y-79966669D01*
X31760697Y-79779397D01*
X31947969Y-79551206D01*
X31965900Y-79517659D01*
X31983831Y-79551205D01*
X32171103Y-79779397D01*
X32399294Y-79966669D01*
X32659636Y-80105825D01*
X32942123Y-80191516D01*
X33235900Y-80220451D01*
X33529676Y-80191516D01*
X33812163Y-80105825D01*
X34072505Y-79966669D01*
X34300697Y-79779397D01*
X34487969Y-79551206D01*
X34505900Y-79517659D01*
X34523831Y-79551205D01*
X34711103Y-79779397D01*
X34939294Y-79966669D01*
X35199636Y-80105825D01*
X35482123Y-80191516D01*
X35775900Y-80220451D01*
X36069676Y-80191516D01*
X36188349Y-80155517D01*
X38527043Y-82494212D01*
X38553189Y-82526071D01*
X38585048Y-82552217D01*
X38585050Y-82552219D01*
X38680334Y-82630416D01*
X38825393Y-82707952D01*
X38982791Y-82755698D01*
X39146480Y-82771820D01*
X39187498Y-82767780D01*
X58871742Y-82767780D01*
X58912760Y-82771820D01*
X58953778Y-82767780D01*
X58953779Y-82767780D01*
X59076449Y-82755698D01*
X59233847Y-82707952D01*
X59378906Y-82630416D01*
X59506051Y-82526071D01*
X59532205Y-82494202D01*
X60413993Y-81612416D01*
X60445851Y-81586271D01*
X60550196Y-81459126D01*
X60627732Y-81314067D01*
X60675478Y-81156669D01*
X60687560Y-81033999D01*
X60687560Y-81033998D01*
X60691600Y-80992980D01*
X60687560Y-80951962D01*
X60687560Y-60299978D01*
X60691600Y-60258959D01*
X60675478Y-60095271D01*
X60627732Y-59937873D01*
X60550196Y-59792814D01*
X60445851Y-59665669D01*
X60413987Y-59639519D01*
X51215900Y-50441433D01*
X51215900Y-46299827D01*
X51217506Y-46298969D01*
X51445697Y-46111697D01*
X51632969Y-45883506D01*
X51650900Y-45849959D01*
X51668831Y-45883506D01*
X51856103Y-46111697D01*
X52084295Y-46298969D01*
X52344637Y-46438125D01*
X52627124Y-46523816D01*
X52920900Y-46552751D01*
X53214677Y-46523816D01*
X53497164Y-46438125D01*
X53757506Y-46298969D01*
X53985697Y-46111697D01*
X54172969Y-45883506D01*
X54190900Y-45849959D01*
X54208831Y-45883506D01*
X54396103Y-46111697D01*
X54624295Y-46298969D01*
X54884637Y-46438125D01*
X55167124Y-46523816D01*
X55460900Y-46552751D01*
X55754677Y-46523816D01*
X56037164Y-46438125D01*
X56297506Y-46298969D01*
X56525697Y-46111697D01*
X56694984Y-45905420D01*
X58932548Y-45905420D01*
X58944808Y-46029902D01*
X58981118Y-46149600D01*
X59040083Y-46259914D01*
X59119435Y-46356605D01*
X59216126Y-46435957D01*
X59326440Y-46494922D01*
X59446138Y-46531232D01*
X59570620Y-46543492D01*
X60148470Y-46540420D01*
X60307220Y-46381670D01*
X60307220Y-45016420D01*
X59094370Y-45016420D01*
X58935620Y-45175170D01*
X58932548Y-45905420D01*
X56694984Y-45905420D01*
X56712969Y-45883506D01*
X56852125Y-45623163D01*
X56937816Y-45340676D01*
X56959500Y-45120518D01*
X56959500Y-44668481D01*
X56937816Y-44448323D01*
X56852125Y-44165836D01*
X56712969Y-43905494D01*
X56525697Y-43677303D01*
X56297505Y-43490031D01*
X56037163Y-43350875D01*
X55754676Y-43265184D01*
X55460900Y-43236249D01*
X55167123Y-43265184D01*
X54884636Y-43350875D01*
X54624294Y-43490031D01*
X54396103Y-43677303D01*
X54208831Y-43905495D01*
X54190900Y-43939041D01*
X54172969Y-43905494D01*
X53985697Y-43677303D01*
X53757505Y-43490031D01*
X53497163Y-43350875D01*
X53214676Y-43265184D01*
X52920900Y-43236249D01*
X52627123Y-43265184D01*
X52344636Y-43350875D01*
X52084294Y-43490031D01*
X51856103Y-43677303D01*
X51668831Y-43905495D01*
X51650900Y-43939041D01*
X51632969Y-43905494D01*
X51445697Y-43677303D01*
X51217505Y-43490031D01*
X50957163Y-43350875D01*
X50674676Y-43265184D01*
X50380900Y-43236249D01*
X50087123Y-43265184D01*
X49804636Y-43350875D01*
X49544294Y-43490031D01*
X49316103Y-43677303D01*
X49128831Y-43905495D01*
X49110900Y-43939041D01*
X49092969Y-43905494D01*
X48905697Y-43677303D01*
X48677505Y-43490031D01*
X48417163Y-43350875D01*
X48134676Y-43265184D01*
X47840900Y-43236249D01*
X47547123Y-43265184D01*
X47264636Y-43350875D01*
X47004294Y-43490031D01*
X46776103Y-43677303D01*
X46588831Y-43905495D01*
X46567476Y-43945447D01*
X46419386Y-43742771D01*
X46202935Y-43543767D01*
X45951819Y-43390814D01*
X45675689Y-43289791D01*
X45659926Y-43287142D01*
X45427900Y-43408283D01*
X45427900Y-44767500D01*
X45447900Y-44767500D01*
X45447900Y-45021500D01*
X45427900Y-45021500D01*
X45427900Y-46380717D01*
X45659926Y-46501858D01*
X45675689Y-46499209D01*
X45951819Y-46398186D01*
X46202935Y-46245233D01*
X46419386Y-46046229D01*
X46567476Y-45843553D01*
X46588831Y-45883506D01*
X46776103Y-46111697D01*
X47004295Y-46298969D01*
X47264637Y-46438125D01*
X47547124Y-46523816D01*
X47840900Y-46552751D01*
X48134677Y-46523816D01*
X48417164Y-46438125D01*
X48677506Y-46298969D01*
X48905697Y-46111697D01*
X49092969Y-45883506D01*
X49110900Y-45849959D01*
X49128831Y-45883506D01*
X49316103Y-46111697D01*
X49544295Y-46298969D01*
X49545901Y-46299827D01*
X49545901Y-46885850D01*
X49506514Y-46846463D01*
X49336996Y-46733195D01*
X49148638Y-46655174D01*
X48948679Y-46615400D01*
X48744801Y-46615400D01*
X48544842Y-46655174D01*
X48356484Y-46733195D01*
X48186966Y-46846463D01*
X48168029Y-46865400D01*
X42522177Y-46865400D01*
X41991861Y-46335084D01*
X42184637Y-46438125D01*
X42467124Y-46523816D01*
X42760900Y-46552751D01*
X43054677Y-46523816D01*
X43337164Y-46438125D01*
X43597506Y-46298969D01*
X43825697Y-46111697D01*
X44012969Y-45883506D01*
X44034324Y-45843553D01*
X44182414Y-46046229D01*
X44398865Y-46245233D01*
X44649981Y-46398186D01*
X44926111Y-46499209D01*
X44941874Y-46501858D01*
X45173900Y-46380717D01*
X45173900Y-45021500D01*
X45153900Y-45021500D01*
X45153900Y-44767500D01*
X45173900Y-44767500D01*
X45173900Y-43408283D01*
X45005681Y-43320456D01*
X48388258Y-39937880D01*
X48956603Y-39937880D01*
X51172058Y-42153336D01*
X51196636Y-42183284D01*
X51226584Y-42207862D01*
X51226587Y-42207865D01*
X51247494Y-42225023D01*
X51316167Y-42281382D01*
X51452540Y-42354274D01*
X51600513Y-42399161D01*
X51715839Y-42410520D01*
X51715846Y-42410520D01*
X51754399Y-42414317D01*
X51792952Y-42410520D01*
X59385163Y-42410520D01*
X60307218Y-43332575D01*
X60307218Y-43397168D01*
X60148470Y-43238420D01*
X59570620Y-43235348D01*
X59446138Y-43247608D01*
X59326440Y-43283918D01*
X59216126Y-43342883D01*
X59119435Y-43422235D01*
X59040083Y-43518926D01*
X58981118Y-43629240D01*
X58944808Y-43748938D01*
X58932548Y-43873420D01*
X58935620Y-44603670D01*
X59094370Y-44762420D01*
X60307220Y-44762420D01*
X60307220Y-44742420D01*
X60561220Y-44742420D01*
X60561220Y-44762420D01*
X60581220Y-44762420D01*
X60581220Y-45016420D01*
X60561220Y-45016420D01*
X60561220Y-46381670D01*
X60719970Y-46540420D01*
X61297820Y-46543492D01*
X61422302Y-46531232D01*
X61542000Y-46494922D01*
X61652314Y-46435957D01*
X61749005Y-46356605D01*
X61828357Y-46259914D01*
X61887322Y-46149600D01*
X61902806Y-46098555D01*
X61909423Y-46106617D01*
X62137615Y-46293889D01*
X62397957Y-46433045D01*
X62680444Y-46518736D01*
X62974220Y-46547671D01*
X63267997Y-46518736D01*
X63550484Y-46433045D01*
X63810826Y-46293889D01*
X64039017Y-46106617D01*
X64226289Y-45878426D01*
X64244220Y-45844879D01*
X64262151Y-45878426D01*
X64449423Y-46106617D01*
X64677615Y-46293889D01*
X64937957Y-46433045D01*
X65220444Y-46518736D01*
X65514220Y-46547671D01*
X65807997Y-46518736D01*
X66090484Y-46433045D01*
X66350826Y-46293889D01*
X66579017Y-46106617D01*
X66766289Y-45878426D01*
X66905445Y-45618083D01*
X66991136Y-45335596D01*
X67012820Y-45115438D01*
X67012820Y-44663401D01*
X66991136Y-44443243D01*
X66905445Y-44160756D01*
X66766289Y-43900414D01*
X66579017Y-43672223D01*
X66350825Y-43484951D01*
X66090483Y-43345795D01*
X65807996Y-43260104D01*
X65514220Y-43231169D01*
X65220443Y-43260104D01*
X64937956Y-43345795D01*
X64677614Y-43484951D01*
X64449423Y-43672223D01*
X64262151Y-43900415D01*
X64244220Y-43933961D01*
X64226289Y-43900414D01*
X64039017Y-43672223D01*
X63810825Y-43484951D01*
X63550483Y-43345795D01*
X63267996Y-43260104D01*
X62974220Y-43231169D01*
X62680443Y-43260104D01*
X62507517Y-43312560D01*
X60790137Y-41595180D01*
X65907467Y-41595180D01*
X65946020Y-41598977D01*
X65984573Y-41595180D01*
X65984581Y-41595180D01*
X66099907Y-41583821D01*
X66247880Y-41538934D01*
X66384253Y-41466042D01*
X66503784Y-41367944D01*
X66528367Y-41337990D01*
X67363200Y-40503157D01*
X67363201Y-46786761D01*
X66248785Y-47901178D01*
X66218837Y-47925756D01*
X66194259Y-47955704D01*
X66194255Y-47955708D01*
X66172071Y-47982740D01*
X66120739Y-48045287D01*
X66081777Y-48118180D01*
X66047846Y-48181661D01*
X66002959Y-48329634D01*
X65987803Y-48483520D01*
X65991601Y-48522083D01*
X65991600Y-51706249D01*
X65972663Y-51725186D01*
X65859395Y-51894704D01*
X65781374Y-52083062D01*
X65741600Y-52283021D01*
X65741600Y-52486899D01*
X65781374Y-52686858D01*
X65859395Y-52875216D01*
X65972663Y-53044734D01*
X66116826Y-53188897D01*
X66286344Y-53302165D01*
X66474702Y-53380186D01*
X66674661Y-53419960D01*
X66878539Y-53419960D01*
X67078498Y-53380186D01*
X67266856Y-53302165D01*
X67436374Y-53188897D01*
X67580537Y-53044734D01*
X67693805Y-52875216D01*
X67771826Y-52686858D01*
X67811600Y-52486899D01*
X67811600Y-52283021D01*
X67771826Y-52083062D01*
X67693805Y-51894704D01*
X67580537Y-51725186D01*
X67561600Y-51706249D01*
X67561600Y-48808677D01*
X68676016Y-47694262D01*
X68705964Y-47669684D01*
X68804062Y-47550153D01*
X68876954Y-47413780D01*
X68921841Y-47265807D01*
X68933200Y-47150481D01*
X68933200Y-47150474D01*
X68936997Y-47111921D01*
X68933200Y-47073368D01*
X68933200Y-38877536D01*
X69512710Y-39457046D01*
X69477984Y-39571523D01*
X69449049Y-39865300D01*
X69477984Y-40159077D01*
X69563675Y-40441564D01*
X69702831Y-40701906D01*
X69890103Y-40930097D01*
X70118294Y-41117369D01*
X70151840Y-41135300D01*
X70118294Y-41153231D01*
X69890103Y-41340503D01*
X69702831Y-41568694D01*
X69563675Y-41829036D01*
X69477984Y-42111523D01*
X69449049Y-42405300D01*
X69477984Y-42699077D01*
X69563675Y-42981564D01*
X69702831Y-43241906D01*
X69890103Y-43470097D01*
X70118294Y-43657369D01*
X70151840Y-43675300D01*
X70118294Y-43693231D01*
X69890103Y-43880503D01*
X69702831Y-44108694D01*
X69563675Y-44369036D01*
X69477984Y-44651523D01*
X69449049Y-44945300D01*
X69477984Y-45239077D01*
X69563675Y-45521564D01*
X69702831Y-45781906D01*
X69890103Y-46010097D01*
X70118294Y-46197369D01*
X70378636Y-46336525D01*
X70661123Y-46422216D01*
X70881281Y-46443900D01*
X71333319Y-46443900D01*
X71553477Y-46422216D01*
X71835964Y-46336525D01*
X72096306Y-46197369D01*
X72324497Y-46010097D01*
X72511769Y-45781906D01*
X72650925Y-45521564D01*
X72736616Y-45239077D01*
X72765551Y-44945300D01*
X72736616Y-44651523D01*
X72650925Y-44369036D01*
X72511769Y-44108694D01*
X72324497Y-43880503D01*
X72096306Y-43693231D01*
X72062760Y-43675300D01*
X72096306Y-43657369D01*
X72324497Y-43470097D01*
X72511769Y-43241906D01*
X72650925Y-42981564D01*
X72699250Y-42822257D01*
X73581260Y-41940248D01*
X73581260Y-84518840D01*
X16033974Y-84484153D01*
X16010765Y-19801244D01*
X16123225Y-19801244D01*
X16181124Y-19992126D01*
X16322818Y-20283115D01*
X16518558Y-20540869D01*
X16760823Y-20755484D01*
X17040302Y-20918711D01*
X17346255Y-21024278D01*
X17602200Y-20905662D01*
X17602200Y-19545300D01*
X17856200Y-19545300D01*
X17856200Y-20905662D01*
X18112145Y-21024278D01*
X18418098Y-20918711D01*
X18697577Y-20755484D01*
X18939842Y-20540869D01*
X19135582Y-20283115D01*
X19277276Y-19992126D01*
X19335175Y-19801244D01*
X19216036Y-19545300D01*
X17856200Y-19545300D01*
X17602200Y-19545300D01*
X16242364Y-19545300D01*
X16123225Y-19801244D01*
X16010765Y-19801244D01*
X16009065Y-15063910D01*
X20726890Y-15063707D01*
X20701478Y-15074233D01*
X20433773Y-15253108D01*
X20206108Y-15480773D01*
X20027233Y-15748478D01*
X19905114Y-16043300D01*
X19383272Y-16043300D01*
X19383272Y-15862300D01*
X19371012Y-15737818D01*
X19334702Y-15618120D01*
X19275737Y-15507806D01*
X19196385Y-15411115D01*
X19099694Y-15331763D01*
X18989380Y-15272798D01*
X18869682Y-15236488D01*
X18745200Y-15224228D01*
X16713200Y-15224228D01*
X16588718Y-15236488D01*
X16469020Y-15272798D01*
X16358706Y-15331763D01*
X16262015Y-15411115D01*
X16182663Y-15507806D01*
X16123698Y-15618120D01*
X16087388Y-15737818D01*
X16075128Y-15862300D01*
X16075128Y-17894300D01*
X16087388Y-18018782D01*
X16123698Y-18138480D01*
X16182663Y-18248794D01*
X16262015Y-18345485D01*
X16358706Y-18424837D01*
X16402669Y-18448336D01*
X16322818Y-18553485D01*
X16181124Y-18844474D01*
X16123225Y-19035356D01*
X16242364Y-19291300D01*
X17602200Y-19291300D01*
X17602200Y-19271300D01*
X17856200Y-19271300D01*
X17856200Y-19291300D01*
X19216036Y-19291300D01*
X19335175Y-19035356D01*
X19277276Y-18844474D01*
X19135582Y-18553485D01*
X19055731Y-18448336D01*
X19099694Y-18424837D01*
X19196385Y-18345485D01*
X19275737Y-18248794D01*
X19334702Y-18138480D01*
X19371012Y-18018782D01*
X19383272Y-17894300D01*
X19383272Y-17713300D01*
X20354781Y-17713300D01*
X20433773Y-17792292D01*
X20701478Y-17971167D01*
X20998937Y-18094378D01*
X21007460Y-18096073D01*
X20956078Y-18147455D01*
X20924209Y-18173609D01*
X20841913Y-18273888D01*
X20819864Y-18300755D01*
X20742328Y-18445814D01*
X20694582Y-18603212D01*
X20678460Y-18766900D01*
X20682500Y-18807919D01*
X20682500Y-19056329D01*
X20564538Y-19153138D01*
X20454095Y-19287713D01*
X20372028Y-19441249D01*
X20321492Y-19607845D01*
X20304428Y-19781099D01*
X20304428Y-20681101D01*
X20321492Y-20854355D01*
X20372028Y-21020951D01*
X20454095Y-21174487D01*
X20564538Y-21309062D01*
X20699113Y-21419505D01*
X20852649Y-21501572D01*
X21019245Y-21552108D01*
X21192499Y-21569172D01*
X21842501Y-21569172D01*
X22015755Y-21552108D01*
X22182351Y-21501572D01*
X22335887Y-21419505D01*
X22470462Y-21309062D01*
X22542500Y-21221284D01*
X22614538Y-21309062D01*
X22732500Y-21405871D01*
X22732501Y-25509690D01*
X22630548Y-25577813D01*
X22402813Y-25805548D01*
X22223882Y-26073337D01*
X22100632Y-26370888D01*
X22037800Y-26686767D01*
X22037800Y-27008833D01*
X22100632Y-27324712D01*
X22223882Y-27622263D01*
X22402813Y-27890052D01*
X22630548Y-28117787D01*
X22898337Y-28296718D01*
X23195888Y-28419968D01*
X23511767Y-28482800D01*
X23833833Y-28482800D01*
X24149712Y-28419968D01*
X24447263Y-28296718D01*
X24715052Y-28117787D01*
X24942787Y-27890052D01*
X25121718Y-27622263D01*
X25244968Y-27324712D01*
X25307800Y-27008833D01*
X25307800Y-26686767D01*
X25244968Y-26370888D01*
X25121718Y-26073337D01*
X24942787Y-25805548D01*
X24715052Y-25577813D01*
X24447263Y-25398882D01*
X24402500Y-25380341D01*
X24402500Y-21405871D01*
X24520462Y-21309062D01*
X24630905Y-21174487D01*
X24712972Y-21020951D01*
X24763508Y-20854355D01*
X24780572Y-20681101D01*
X24780572Y-19781099D01*
X24763508Y-19607845D01*
X24712972Y-19441249D01*
X24630905Y-19287713D01*
X24520462Y-19153138D01*
X24385887Y-19042695D01*
X24232351Y-18960628D01*
X24065755Y-18910092D01*
X23892501Y-18893028D01*
X23242499Y-18893028D01*
X23069245Y-18910092D01*
X22902649Y-18960628D01*
X22749113Y-19042695D01*
X22614538Y-19153138D01*
X22542500Y-19240916D01*
X22470462Y-19153138D01*
X22383499Y-19081769D01*
X22708077Y-18757191D01*
X23845191Y-18757191D01*
X23886209Y-18761231D01*
X23927227Y-18757191D01*
X23927228Y-18757191D01*
X24049898Y-18745109D01*
X24207296Y-18697363D01*
X24352355Y-18619827D01*
X24479500Y-18515482D01*
X24505655Y-18483612D01*
X24829005Y-18160262D01*
X26285190Y-18160262D01*
X26409672Y-18148002D01*
X26529370Y-18111692D01*
X26639684Y-18052727D01*
X26736375Y-17973375D01*
X26815727Y-17876684D01*
X26874692Y-17766370D01*
X26911002Y-17646672D01*
X26923262Y-17522190D01*
X26923262Y-15523210D01*
X26911002Y-15398728D01*
X26874692Y-15279030D01*
X26815727Y-15168716D01*
X26736375Y-15072025D01*
X26725925Y-15063449D01*
X33581678Y-15063154D01*
X33430404Y-15214428D01*
G04 #@! TA.AperFunction,Conductor*
D29*
G36*
X33430404Y-15214428D02*
G01*
X32473200Y-15214428D01*
X32348718Y-15226688D01*
X32229020Y-15262998D01*
X32118706Y-15321963D01*
X32073200Y-15359309D01*
X32027694Y-15321963D01*
X31917380Y-15262998D01*
X31797682Y-15226688D01*
X31673200Y-15214428D01*
X30173200Y-15214428D01*
X30048718Y-15226688D01*
X29929020Y-15262998D01*
X29818706Y-15321963D01*
X29722015Y-15401315D01*
X29642663Y-15498006D01*
X29583698Y-15608320D01*
X29547388Y-15728018D01*
X29535128Y-15852500D01*
X29535128Y-16017500D01*
X29530807Y-16017500D01*
X29489799Y-16013461D01*
X29448791Y-16017500D01*
X29448781Y-16017500D01*
X29326111Y-16029582D01*
X29168713Y-16077328D01*
X29023654Y-16154864D01*
X28896509Y-16259209D01*
X28870358Y-16291074D01*
X27670679Y-17490754D01*
X27638809Y-17516909D01*
X27547909Y-17627672D01*
X27534464Y-17644055D01*
X27456928Y-17789114D01*
X27409182Y-17946512D01*
X27393060Y-18110200D01*
X27397100Y-18151219D01*
X27397101Y-24545772D01*
X27393060Y-24586800D01*
X27409182Y-24750488D01*
X27456928Y-24907886D01*
X27526910Y-25038812D01*
X27534465Y-25052946D01*
X27638810Y-25180091D01*
X27670674Y-25206241D01*
X29258992Y-26794560D01*
X29252109Y-26800209D01*
X29225963Y-26832068D01*
X25333533Y-30724500D01*
X22621218Y-30724500D01*
X22580200Y-30720460D01*
X22539182Y-30724500D01*
X22539181Y-30724500D01*
X22416511Y-30736582D01*
X22259113Y-30784328D01*
X22114054Y-30861864D01*
X21986909Y-30966209D01*
X21960763Y-30998068D01*
X20168804Y-32790028D01*
X19454395Y-32790028D01*
X19427800Y-32763433D01*
X19427800Y-28256268D01*
X19635052Y-28117787D01*
X19862787Y-27890052D01*
X20041718Y-27622263D01*
X20164968Y-27324712D01*
X20227800Y-27008833D01*
X20227800Y-26686767D01*
X20164968Y-26370888D01*
X20041718Y-26073337D01*
X19862787Y-25805548D01*
X19635052Y-25577813D01*
X19367263Y-25398882D01*
X19069712Y-25275632D01*
X18753833Y-25212800D01*
X18431767Y-25212800D01*
X18115888Y-25275632D01*
X17818337Y-25398882D01*
X17550548Y-25577813D01*
X17322813Y-25805548D01*
X17143882Y-26073337D01*
X17020632Y-26370888D01*
X16957800Y-26686767D01*
X16957800Y-27008833D01*
X17020632Y-27324712D01*
X17143882Y-27622263D01*
X17322813Y-27890052D01*
X17550548Y-28117787D01*
X17757800Y-28256269D01*
X17757801Y-33068272D01*
X17753760Y-33109300D01*
X17769882Y-33272988D01*
X17817628Y-33430386D01*
X17884778Y-33556014D01*
X17895165Y-33575446D01*
X17999510Y-33702591D01*
X18031374Y-33728741D01*
X18511028Y-34208395D01*
X18511028Y-34978101D01*
X18528092Y-35151355D01*
X18578628Y-35317951D01*
X18660695Y-35471487D01*
X18771138Y-35606062D01*
X18905713Y-35716505D01*
X18976600Y-35754395D01*
X18976601Y-62556871D01*
X18972560Y-62597900D01*
X18988682Y-62761588D01*
X19036428Y-62918986D01*
X19036429Y-62918987D01*
X19113965Y-63064046D01*
X19218310Y-63191191D01*
X19250174Y-63217341D01*
X32963600Y-76930769D01*
X32942124Y-76932884D01*
X32659637Y-77018575D01*
X32399295Y-77157731D01*
X32171103Y-77345003D01*
X31983831Y-77573194D01*
X31965900Y-77606741D01*
X31947969Y-77573194D01*
X31760697Y-77345003D01*
X31532506Y-77157731D01*
X31272164Y-77018575D01*
X30989677Y-76932884D01*
X30695900Y-76903949D01*
X30402124Y-76932884D01*
X30119637Y-77018575D01*
X29859295Y-77157731D01*
X29631103Y-77345003D01*
X29443831Y-77573194D01*
X29304675Y-77833536D01*
X29218984Y-78116023D01*
X29197300Y-78336181D01*
X29197300Y-78788218D01*
X29218984Y-79008376D01*
X29304675Y-79290863D01*
X29443831Y-79551205D01*
X29631103Y-79779397D01*
X29859294Y-79966669D01*
X30119636Y-80105825D01*
X30402123Y-80191516D01*
X30695900Y-80220451D01*
X30989676Y-80191516D01*
X31272163Y-80105825D01*
X31532505Y-79966669D01*
X31760697Y-79779397D01*
X31947969Y-79551206D01*
X31965900Y-79517659D01*
X31983831Y-79551205D01*
X32171103Y-79779397D01*
X32399294Y-79966669D01*
X32659636Y-80105825D01*
X32942123Y-80191516D01*
X33235900Y-80220451D01*
X33529676Y-80191516D01*
X33812163Y-80105825D01*
X34072505Y-79966669D01*
X34300697Y-79779397D01*
X34487969Y-79551206D01*
X34505900Y-79517659D01*
X34523831Y-79551205D01*
X34711103Y-79779397D01*
X34939294Y-79966669D01*
X35199636Y-80105825D01*
X35482123Y-80191516D01*
X35775900Y-80220451D01*
X36069676Y-80191516D01*
X36188349Y-80155517D01*
X38527043Y-82494212D01*
X38553189Y-82526071D01*
X38585048Y-82552217D01*
X38585050Y-82552219D01*
X38680334Y-82630416D01*
X38825393Y-82707952D01*
X38982791Y-82755698D01*
X39146480Y-82771820D01*
X39187498Y-82767780D01*
X58871742Y-82767780D01*
X58912760Y-82771820D01*
X58953778Y-82767780D01*
X58953779Y-82767780D01*
X59076449Y-82755698D01*
X59233847Y-82707952D01*
X59378906Y-82630416D01*
X59506051Y-82526071D01*
X59532205Y-82494202D01*
X60413993Y-81612416D01*
X60445851Y-81586271D01*
X60550196Y-81459126D01*
X60627732Y-81314067D01*
X60675478Y-81156669D01*
X60687560Y-81033999D01*
X60687560Y-81033998D01*
X60691600Y-80992980D01*
X60687560Y-80951962D01*
X60687560Y-60299978D01*
X60691600Y-60258959D01*
X60675478Y-60095271D01*
X60627732Y-59937873D01*
X60550196Y-59792814D01*
X60445851Y-59665669D01*
X60413987Y-59639519D01*
X51215900Y-50441433D01*
X51215900Y-46299827D01*
X51217506Y-46298969D01*
X51445697Y-46111697D01*
X51632969Y-45883506D01*
X51650900Y-45849959D01*
X51668831Y-45883506D01*
X51856103Y-46111697D01*
X52084295Y-46298969D01*
X52344637Y-46438125D01*
X52627124Y-46523816D01*
X52920900Y-46552751D01*
X53214677Y-46523816D01*
X53497164Y-46438125D01*
X53757506Y-46298969D01*
X53985697Y-46111697D01*
X54172969Y-45883506D01*
X54190900Y-45849959D01*
X54208831Y-45883506D01*
X54396103Y-46111697D01*
X54624295Y-46298969D01*
X54884637Y-46438125D01*
X55167124Y-46523816D01*
X55460900Y-46552751D01*
X55754677Y-46523816D01*
X56037164Y-46438125D01*
X56297506Y-46298969D01*
X56525697Y-46111697D01*
X56694984Y-45905420D01*
X58932548Y-45905420D01*
X58944808Y-46029902D01*
X58981118Y-46149600D01*
X59040083Y-46259914D01*
X59119435Y-46356605D01*
X59216126Y-46435957D01*
X59326440Y-46494922D01*
X59446138Y-46531232D01*
X59570620Y-46543492D01*
X60148470Y-46540420D01*
X60307220Y-46381670D01*
X60307220Y-45016420D01*
X59094370Y-45016420D01*
X58935620Y-45175170D01*
X58932548Y-45905420D01*
X56694984Y-45905420D01*
X56712969Y-45883506D01*
X56852125Y-45623163D01*
X56937816Y-45340676D01*
X56959500Y-45120518D01*
X56959500Y-44668481D01*
X56937816Y-44448323D01*
X56852125Y-44165836D01*
X56712969Y-43905494D01*
X56525697Y-43677303D01*
X56297505Y-43490031D01*
X56037163Y-43350875D01*
X55754676Y-43265184D01*
X55460900Y-43236249D01*
X55167123Y-43265184D01*
X54884636Y-43350875D01*
X54624294Y-43490031D01*
X54396103Y-43677303D01*
X54208831Y-43905495D01*
X54190900Y-43939041D01*
X54172969Y-43905494D01*
X53985697Y-43677303D01*
X53757505Y-43490031D01*
X53497163Y-43350875D01*
X53214676Y-43265184D01*
X52920900Y-43236249D01*
X52627123Y-43265184D01*
X52344636Y-43350875D01*
X52084294Y-43490031D01*
X51856103Y-43677303D01*
X51668831Y-43905495D01*
X51650900Y-43939041D01*
X51632969Y-43905494D01*
X51445697Y-43677303D01*
X51217505Y-43490031D01*
X50957163Y-43350875D01*
X50674676Y-43265184D01*
X50380900Y-43236249D01*
X50087123Y-43265184D01*
X49804636Y-43350875D01*
X49544294Y-43490031D01*
X49316103Y-43677303D01*
X49128831Y-43905495D01*
X49110900Y-43939041D01*
X49092969Y-43905494D01*
X48905697Y-43677303D01*
X48677505Y-43490031D01*
X48417163Y-43350875D01*
X48134676Y-43265184D01*
X47840900Y-43236249D01*
X47547123Y-43265184D01*
X47264636Y-43350875D01*
X47004294Y-43490031D01*
X46776103Y-43677303D01*
X46588831Y-43905495D01*
X46567476Y-43945447D01*
X46419386Y-43742771D01*
X46202935Y-43543767D01*
X45951819Y-43390814D01*
X45675689Y-43289791D01*
X45659926Y-43287142D01*
X45427900Y-43408283D01*
X45427900Y-44767500D01*
X45447900Y-44767500D01*
X45447900Y-45021500D01*
X45427900Y-45021500D01*
X45427900Y-46380717D01*
X45659926Y-46501858D01*
X45675689Y-46499209D01*
X45951819Y-46398186D01*
X46202935Y-46245233D01*
X46419386Y-46046229D01*
X46567476Y-45843553D01*
X46588831Y-45883506D01*
X46776103Y-46111697D01*
X47004295Y-46298969D01*
X47264637Y-46438125D01*
X47547124Y-46523816D01*
X47840900Y-46552751D01*
X48134677Y-46523816D01*
X48417164Y-46438125D01*
X48677506Y-46298969D01*
X48905697Y-46111697D01*
X49092969Y-45883506D01*
X49110900Y-45849959D01*
X49128831Y-45883506D01*
X49316103Y-46111697D01*
X49544295Y-46298969D01*
X49545901Y-46299827D01*
X49545901Y-46885850D01*
X49506514Y-46846463D01*
X49336996Y-46733195D01*
X49148638Y-46655174D01*
X48948679Y-46615400D01*
X48744801Y-46615400D01*
X48544842Y-46655174D01*
X48356484Y-46733195D01*
X48186966Y-46846463D01*
X48168029Y-46865400D01*
X42522177Y-46865400D01*
X41991861Y-46335084D01*
X42184637Y-46438125D01*
X42467124Y-46523816D01*
X42760900Y-46552751D01*
X43054677Y-46523816D01*
X43337164Y-46438125D01*
X43597506Y-46298969D01*
X43825697Y-46111697D01*
X44012969Y-45883506D01*
X44034324Y-45843553D01*
X44182414Y-46046229D01*
X44398865Y-46245233D01*
X44649981Y-46398186D01*
X44926111Y-46499209D01*
X44941874Y-46501858D01*
X45173900Y-46380717D01*
X45173900Y-45021500D01*
X45153900Y-45021500D01*
X45153900Y-44767500D01*
X45173900Y-44767500D01*
X45173900Y-43408283D01*
X45005681Y-43320456D01*
X48388258Y-39937880D01*
X48956603Y-39937880D01*
X51172058Y-42153336D01*
X51196636Y-42183284D01*
X51226584Y-42207862D01*
X51226587Y-42207865D01*
X51247494Y-42225023D01*
X51316167Y-42281382D01*
X51452540Y-42354274D01*
X51600513Y-42399161D01*
X51715839Y-42410520D01*
X51715846Y-42410520D01*
X51754399Y-42414317D01*
X51792952Y-42410520D01*
X59385163Y-42410520D01*
X60307218Y-43332575D01*
X60307218Y-43397168D01*
X60148470Y-43238420D01*
X59570620Y-43235348D01*
X59446138Y-43247608D01*
X59326440Y-43283918D01*
X59216126Y-43342883D01*
X59119435Y-43422235D01*
X59040083Y-43518926D01*
X58981118Y-43629240D01*
X58944808Y-43748938D01*
X58932548Y-43873420D01*
X58935620Y-44603670D01*
X59094370Y-44762420D01*
X60307220Y-44762420D01*
X60307220Y-44742420D01*
X60561220Y-44742420D01*
X60561220Y-44762420D01*
X60581220Y-44762420D01*
X60581220Y-45016420D01*
X60561220Y-45016420D01*
X60561220Y-46381670D01*
X60719970Y-46540420D01*
X61297820Y-46543492D01*
X61422302Y-46531232D01*
X61542000Y-46494922D01*
X61652314Y-46435957D01*
X61749005Y-46356605D01*
X61828357Y-46259914D01*
X61887322Y-46149600D01*
X61902806Y-46098555D01*
X61909423Y-46106617D01*
X62137615Y-46293889D01*
X62397957Y-46433045D01*
X62680444Y-46518736D01*
X62974220Y-46547671D01*
X63267997Y-46518736D01*
X63550484Y-46433045D01*
X63810826Y-46293889D01*
X64039017Y-46106617D01*
X64226289Y-45878426D01*
X64244220Y-45844879D01*
X64262151Y-45878426D01*
X64449423Y-46106617D01*
X64677615Y-46293889D01*
X64937957Y-46433045D01*
X65220444Y-46518736D01*
X65514220Y-46547671D01*
X65807997Y-46518736D01*
X66090484Y-46433045D01*
X66350826Y-46293889D01*
X66579017Y-46106617D01*
X66766289Y-45878426D01*
X66905445Y-45618083D01*
X66991136Y-45335596D01*
X67012820Y-45115438D01*
X67012820Y-44663401D01*
X66991136Y-44443243D01*
X66905445Y-44160756D01*
X66766289Y-43900414D01*
X66579017Y-43672223D01*
X66350825Y-43484951D01*
X66090483Y-43345795D01*
X65807996Y-43260104D01*
X65514220Y-43231169D01*
X65220443Y-43260104D01*
X64937956Y-43345795D01*
X64677614Y-43484951D01*
X64449423Y-43672223D01*
X64262151Y-43900415D01*
X64244220Y-43933961D01*
X64226289Y-43900414D01*
X64039017Y-43672223D01*
X63810825Y-43484951D01*
X63550483Y-43345795D01*
X63267996Y-43260104D01*
X62974220Y-43231169D01*
X62680443Y-43260104D01*
X62507517Y-43312560D01*
X60790137Y-41595180D01*
X65907467Y-41595180D01*
X65946020Y-41598977D01*
X65984573Y-41595180D01*
X65984581Y-41595180D01*
X66099907Y-41583821D01*
X66247880Y-41538934D01*
X66384253Y-41466042D01*
X66503784Y-41367944D01*
X66528367Y-41337990D01*
X67363200Y-40503157D01*
X67363201Y-46786761D01*
X66248785Y-47901178D01*
X66218837Y-47925756D01*
X66194259Y-47955704D01*
X66194255Y-47955708D01*
X66172071Y-47982740D01*
X66120739Y-48045287D01*
X66081777Y-48118180D01*
X66047846Y-48181661D01*
X66002959Y-48329634D01*
X65987803Y-48483520D01*
X65991601Y-48522083D01*
X65991600Y-51706249D01*
X65972663Y-51725186D01*
X65859395Y-51894704D01*
X65781374Y-52083062D01*
X65741600Y-52283021D01*
X65741600Y-52486899D01*
X65781374Y-52686858D01*
X65859395Y-52875216D01*
X65972663Y-53044734D01*
X66116826Y-53188897D01*
X66286344Y-53302165D01*
X66474702Y-53380186D01*
X66674661Y-53419960D01*
X66878539Y-53419960D01*
X67078498Y-53380186D01*
X67266856Y-53302165D01*
X67436374Y-53188897D01*
X67580537Y-53044734D01*
X67693805Y-52875216D01*
X67771826Y-52686858D01*
X67811600Y-52486899D01*
X67811600Y-52283021D01*
X67771826Y-52083062D01*
X67693805Y-51894704D01*
X67580537Y-51725186D01*
X67561600Y-51706249D01*
X67561600Y-48808677D01*
X68676016Y-47694262D01*
X68705964Y-47669684D01*
X68804062Y-47550153D01*
X68876954Y-47413780D01*
X68921841Y-47265807D01*
X68933200Y-47150481D01*
X68933200Y-47150474D01*
X68936997Y-47111921D01*
X68933200Y-47073368D01*
X68933200Y-38877536D01*
X69512710Y-39457046D01*
X69477984Y-39571523D01*
X69449049Y-39865300D01*
X69477984Y-40159077D01*
X69563675Y-40441564D01*
X69702831Y-40701906D01*
X69890103Y-40930097D01*
X70118294Y-41117369D01*
X70151840Y-41135300D01*
X70118294Y-41153231D01*
X69890103Y-41340503D01*
X69702831Y-41568694D01*
X69563675Y-41829036D01*
X69477984Y-42111523D01*
X69449049Y-42405300D01*
X69477984Y-42699077D01*
X69563675Y-42981564D01*
X69702831Y-43241906D01*
X69890103Y-43470097D01*
X70118294Y-43657369D01*
X70151840Y-43675300D01*
X70118294Y-43693231D01*
X69890103Y-43880503D01*
X69702831Y-44108694D01*
X69563675Y-44369036D01*
X69477984Y-44651523D01*
X69449049Y-44945300D01*
X69477984Y-45239077D01*
X69563675Y-45521564D01*
X69702831Y-45781906D01*
X69890103Y-46010097D01*
X70118294Y-46197369D01*
X70378636Y-46336525D01*
X70661123Y-46422216D01*
X70881281Y-46443900D01*
X71333319Y-46443900D01*
X71553477Y-46422216D01*
X71835964Y-46336525D01*
X72096306Y-46197369D01*
X72324497Y-46010097D01*
X72511769Y-45781906D01*
X72650925Y-45521564D01*
X72736616Y-45239077D01*
X72765551Y-44945300D01*
X72736616Y-44651523D01*
X72650925Y-44369036D01*
X72511769Y-44108694D01*
X72324497Y-43880503D01*
X72096306Y-43693231D01*
X72062760Y-43675300D01*
X72096306Y-43657369D01*
X72324497Y-43470097D01*
X72511769Y-43241906D01*
X72650925Y-42981564D01*
X72699250Y-42822257D01*
X73581260Y-41940248D01*
X73581260Y-84518840D01*
X16033974Y-84484153D01*
X16010765Y-19801244D01*
X16123225Y-19801244D01*
X16181124Y-19992126D01*
X16322818Y-20283115D01*
X16518558Y-20540869D01*
X16760823Y-20755484D01*
X17040302Y-20918711D01*
X17346255Y-21024278D01*
X17602200Y-20905662D01*
X17602200Y-19545300D01*
X17856200Y-19545300D01*
X17856200Y-20905662D01*
X18112145Y-21024278D01*
X18418098Y-20918711D01*
X18697577Y-20755484D01*
X18939842Y-20540869D01*
X19135582Y-20283115D01*
X19277276Y-19992126D01*
X19335175Y-19801244D01*
X19216036Y-19545300D01*
X17856200Y-19545300D01*
X17602200Y-19545300D01*
X16242364Y-19545300D01*
X16123225Y-19801244D01*
X16010765Y-19801244D01*
X16009065Y-15063910D01*
X20726890Y-15063707D01*
X20701478Y-15074233D01*
X20433773Y-15253108D01*
X20206108Y-15480773D01*
X20027233Y-15748478D01*
X19905114Y-16043300D01*
X19383272Y-16043300D01*
X19383272Y-15862300D01*
X19371012Y-15737818D01*
X19334702Y-15618120D01*
X19275737Y-15507806D01*
X19196385Y-15411115D01*
X19099694Y-15331763D01*
X18989380Y-15272798D01*
X18869682Y-15236488D01*
X18745200Y-15224228D01*
X16713200Y-15224228D01*
X16588718Y-15236488D01*
X16469020Y-15272798D01*
X16358706Y-15331763D01*
X16262015Y-15411115D01*
X16182663Y-15507806D01*
X16123698Y-15618120D01*
X16087388Y-15737818D01*
X16075128Y-15862300D01*
X16075128Y-17894300D01*
X16087388Y-18018782D01*
X16123698Y-18138480D01*
X16182663Y-18248794D01*
X16262015Y-18345485D01*
X16358706Y-18424837D01*
X16402669Y-18448336D01*
X16322818Y-18553485D01*
X16181124Y-18844474D01*
X16123225Y-19035356D01*
X16242364Y-19291300D01*
X17602200Y-19291300D01*
X17602200Y-19271300D01*
X17856200Y-19271300D01*
X17856200Y-19291300D01*
X19216036Y-19291300D01*
X19335175Y-19035356D01*
X19277276Y-18844474D01*
X19135582Y-18553485D01*
X19055731Y-18448336D01*
X19099694Y-18424837D01*
X19196385Y-18345485D01*
X19275737Y-18248794D01*
X19334702Y-18138480D01*
X19371012Y-18018782D01*
X19383272Y-17894300D01*
X19383272Y-17713300D01*
X20354781Y-17713300D01*
X20433773Y-17792292D01*
X20701478Y-17971167D01*
X20998937Y-18094378D01*
X21007460Y-18096073D01*
X20956078Y-18147455D01*
X20924209Y-18173609D01*
X20841913Y-18273888D01*
X20819864Y-18300755D01*
X20742328Y-18445814D01*
X20694582Y-18603212D01*
X20678460Y-18766900D01*
X20682500Y-18807919D01*
X20682500Y-19056329D01*
X20564538Y-19153138D01*
X20454095Y-19287713D01*
X20372028Y-19441249D01*
X20321492Y-19607845D01*
X20304428Y-19781099D01*
X20304428Y-20681101D01*
X20321492Y-20854355D01*
X20372028Y-21020951D01*
X20454095Y-21174487D01*
X20564538Y-21309062D01*
X20699113Y-21419505D01*
X20852649Y-21501572D01*
X21019245Y-21552108D01*
X21192499Y-21569172D01*
X21842501Y-21569172D01*
X22015755Y-21552108D01*
X22182351Y-21501572D01*
X22335887Y-21419505D01*
X22470462Y-21309062D01*
X22542500Y-21221284D01*
X22614538Y-21309062D01*
X22732500Y-21405871D01*
X22732501Y-25509690D01*
X22630548Y-25577813D01*
X22402813Y-25805548D01*
X22223882Y-26073337D01*
X22100632Y-26370888D01*
X22037800Y-26686767D01*
X22037800Y-27008833D01*
X22100632Y-27324712D01*
X22223882Y-27622263D01*
X22402813Y-27890052D01*
X22630548Y-28117787D01*
X22898337Y-28296718D01*
X23195888Y-28419968D01*
X23511767Y-28482800D01*
X23833833Y-28482800D01*
X24149712Y-28419968D01*
X24447263Y-28296718D01*
X24715052Y-28117787D01*
X24942787Y-27890052D01*
X25121718Y-27622263D01*
X25244968Y-27324712D01*
X25307800Y-27008833D01*
X25307800Y-26686767D01*
X25244968Y-26370888D01*
X25121718Y-26073337D01*
X24942787Y-25805548D01*
X24715052Y-25577813D01*
X24447263Y-25398882D01*
X24402500Y-25380341D01*
X24402500Y-21405871D01*
X24520462Y-21309062D01*
X24630905Y-21174487D01*
X24712972Y-21020951D01*
X24763508Y-20854355D01*
X24780572Y-20681101D01*
X24780572Y-19781099D01*
X24763508Y-19607845D01*
X24712972Y-19441249D01*
X24630905Y-19287713D01*
X24520462Y-19153138D01*
X24385887Y-19042695D01*
X24232351Y-18960628D01*
X24065755Y-18910092D01*
X23892501Y-18893028D01*
X23242499Y-18893028D01*
X23069245Y-18910092D01*
X22902649Y-18960628D01*
X22749113Y-19042695D01*
X22614538Y-19153138D01*
X22542500Y-19240916D01*
X22470462Y-19153138D01*
X22383499Y-19081769D01*
X22708077Y-18757191D01*
X23845191Y-18757191D01*
X23886209Y-18761231D01*
X23927227Y-18757191D01*
X23927228Y-18757191D01*
X24049898Y-18745109D01*
X24207296Y-18697363D01*
X24352355Y-18619827D01*
X24479500Y-18515482D01*
X24505655Y-18483612D01*
X24829005Y-18160262D01*
X26285190Y-18160262D01*
X26409672Y-18148002D01*
X26529370Y-18111692D01*
X26639684Y-18052727D01*
X26736375Y-17973375D01*
X26815727Y-17876684D01*
X26874692Y-17766370D01*
X26911002Y-17646672D01*
X26923262Y-17522190D01*
X26923262Y-15523210D01*
X26911002Y-15398728D01*
X26874692Y-15279030D01*
X26815727Y-15168716D01*
X26736375Y-15072025D01*
X26725925Y-15063449D01*
X33581678Y-15063154D01*
X33430404Y-15214428D01*
G37*
G04 #@! TD.AperFunction*
D28*
X29547388Y-17976982D02*
X29583698Y-18096680D01*
X29642663Y-18206994D01*
X29722015Y-18303685D01*
X29818706Y-18383037D01*
X29929020Y-18442002D01*
X30048718Y-18478312D01*
X30173200Y-18490572D01*
X31673200Y-18490572D01*
X31797682Y-18478312D01*
X31917380Y-18442002D01*
X32027694Y-18383037D01*
X32073200Y-18345691D01*
X32118706Y-18383037D01*
X32229020Y-18442002D01*
X32348718Y-18478312D01*
X32388200Y-18482201D01*
X32388201Y-21514428D01*
X31323200Y-21514428D01*
X31198718Y-21526688D01*
X31079020Y-21562998D01*
X30968706Y-21621963D01*
X30872015Y-21701315D01*
X30792663Y-21798006D01*
X30733698Y-21908320D01*
X30697388Y-22028018D01*
X30685128Y-22152500D01*
X30685128Y-24152500D01*
X30697388Y-24276982D01*
X30733698Y-24396680D01*
X30792663Y-24506994D01*
X30872015Y-24603685D01*
X30968706Y-24683037D01*
X31079020Y-24742002D01*
X31198718Y-24778312D01*
X31323200Y-24790572D01*
X32443261Y-24790572D01*
X32448028Y-24806286D01*
X32525564Y-24951345D01*
X32525565Y-24951346D01*
X32629910Y-25078491D01*
X32661774Y-25104641D01*
X34669628Y-27112496D01*
X34669628Y-27882201D01*
X34686692Y-28055455D01*
X34737228Y-28222051D01*
X34819295Y-28375587D01*
X34929738Y-28510162D01*
X35064313Y-28620605D01*
X35217849Y-28702672D01*
X35384445Y-28753208D01*
X35557699Y-28770272D01*
X36857701Y-28770272D01*
X37030955Y-28753208D01*
X37197551Y-28702672D01*
X37351087Y-28620605D01*
X37458388Y-28532545D01*
X41730758Y-32804916D01*
X41737280Y-32812863D01*
X41737280Y-33892100D01*
X35387772Y-33892100D01*
X35387772Y-33220899D01*
X35370708Y-33047645D01*
X35320172Y-32881049D01*
X35238105Y-32727513D01*
X35127662Y-32592938D01*
X34993087Y-32482495D01*
X34839551Y-32400428D01*
X34672955Y-32349892D01*
X34499701Y-32332828D01*
X33674699Y-32332828D01*
X33501445Y-32349892D01*
X33334849Y-32400428D01*
X33181313Y-32482495D01*
X33046738Y-32592938D01*
X32936295Y-32727513D01*
X32854228Y-32881049D01*
X32803692Y-33047645D01*
X32786628Y-33220899D01*
X32786628Y-34061315D01*
X32261848Y-34586095D01*
X32259700Y-34156650D01*
X32100950Y-33997900D01*
X31089200Y-33997900D01*
X31089200Y-35247150D01*
X31247950Y-35405900D01*
X31624700Y-35408972D01*
X31749182Y-35396712D01*
X31868880Y-35360402D01*
X31955601Y-35314048D01*
X31955601Y-35887128D01*
X31724600Y-35887128D01*
X31600118Y-35899388D01*
X31480420Y-35935698D01*
X31370106Y-35994663D01*
X31273415Y-36074015D01*
X31194063Y-36170706D01*
X31135098Y-36281020D01*
X31098788Y-36400718D01*
X31086528Y-36525200D01*
X31086528Y-36603800D01*
X30560352Y-36603800D01*
X30498485Y-36528415D01*
X30401794Y-36449063D01*
X30291480Y-36390098D01*
X30171782Y-36353788D01*
X30047300Y-36341528D01*
X28347300Y-36341528D01*
X28222818Y-36353788D01*
X28103120Y-36390098D01*
X27992806Y-36449063D01*
X27896115Y-36528415D01*
X27816763Y-36625106D01*
X27757798Y-36735420D01*
X27721488Y-36855118D01*
X27709228Y-36979600D01*
X27709228Y-38979600D01*
X27721488Y-39104082D01*
X27757798Y-39223780D01*
X27816763Y-39334094D01*
X27896115Y-39430785D01*
X27992806Y-39510137D01*
X28103120Y-39569102D01*
X28222818Y-39605412D01*
X28347300Y-39617672D01*
X30047300Y-39617672D01*
X30171782Y-39605412D01*
X30291480Y-39569102D01*
X30401794Y-39510137D01*
X30498485Y-39430785D01*
X30577837Y-39334094D01*
X30636802Y-39223780D01*
X30673112Y-39104082D01*
X30685372Y-38979600D01*
X30685372Y-38173800D01*
X31086528Y-38173800D01*
X31086528Y-38252400D01*
X31098788Y-38376882D01*
X31135098Y-38496580D01*
X31194063Y-38606894D01*
X31273415Y-38703585D01*
X31370106Y-38782937D01*
X31480420Y-38841902D01*
X31548339Y-38862505D01*
X31473403Y-38924003D01*
X31286131Y-39152194D01*
X31146975Y-39412536D01*
X31061284Y-39695023D01*
X31032349Y-39988800D01*
X31061284Y-40282577D01*
X31146975Y-40565064D01*
X31286131Y-40825406D01*
X31473403Y-41053597D01*
X31701594Y-41240869D01*
X31763068Y-41273728D01*
X31543403Y-41454003D01*
X31356131Y-41682194D01*
X31328547Y-41733800D01*
X30685372Y-41733800D01*
X30685372Y-40979600D01*
X30673112Y-40855118D01*
X30636802Y-40735420D01*
X30577837Y-40625106D01*
X30498485Y-40528415D01*
X30401794Y-40449063D01*
X30291480Y-40390098D01*
X30171782Y-40353788D01*
X30047300Y-40341528D01*
X28347300Y-40341528D01*
X28222818Y-40353788D01*
X28103120Y-40390098D01*
X27992806Y-40449063D01*
X27896115Y-40528415D01*
X27816763Y-40625106D01*
X27757798Y-40735420D01*
X27721488Y-40855118D01*
X27709228Y-40979600D01*
X27709228Y-42979600D01*
X27721488Y-43104082D01*
X27757798Y-43223780D01*
X27816763Y-43334094D01*
X27896115Y-43430785D01*
X27992806Y-43510137D01*
X28103120Y-43569102D01*
X28222818Y-43605412D01*
X28347300Y-43617672D01*
X30047300Y-43617672D01*
X30171782Y-43605412D01*
X30291480Y-43569102D01*
X30401794Y-43510137D01*
X30498485Y-43430785D01*
X30577837Y-43334094D01*
X30594030Y-43303800D01*
X31328547Y-43303800D01*
X31356131Y-43355406D01*
X31543403Y-43583597D01*
X31771594Y-43770869D01*
X31975601Y-43879913D01*
X31975601Y-44539789D01*
X31919680Y-44509898D01*
X31799982Y-44473588D01*
X31675500Y-44461328D01*
X31298750Y-44464400D01*
X31140000Y-44623150D01*
X31140000Y-45872400D01*
X32151750Y-45872400D01*
X32310500Y-45713650D01*
X32312648Y-45284205D01*
X32837428Y-45808985D01*
X32837428Y-46649401D01*
X32854492Y-46822655D01*
X32905028Y-46989251D01*
X32987095Y-47142787D01*
X33097538Y-47277362D01*
X33232113Y-47387805D01*
X33385649Y-47469872D01*
X33552245Y-47520408D01*
X33725499Y-47537472D01*
X34550501Y-47537472D01*
X34723755Y-47520408D01*
X34890351Y-47469872D01*
X35043887Y-47387805D01*
X35178462Y-47277362D01*
X35288905Y-47142787D01*
X35370972Y-46989251D01*
X35421508Y-46822655D01*
X35438572Y-46649401D01*
X35438572Y-45349399D01*
X35421508Y-45176145D01*
X35370972Y-45009549D01*
X35288905Y-44856013D01*
X35178462Y-44721438D01*
X35043887Y-44610995D01*
X34890351Y-44528928D01*
X34723755Y-44478392D01*
X34550501Y-44461328D01*
X33725499Y-44461328D01*
X33711467Y-44462710D01*
X33545600Y-44296843D01*
X33545600Y-43879913D01*
X33749606Y-43770869D01*
X33977797Y-43583597D01*
X34165069Y-43355406D01*
X34304225Y-43095064D01*
X34389916Y-42812577D01*
X34418851Y-42518800D01*
X34389916Y-42225023D01*
X34337460Y-42052097D01*
X37110973Y-39278584D01*
X37077700Y-39445861D01*
X37077700Y-39649739D01*
X37117474Y-39849698D01*
X37195495Y-40038056D01*
X37308763Y-40207574D01*
X37452926Y-40351737D01*
X37622444Y-40465005D01*
X37810802Y-40543026D01*
X38005641Y-40581782D01*
X37011220Y-41576203D01*
X36981266Y-41600786D01*
X36883168Y-41720318D01*
X36810276Y-41856691D01*
X36765389Y-42004664D01*
X36754030Y-42119990D01*
X36754030Y-42119997D01*
X36750233Y-42158550D01*
X36754030Y-42197103D01*
X36754031Y-52268027D01*
X36750233Y-52306590D01*
X36765389Y-52460476D01*
X36810276Y-52608449D01*
X36810277Y-52608450D01*
X36883169Y-52744823D01*
X36923720Y-52794234D01*
X36956685Y-52834402D01*
X36956689Y-52834406D01*
X36981267Y-52864354D01*
X37011215Y-52888932D01*
X40177033Y-56054750D01*
X40201616Y-56084704D01*
X40321147Y-56182802D01*
X40457520Y-56255694D01*
X40605493Y-56300582D01*
X40641852Y-56304163D01*
X40668566Y-56330877D01*
X40838084Y-56444145D01*
X41026442Y-56522166D01*
X41226401Y-56561940D01*
X41430279Y-56561940D01*
X41630238Y-56522166D01*
X41818596Y-56444145D01*
X41988114Y-56330877D01*
X42132277Y-56186714D01*
X42245545Y-56017196D01*
X42323566Y-55828838D01*
X42363340Y-55628879D01*
X42363340Y-55425001D01*
X42323566Y-55225042D01*
X42245545Y-55036684D01*
X42132277Y-54867166D01*
X41988114Y-54723003D01*
X41818596Y-54609735D01*
X41630238Y-54531714D01*
X41430279Y-54491940D01*
X41226401Y-54491940D01*
X41026442Y-54531714D01*
X40918869Y-54576272D01*
X38324030Y-51981433D01*
X38324030Y-49076027D01*
X42610900Y-53362898D01*
X42610901Y-77130147D01*
X42559295Y-77157731D01*
X42331103Y-77345003D01*
X42143831Y-77573194D01*
X42125900Y-77606741D01*
X42107969Y-77573194D01*
X41920697Y-77345003D01*
X41692506Y-77157731D01*
X41432164Y-77018575D01*
X41149677Y-76932884D01*
X40855900Y-76903949D01*
X40562124Y-76932884D01*
X40279637Y-77018575D01*
X40019295Y-77157731D01*
X39791103Y-77345003D01*
X39603831Y-77573194D01*
X39582476Y-77613147D01*
X39434386Y-77410471D01*
X39217935Y-77211467D01*
X38966819Y-77058514D01*
X38690689Y-76957491D01*
X38674926Y-76954842D01*
X38442900Y-77075983D01*
X38442900Y-78435200D01*
X38462900Y-78435200D01*
X38462900Y-78689200D01*
X38442900Y-78689200D01*
X38442900Y-78709200D01*
X38188900Y-78709200D01*
X38188900Y-78689200D01*
X38168900Y-78689200D01*
X38168900Y-78435200D01*
X38188900Y-78435200D01*
X38188900Y-77075983D01*
X37956874Y-76954842D01*
X37941111Y-76957491D01*
X37664981Y-77058514D01*
X37413865Y-77211467D01*
X37197414Y-77410471D01*
X37049324Y-77613147D01*
X37027969Y-77573194D01*
X36840697Y-77345003D01*
X36612506Y-77157731D01*
X36352164Y-77018575D01*
X36069677Y-76932884D01*
X35775900Y-76903949D01*
X35482124Y-76932884D01*
X35363452Y-76968883D01*
X20646600Y-62252033D01*
X20646600Y-46899400D01*
X29712428Y-46899400D01*
X29724688Y-47023882D01*
X29760998Y-47143580D01*
X29819963Y-47253894D01*
X29899315Y-47350585D01*
X29996006Y-47429937D01*
X30106320Y-47488902D01*
X30226018Y-47525212D01*
X30350500Y-47537472D01*
X30727250Y-47534400D01*
X30886000Y-47375650D01*
X30886000Y-46126400D01*
X31140000Y-46126400D01*
X31140000Y-47375650D01*
X31298750Y-47534400D01*
X31675500Y-47537472D01*
X31799982Y-47525212D01*
X31919680Y-47488902D01*
X32029994Y-47429937D01*
X32126685Y-47350585D01*
X32206037Y-47253894D01*
X32265002Y-47143580D01*
X32301312Y-47023882D01*
X32313572Y-46899400D01*
X32310500Y-46285150D01*
X32151750Y-46126400D01*
X31140000Y-46126400D01*
X30886000Y-46126400D01*
X29874250Y-46126400D01*
X29715500Y-46285150D01*
X29712428Y-46899400D01*
X20646600Y-46899400D01*
X20646600Y-45099400D01*
X29712428Y-45099400D01*
X29715500Y-45713650D01*
X29874250Y-45872400D01*
X30886000Y-45872400D01*
X30886000Y-44623150D01*
X30727250Y-44464400D01*
X30350500Y-44461328D01*
X30226018Y-44473588D01*
X30106320Y-44509898D01*
X29996006Y-44568863D01*
X29899315Y-44648215D01*
X29819963Y-44744906D01*
X29760998Y-44855220D01*
X29724688Y-44974918D01*
X29712428Y-45099400D01*
X20646600Y-45099400D01*
X20646600Y-35754395D01*
X20717487Y-35716505D01*
X20852062Y-35606062D01*
X20962505Y-35471487D01*
X21044572Y-35317951D01*
X21071827Y-35228100D01*
X21636028Y-35228100D01*
X21648288Y-35352582D01*
X21684598Y-35472280D01*
X21743563Y-35582594D01*
X21822915Y-35679285D01*
X21919606Y-35758637D01*
X22029920Y-35817602D01*
X22149618Y-35853912D01*
X22274100Y-35866172D01*
X22650850Y-35863100D01*
X22809600Y-35704350D01*
X22809600Y-34455100D01*
X23063600Y-34455100D01*
X23063600Y-35704350D01*
X23222350Y-35863100D01*
X23599100Y-35866172D01*
X23723582Y-35853912D01*
X23843280Y-35817602D01*
X23953594Y-35758637D01*
X24050285Y-35679285D01*
X24129637Y-35582594D01*
X24188602Y-35472280D01*
X24224912Y-35352582D01*
X24237172Y-35228100D01*
X24234886Y-34770900D01*
X29661628Y-34770900D01*
X29673888Y-34895382D01*
X29710198Y-35015080D01*
X29769163Y-35125394D01*
X29848515Y-35222085D01*
X29945206Y-35301437D01*
X30055520Y-35360402D01*
X30175218Y-35396712D01*
X30299700Y-35408972D01*
X30676450Y-35405900D01*
X30835200Y-35247150D01*
X30835200Y-33997900D01*
X29823450Y-33997900D01*
X29664700Y-34156650D01*
X29661628Y-34770900D01*
X24234886Y-34770900D01*
X24234100Y-34613850D01*
X24075350Y-34455100D01*
X23063600Y-34455100D01*
X22809600Y-34455100D01*
X21797850Y-34455100D01*
X21639100Y-34613850D01*
X21636028Y-35228100D01*
X21071827Y-35228100D01*
X21095108Y-35151355D01*
X21112172Y-34978101D01*
X21112172Y-34208396D01*
X21637304Y-33683264D01*
X21639100Y-34042350D01*
X21797850Y-34201100D01*
X22809600Y-34201100D01*
X22809600Y-32951850D01*
X23063600Y-32951850D01*
X23063600Y-34201100D01*
X24075350Y-34201100D01*
X24234100Y-34042350D01*
X24237172Y-33428100D01*
X24224912Y-33303618D01*
X24188602Y-33183920D01*
X24129637Y-33073606D01*
X24050285Y-32976915D01*
X24042956Y-32970900D01*
X29661628Y-32970900D01*
X29664700Y-33585150D01*
X29823450Y-33743900D01*
X30835200Y-33743900D01*
X30835200Y-32494650D01*
X31089200Y-32494650D01*
X31089200Y-33743900D01*
X32100950Y-33743900D01*
X32259700Y-33585150D01*
X32262772Y-32970900D01*
X32250512Y-32846418D01*
X32214202Y-32726720D01*
X32155237Y-32616406D01*
X32075885Y-32519715D01*
X31979194Y-32440363D01*
X31868880Y-32381398D01*
X31749182Y-32345088D01*
X31624700Y-32332828D01*
X31247950Y-32335900D01*
X31089200Y-32494650D01*
X30835200Y-32494650D01*
X30676450Y-32335900D01*
X30299700Y-32332828D01*
X30175218Y-32345088D01*
X30055520Y-32381398D01*
X29945206Y-32440363D01*
X29848515Y-32519715D01*
X29769163Y-32616406D01*
X29710198Y-32726720D01*
X29673888Y-32846418D01*
X29661628Y-32970900D01*
X24042956Y-32970900D01*
X23953594Y-32897563D01*
X23843280Y-32838598D01*
X23723582Y-32802288D01*
X23599100Y-32790028D01*
X23222350Y-32793100D01*
X23063600Y-32951850D01*
X22809600Y-32951850D01*
X22650850Y-32793100D01*
X22528466Y-32792102D01*
X22926069Y-32394500D01*
X25638382Y-32394500D01*
X25679400Y-32398540D01*
X25720418Y-32394500D01*
X25720419Y-32394500D01*
X25843089Y-32382418D01*
X26000487Y-32334672D01*
X26145546Y-32257136D01*
X26272691Y-32152791D01*
X26298846Y-32120921D01*
X27238767Y-31181000D01*
X29500728Y-31181000D01*
X29512988Y-31305482D01*
X29549298Y-31425180D01*
X29608263Y-31535494D01*
X29687615Y-31632185D01*
X29784306Y-31711537D01*
X29894620Y-31770502D01*
X30014318Y-31806812D01*
X30138800Y-31819072D01*
X30753050Y-31816000D01*
X30911800Y-31657250D01*
X30911800Y-30645500D01*
X31165800Y-30645500D01*
X31165800Y-31657250D01*
X31324550Y-31816000D01*
X31938800Y-31819072D01*
X32063282Y-31806812D01*
X32182980Y-31770502D01*
X32293294Y-31711537D01*
X32389985Y-31632185D01*
X32469337Y-31535494D01*
X32528302Y-31425180D01*
X32564612Y-31305482D01*
X32569367Y-31257200D01*
X34669628Y-31257200D01*
X34681888Y-31381682D01*
X34718198Y-31501380D01*
X34777163Y-31611694D01*
X34856515Y-31708385D01*
X34953206Y-31787737D01*
X35063520Y-31846702D01*
X35183218Y-31883012D01*
X35307700Y-31895272D01*
X35921950Y-31892200D01*
X36080700Y-31733450D01*
X36080700Y-30721700D01*
X36334700Y-30721700D01*
X36334700Y-31733450D01*
X36493450Y-31892200D01*
X37107700Y-31895272D01*
X37232182Y-31883012D01*
X37351880Y-31846702D01*
X37462194Y-31787737D01*
X37558885Y-31708385D01*
X37638237Y-31611694D01*
X37697202Y-31501380D01*
X37733512Y-31381682D01*
X37745772Y-31257200D01*
X37742700Y-30880450D01*
X37583950Y-30721700D01*
X36334700Y-30721700D01*
X36080700Y-30721700D01*
X34831450Y-30721700D01*
X34672700Y-30880450D01*
X34669628Y-31257200D01*
X32569367Y-31257200D01*
X32576872Y-31181000D01*
X32573800Y-30804250D01*
X32415050Y-30645500D01*
X31165800Y-30645500D01*
X30911800Y-30645500D01*
X29662550Y-30645500D01*
X29503800Y-30804250D01*
X29500728Y-31181000D01*
X27238767Y-31181000D01*
X28563768Y-29856000D01*
X29500728Y-29856000D01*
X29503800Y-30232750D01*
X29662550Y-30391500D01*
X30911800Y-30391500D01*
X30911800Y-29379750D01*
X31165800Y-29379750D01*
X31165800Y-30391500D01*
X32415050Y-30391500D01*
X32573800Y-30232750D01*
X32576250Y-29932200D01*
X34669628Y-29932200D01*
X34672700Y-30308950D01*
X34831450Y-30467700D01*
X36080700Y-30467700D01*
X36080700Y-29455950D01*
X36334700Y-29455950D01*
X36334700Y-30467700D01*
X37583950Y-30467700D01*
X37742700Y-30308950D01*
X37745772Y-29932200D01*
X37733512Y-29807718D01*
X37697202Y-29688020D01*
X37638237Y-29577706D01*
X37558885Y-29481015D01*
X37462194Y-29401663D01*
X37351880Y-29342698D01*
X37232182Y-29306388D01*
X37107700Y-29294128D01*
X36493450Y-29297200D01*
X36334700Y-29455950D01*
X36080700Y-29455950D01*
X35921950Y-29297200D01*
X35307700Y-29294128D01*
X35183218Y-29306388D01*
X35063520Y-29342698D01*
X34953206Y-29401663D01*
X34856515Y-29481015D01*
X34777163Y-29577706D01*
X34718198Y-29688020D01*
X34681888Y-29807718D01*
X34669628Y-29932200D01*
X32576250Y-29932200D01*
X32576872Y-29856000D01*
X32564612Y-29731518D01*
X32528302Y-29611820D01*
X32469337Y-29501506D01*
X32389985Y-29404815D01*
X32293294Y-29325463D01*
X32182980Y-29266498D01*
X32063282Y-29230188D01*
X31938800Y-29217928D01*
X31324550Y-29221000D01*
X31165800Y-29379750D01*
X30911800Y-29379750D01*
X30753050Y-29221000D01*
X30138800Y-29217928D01*
X30014318Y-29230188D01*
X29894620Y-29266498D01*
X29784306Y-29325463D01*
X29687615Y-29404815D01*
X29608263Y-29501506D01*
X29549298Y-29611820D01*
X29512988Y-29731518D01*
X29500728Y-29856000D01*
X28563768Y-29856000D01*
X29884401Y-28535368D01*
X29895413Y-28544405D01*
X30048949Y-28626472D01*
X30215545Y-28677008D01*
X30388799Y-28694072D01*
X31688801Y-28694072D01*
X31862055Y-28677008D01*
X32028651Y-28626472D01*
X32182187Y-28544405D01*
X32316762Y-28433962D01*
X32427205Y-28299387D01*
X32509272Y-28145851D01*
X32559808Y-27979255D01*
X32576872Y-27806001D01*
X32576872Y-26980999D01*
X32559808Y-26807745D01*
X32509272Y-26641149D01*
X32427205Y-26487613D01*
X32316762Y-26353038D01*
X32182187Y-26242595D01*
X32028651Y-26160528D01*
X31862055Y-26109992D01*
X31688801Y-26092928D01*
X30919096Y-26092928D01*
X29067100Y-24240933D01*
X29067100Y-18456067D01*
X29547280Y-17975887D01*
X29547388Y-17976982D01*
G04 #@! TA.AperFunction,Conductor*
D29*
G36*
X29547388Y-17976982D02*
G01*
X29583698Y-18096680D01*
X29642663Y-18206994D01*
X29722015Y-18303685D01*
X29818706Y-18383037D01*
X29929020Y-18442002D01*
X30048718Y-18478312D01*
X30173200Y-18490572D01*
X31673200Y-18490572D01*
X31797682Y-18478312D01*
X31917380Y-18442002D01*
X32027694Y-18383037D01*
X32073200Y-18345691D01*
X32118706Y-18383037D01*
X32229020Y-18442002D01*
X32348718Y-18478312D01*
X32388200Y-18482201D01*
X32388201Y-21514428D01*
X31323200Y-21514428D01*
X31198718Y-21526688D01*
X31079020Y-21562998D01*
X30968706Y-21621963D01*
X30872015Y-21701315D01*
X30792663Y-21798006D01*
X30733698Y-21908320D01*
X30697388Y-22028018D01*
X30685128Y-22152500D01*
X30685128Y-24152500D01*
X30697388Y-24276982D01*
X30733698Y-24396680D01*
X30792663Y-24506994D01*
X30872015Y-24603685D01*
X30968706Y-24683037D01*
X31079020Y-24742002D01*
X31198718Y-24778312D01*
X31323200Y-24790572D01*
X32443261Y-24790572D01*
X32448028Y-24806286D01*
X32525564Y-24951345D01*
X32525565Y-24951346D01*
X32629910Y-25078491D01*
X32661774Y-25104641D01*
X34669628Y-27112496D01*
X34669628Y-27882201D01*
X34686692Y-28055455D01*
X34737228Y-28222051D01*
X34819295Y-28375587D01*
X34929738Y-28510162D01*
X35064313Y-28620605D01*
X35217849Y-28702672D01*
X35384445Y-28753208D01*
X35557699Y-28770272D01*
X36857701Y-28770272D01*
X37030955Y-28753208D01*
X37197551Y-28702672D01*
X37351087Y-28620605D01*
X37458388Y-28532545D01*
X41730758Y-32804916D01*
X41737280Y-32812863D01*
X41737280Y-33892100D01*
X35387772Y-33892100D01*
X35387772Y-33220899D01*
X35370708Y-33047645D01*
X35320172Y-32881049D01*
X35238105Y-32727513D01*
X35127662Y-32592938D01*
X34993087Y-32482495D01*
X34839551Y-32400428D01*
X34672955Y-32349892D01*
X34499701Y-32332828D01*
X33674699Y-32332828D01*
X33501445Y-32349892D01*
X33334849Y-32400428D01*
X33181313Y-32482495D01*
X33046738Y-32592938D01*
X32936295Y-32727513D01*
X32854228Y-32881049D01*
X32803692Y-33047645D01*
X32786628Y-33220899D01*
X32786628Y-34061315D01*
X32261848Y-34586095D01*
X32259700Y-34156650D01*
X32100950Y-33997900D01*
X31089200Y-33997900D01*
X31089200Y-35247150D01*
X31247950Y-35405900D01*
X31624700Y-35408972D01*
X31749182Y-35396712D01*
X31868880Y-35360402D01*
X31955601Y-35314048D01*
X31955601Y-35887128D01*
X31724600Y-35887128D01*
X31600118Y-35899388D01*
X31480420Y-35935698D01*
X31370106Y-35994663D01*
X31273415Y-36074015D01*
X31194063Y-36170706D01*
X31135098Y-36281020D01*
X31098788Y-36400718D01*
X31086528Y-36525200D01*
X31086528Y-36603800D01*
X30560352Y-36603800D01*
X30498485Y-36528415D01*
X30401794Y-36449063D01*
X30291480Y-36390098D01*
X30171782Y-36353788D01*
X30047300Y-36341528D01*
X28347300Y-36341528D01*
X28222818Y-36353788D01*
X28103120Y-36390098D01*
X27992806Y-36449063D01*
X27896115Y-36528415D01*
X27816763Y-36625106D01*
X27757798Y-36735420D01*
X27721488Y-36855118D01*
X27709228Y-36979600D01*
X27709228Y-38979600D01*
X27721488Y-39104082D01*
X27757798Y-39223780D01*
X27816763Y-39334094D01*
X27896115Y-39430785D01*
X27992806Y-39510137D01*
X28103120Y-39569102D01*
X28222818Y-39605412D01*
X28347300Y-39617672D01*
X30047300Y-39617672D01*
X30171782Y-39605412D01*
X30291480Y-39569102D01*
X30401794Y-39510137D01*
X30498485Y-39430785D01*
X30577837Y-39334094D01*
X30636802Y-39223780D01*
X30673112Y-39104082D01*
X30685372Y-38979600D01*
X30685372Y-38173800D01*
X31086528Y-38173800D01*
X31086528Y-38252400D01*
X31098788Y-38376882D01*
X31135098Y-38496580D01*
X31194063Y-38606894D01*
X31273415Y-38703585D01*
X31370106Y-38782937D01*
X31480420Y-38841902D01*
X31548339Y-38862505D01*
X31473403Y-38924003D01*
X31286131Y-39152194D01*
X31146975Y-39412536D01*
X31061284Y-39695023D01*
X31032349Y-39988800D01*
X31061284Y-40282577D01*
X31146975Y-40565064D01*
X31286131Y-40825406D01*
X31473403Y-41053597D01*
X31701594Y-41240869D01*
X31763068Y-41273728D01*
X31543403Y-41454003D01*
X31356131Y-41682194D01*
X31328547Y-41733800D01*
X30685372Y-41733800D01*
X30685372Y-40979600D01*
X30673112Y-40855118D01*
X30636802Y-40735420D01*
X30577837Y-40625106D01*
X30498485Y-40528415D01*
X30401794Y-40449063D01*
X30291480Y-40390098D01*
X30171782Y-40353788D01*
X30047300Y-40341528D01*
X28347300Y-40341528D01*
X28222818Y-40353788D01*
X28103120Y-40390098D01*
X27992806Y-40449063D01*
X27896115Y-40528415D01*
X27816763Y-40625106D01*
X27757798Y-40735420D01*
X27721488Y-40855118D01*
X27709228Y-40979600D01*
X27709228Y-42979600D01*
X27721488Y-43104082D01*
X27757798Y-43223780D01*
X27816763Y-43334094D01*
X27896115Y-43430785D01*
X27992806Y-43510137D01*
X28103120Y-43569102D01*
X28222818Y-43605412D01*
X28347300Y-43617672D01*
X30047300Y-43617672D01*
X30171782Y-43605412D01*
X30291480Y-43569102D01*
X30401794Y-43510137D01*
X30498485Y-43430785D01*
X30577837Y-43334094D01*
X30594030Y-43303800D01*
X31328547Y-43303800D01*
X31356131Y-43355406D01*
X31543403Y-43583597D01*
X31771594Y-43770869D01*
X31975601Y-43879913D01*
X31975601Y-44539789D01*
X31919680Y-44509898D01*
X31799982Y-44473588D01*
X31675500Y-44461328D01*
X31298750Y-44464400D01*
X31140000Y-44623150D01*
X31140000Y-45872400D01*
X32151750Y-45872400D01*
X32310500Y-45713650D01*
X32312648Y-45284205D01*
X32837428Y-45808985D01*
X32837428Y-46649401D01*
X32854492Y-46822655D01*
X32905028Y-46989251D01*
X32987095Y-47142787D01*
X33097538Y-47277362D01*
X33232113Y-47387805D01*
X33385649Y-47469872D01*
X33552245Y-47520408D01*
X33725499Y-47537472D01*
X34550501Y-47537472D01*
X34723755Y-47520408D01*
X34890351Y-47469872D01*
X35043887Y-47387805D01*
X35178462Y-47277362D01*
X35288905Y-47142787D01*
X35370972Y-46989251D01*
X35421508Y-46822655D01*
X35438572Y-46649401D01*
X35438572Y-45349399D01*
X35421508Y-45176145D01*
X35370972Y-45009549D01*
X35288905Y-44856013D01*
X35178462Y-44721438D01*
X35043887Y-44610995D01*
X34890351Y-44528928D01*
X34723755Y-44478392D01*
X34550501Y-44461328D01*
X33725499Y-44461328D01*
X33711467Y-44462710D01*
X33545600Y-44296843D01*
X33545600Y-43879913D01*
X33749606Y-43770869D01*
X33977797Y-43583597D01*
X34165069Y-43355406D01*
X34304225Y-43095064D01*
X34389916Y-42812577D01*
X34418851Y-42518800D01*
X34389916Y-42225023D01*
X34337460Y-42052097D01*
X37110973Y-39278584D01*
X37077700Y-39445861D01*
X37077700Y-39649739D01*
X37117474Y-39849698D01*
X37195495Y-40038056D01*
X37308763Y-40207574D01*
X37452926Y-40351737D01*
X37622444Y-40465005D01*
X37810802Y-40543026D01*
X38005641Y-40581782D01*
X37011220Y-41576203D01*
X36981266Y-41600786D01*
X36883168Y-41720318D01*
X36810276Y-41856691D01*
X36765389Y-42004664D01*
X36754030Y-42119990D01*
X36754030Y-42119997D01*
X36750233Y-42158550D01*
X36754030Y-42197103D01*
X36754031Y-52268027D01*
X36750233Y-52306590D01*
X36765389Y-52460476D01*
X36810276Y-52608449D01*
X36810277Y-52608450D01*
X36883169Y-52744823D01*
X36923720Y-52794234D01*
X36956685Y-52834402D01*
X36956689Y-52834406D01*
X36981267Y-52864354D01*
X37011215Y-52888932D01*
X40177033Y-56054750D01*
X40201616Y-56084704D01*
X40321147Y-56182802D01*
X40457520Y-56255694D01*
X40605493Y-56300582D01*
X40641852Y-56304163D01*
X40668566Y-56330877D01*
X40838084Y-56444145D01*
X41026442Y-56522166D01*
X41226401Y-56561940D01*
X41430279Y-56561940D01*
X41630238Y-56522166D01*
X41818596Y-56444145D01*
X41988114Y-56330877D01*
X42132277Y-56186714D01*
X42245545Y-56017196D01*
X42323566Y-55828838D01*
X42363340Y-55628879D01*
X42363340Y-55425001D01*
X42323566Y-55225042D01*
X42245545Y-55036684D01*
X42132277Y-54867166D01*
X41988114Y-54723003D01*
X41818596Y-54609735D01*
X41630238Y-54531714D01*
X41430279Y-54491940D01*
X41226401Y-54491940D01*
X41026442Y-54531714D01*
X40918869Y-54576272D01*
X38324030Y-51981433D01*
X38324030Y-49076027D01*
X42610900Y-53362898D01*
X42610901Y-77130147D01*
X42559295Y-77157731D01*
X42331103Y-77345003D01*
X42143831Y-77573194D01*
X42125900Y-77606741D01*
X42107969Y-77573194D01*
X41920697Y-77345003D01*
X41692506Y-77157731D01*
X41432164Y-77018575D01*
X41149677Y-76932884D01*
X40855900Y-76903949D01*
X40562124Y-76932884D01*
X40279637Y-77018575D01*
X40019295Y-77157731D01*
X39791103Y-77345003D01*
X39603831Y-77573194D01*
X39582476Y-77613147D01*
X39434386Y-77410471D01*
X39217935Y-77211467D01*
X38966819Y-77058514D01*
X38690689Y-76957491D01*
X38674926Y-76954842D01*
X38442900Y-77075983D01*
X38442900Y-78435200D01*
X38462900Y-78435200D01*
X38462900Y-78689200D01*
X38442900Y-78689200D01*
X38442900Y-78709200D01*
X38188900Y-78709200D01*
X38188900Y-78689200D01*
X38168900Y-78689200D01*
X38168900Y-78435200D01*
X38188900Y-78435200D01*
X38188900Y-77075983D01*
X37956874Y-76954842D01*
X37941111Y-76957491D01*
X37664981Y-77058514D01*
X37413865Y-77211467D01*
X37197414Y-77410471D01*
X37049324Y-77613147D01*
X37027969Y-77573194D01*
X36840697Y-77345003D01*
X36612506Y-77157731D01*
X36352164Y-77018575D01*
X36069677Y-76932884D01*
X35775900Y-76903949D01*
X35482124Y-76932884D01*
X35363452Y-76968883D01*
X20646600Y-62252033D01*
X20646600Y-46899400D01*
X29712428Y-46899400D01*
X29724688Y-47023882D01*
X29760998Y-47143580D01*
X29819963Y-47253894D01*
X29899315Y-47350585D01*
X29996006Y-47429937D01*
X30106320Y-47488902D01*
X30226018Y-47525212D01*
X30350500Y-47537472D01*
X30727250Y-47534400D01*
X30886000Y-47375650D01*
X30886000Y-46126400D01*
X31140000Y-46126400D01*
X31140000Y-47375650D01*
X31298750Y-47534400D01*
X31675500Y-47537472D01*
X31799982Y-47525212D01*
X31919680Y-47488902D01*
X32029994Y-47429937D01*
X32126685Y-47350585D01*
X32206037Y-47253894D01*
X32265002Y-47143580D01*
X32301312Y-47023882D01*
X32313572Y-46899400D01*
X32310500Y-46285150D01*
X32151750Y-46126400D01*
X31140000Y-46126400D01*
X30886000Y-46126400D01*
X29874250Y-46126400D01*
X29715500Y-46285150D01*
X29712428Y-46899400D01*
X20646600Y-46899400D01*
X20646600Y-45099400D01*
X29712428Y-45099400D01*
X29715500Y-45713650D01*
X29874250Y-45872400D01*
X30886000Y-45872400D01*
X30886000Y-44623150D01*
X30727250Y-44464400D01*
X30350500Y-44461328D01*
X30226018Y-44473588D01*
X30106320Y-44509898D01*
X29996006Y-44568863D01*
X29899315Y-44648215D01*
X29819963Y-44744906D01*
X29760998Y-44855220D01*
X29724688Y-44974918D01*
X29712428Y-45099400D01*
X20646600Y-45099400D01*
X20646600Y-35754395D01*
X20717487Y-35716505D01*
X20852062Y-35606062D01*
X20962505Y-35471487D01*
X21044572Y-35317951D01*
X21071827Y-35228100D01*
X21636028Y-35228100D01*
X21648288Y-35352582D01*
X21684598Y-35472280D01*
X21743563Y-35582594D01*
X21822915Y-35679285D01*
X21919606Y-35758637D01*
X22029920Y-35817602D01*
X22149618Y-35853912D01*
X22274100Y-35866172D01*
X22650850Y-35863100D01*
X22809600Y-35704350D01*
X22809600Y-34455100D01*
X23063600Y-34455100D01*
X23063600Y-35704350D01*
X23222350Y-35863100D01*
X23599100Y-35866172D01*
X23723582Y-35853912D01*
X23843280Y-35817602D01*
X23953594Y-35758637D01*
X24050285Y-35679285D01*
X24129637Y-35582594D01*
X24188602Y-35472280D01*
X24224912Y-35352582D01*
X24237172Y-35228100D01*
X24234886Y-34770900D01*
X29661628Y-34770900D01*
X29673888Y-34895382D01*
X29710198Y-35015080D01*
X29769163Y-35125394D01*
X29848515Y-35222085D01*
X29945206Y-35301437D01*
X30055520Y-35360402D01*
X30175218Y-35396712D01*
X30299700Y-35408972D01*
X30676450Y-35405900D01*
X30835200Y-35247150D01*
X30835200Y-33997900D01*
X29823450Y-33997900D01*
X29664700Y-34156650D01*
X29661628Y-34770900D01*
X24234886Y-34770900D01*
X24234100Y-34613850D01*
X24075350Y-34455100D01*
X23063600Y-34455100D01*
X22809600Y-34455100D01*
X21797850Y-34455100D01*
X21639100Y-34613850D01*
X21636028Y-35228100D01*
X21071827Y-35228100D01*
X21095108Y-35151355D01*
X21112172Y-34978101D01*
X21112172Y-34208396D01*
X21637304Y-33683264D01*
X21639100Y-34042350D01*
X21797850Y-34201100D01*
X22809600Y-34201100D01*
X22809600Y-32951850D01*
X23063600Y-32951850D01*
X23063600Y-34201100D01*
X24075350Y-34201100D01*
X24234100Y-34042350D01*
X24237172Y-33428100D01*
X24224912Y-33303618D01*
X24188602Y-33183920D01*
X24129637Y-33073606D01*
X24050285Y-32976915D01*
X24042956Y-32970900D01*
X29661628Y-32970900D01*
X29664700Y-33585150D01*
X29823450Y-33743900D01*
X30835200Y-33743900D01*
X30835200Y-32494650D01*
X31089200Y-32494650D01*
X31089200Y-33743900D01*
X32100950Y-33743900D01*
X32259700Y-33585150D01*
X32262772Y-32970900D01*
X32250512Y-32846418D01*
X32214202Y-32726720D01*
X32155237Y-32616406D01*
X32075885Y-32519715D01*
X31979194Y-32440363D01*
X31868880Y-32381398D01*
X31749182Y-32345088D01*
X31624700Y-32332828D01*
X31247950Y-32335900D01*
X31089200Y-32494650D01*
X30835200Y-32494650D01*
X30676450Y-32335900D01*
X30299700Y-32332828D01*
X30175218Y-32345088D01*
X30055520Y-32381398D01*
X29945206Y-32440363D01*
X29848515Y-32519715D01*
X29769163Y-32616406D01*
X29710198Y-32726720D01*
X29673888Y-32846418D01*
X29661628Y-32970900D01*
X24042956Y-32970900D01*
X23953594Y-32897563D01*
X23843280Y-32838598D01*
X23723582Y-32802288D01*
X23599100Y-32790028D01*
X23222350Y-32793100D01*
X23063600Y-32951850D01*
X22809600Y-32951850D01*
X22650850Y-32793100D01*
X22528466Y-32792102D01*
X22926069Y-32394500D01*
X25638382Y-32394500D01*
X25679400Y-32398540D01*
X25720418Y-32394500D01*
X25720419Y-32394500D01*
X25843089Y-32382418D01*
X26000487Y-32334672D01*
X26145546Y-32257136D01*
X26272691Y-32152791D01*
X26298846Y-32120921D01*
X27238767Y-31181000D01*
X29500728Y-31181000D01*
X29512988Y-31305482D01*
X29549298Y-31425180D01*
X29608263Y-31535494D01*
X29687615Y-31632185D01*
X29784306Y-31711537D01*
X29894620Y-31770502D01*
X30014318Y-31806812D01*
X30138800Y-31819072D01*
X30753050Y-31816000D01*
X30911800Y-31657250D01*
X30911800Y-30645500D01*
X31165800Y-30645500D01*
X31165800Y-31657250D01*
X31324550Y-31816000D01*
X31938800Y-31819072D01*
X32063282Y-31806812D01*
X32182980Y-31770502D01*
X32293294Y-31711537D01*
X32389985Y-31632185D01*
X32469337Y-31535494D01*
X32528302Y-31425180D01*
X32564612Y-31305482D01*
X32569367Y-31257200D01*
X34669628Y-31257200D01*
X34681888Y-31381682D01*
X34718198Y-31501380D01*
X34777163Y-31611694D01*
X34856515Y-31708385D01*
X34953206Y-31787737D01*
X35063520Y-31846702D01*
X35183218Y-31883012D01*
X35307700Y-31895272D01*
X35921950Y-31892200D01*
X36080700Y-31733450D01*
X36080700Y-30721700D01*
X36334700Y-30721700D01*
X36334700Y-31733450D01*
X36493450Y-31892200D01*
X37107700Y-31895272D01*
X37232182Y-31883012D01*
X37351880Y-31846702D01*
X37462194Y-31787737D01*
X37558885Y-31708385D01*
X37638237Y-31611694D01*
X37697202Y-31501380D01*
X37733512Y-31381682D01*
X37745772Y-31257200D01*
X37742700Y-30880450D01*
X37583950Y-30721700D01*
X36334700Y-30721700D01*
X36080700Y-30721700D01*
X34831450Y-30721700D01*
X34672700Y-30880450D01*
X34669628Y-31257200D01*
X32569367Y-31257200D01*
X32576872Y-31181000D01*
X32573800Y-30804250D01*
X32415050Y-30645500D01*
X31165800Y-30645500D01*
X30911800Y-30645500D01*
X29662550Y-30645500D01*
X29503800Y-30804250D01*
X29500728Y-31181000D01*
X27238767Y-31181000D01*
X28563768Y-29856000D01*
X29500728Y-29856000D01*
X29503800Y-30232750D01*
X29662550Y-30391500D01*
X30911800Y-30391500D01*
X30911800Y-29379750D01*
X31165800Y-29379750D01*
X31165800Y-30391500D01*
X32415050Y-30391500D01*
X32573800Y-30232750D01*
X32576250Y-29932200D01*
X34669628Y-29932200D01*
X34672700Y-30308950D01*
X34831450Y-30467700D01*
X36080700Y-30467700D01*
X36080700Y-29455950D01*
X36334700Y-29455950D01*
X36334700Y-30467700D01*
X37583950Y-30467700D01*
X37742700Y-30308950D01*
X37745772Y-29932200D01*
X37733512Y-29807718D01*
X37697202Y-29688020D01*
X37638237Y-29577706D01*
X37558885Y-29481015D01*
X37462194Y-29401663D01*
X37351880Y-29342698D01*
X37232182Y-29306388D01*
X37107700Y-29294128D01*
X36493450Y-29297200D01*
X36334700Y-29455950D01*
X36080700Y-29455950D01*
X35921950Y-29297200D01*
X35307700Y-29294128D01*
X35183218Y-29306388D01*
X35063520Y-29342698D01*
X34953206Y-29401663D01*
X34856515Y-29481015D01*
X34777163Y-29577706D01*
X34718198Y-29688020D01*
X34681888Y-29807718D01*
X34669628Y-29932200D01*
X32576250Y-29932200D01*
X32576872Y-29856000D01*
X32564612Y-29731518D01*
X32528302Y-29611820D01*
X32469337Y-29501506D01*
X32389985Y-29404815D01*
X32293294Y-29325463D01*
X32182980Y-29266498D01*
X32063282Y-29230188D01*
X31938800Y-29217928D01*
X31324550Y-29221000D01*
X31165800Y-29379750D01*
X30911800Y-29379750D01*
X30753050Y-29221000D01*
X30138800Y-29217928D01*
X30014318Y-29230188D01*
X29894620Y-29266498D01*
X29784306Y-29325463D01*
X29687615Y-29404815D01*
X29608263Y-29501506D01*
X29549298Y-29611820D01*
X29512988Y-29731518D01*
X29500728Y-29856000D01*
X28563768Y-29856000D01*
X29884401Y-28535368D01*
X29895413Y-28544405D01*
X30048949Y-28626472D01*
X30215545Y-28677008D01*
X30388799Y-28694072D01*
X31688801Y-28694072D01*
X31862055Y-28677008D01*
X32028651Y-28626472D01*
X32182187Y-28544405D01*
X32316762Y-28433962D01*
X32427205Y-28299387D01*
X32509272Y-28145851D01*
X32559808Y-27979255D01*
X32576872Y-27806001D01*
X32576872Y-26980999D01*
X32559808Y-26807745D01*
X32509272Y-26641149D01*
X32427205Y-26487613D01*
X32316762Y-26353038D01*
X32182187Y-26242595D01*
X32028651Y-26160528D01*
X31862055Y-26109992D01*
X31688801Y-26092928D01*
X30919096Y-26092928D01*
X29067100Y-24240933D01*
X29067100Y-18456067D01*
X29547280Y-17975887D01*
X29547388Y-17976982D01*
G37*
G04 #@! TD.AperFunction*
D28*
X60273024Y-21646743D02*
X60244089Y-21940520D01*
X60273024Y-22234297D01*
X60358715Y-22516784D01*
X60497871Y-22777126D01*
X60685143Y-23005317D01*
X60913334Y-23192589D01*
X60946880Y-23210520D01*
X60913334Y-23228451D01*
X60685143Y-23415723D01*
X60497871Y-23643914D01*
X60358715Y-23904256D01*
X60273024Y-24186743D01*
X60244089Y-24480520D01*
X60273024Y-24774297D01*
X60358715Y-25056784D01*
X60497871Y-25317126D01*
X60685143Y-25545317D01*
X60913334Y-25732589D01*
X60946880Y-25750520D01*
X60913334Y-25768451D01*
X60685143Y-25955723D01*
X60497871Y-26183914D01*
X60358715Y-26444256D01*
X60273024Y-26726743D01*
X60244089Y-27020520D01*
X60273024Y-27314297D01*
X60358715Y-27596784D01*
X60497871Y-27857126D01*
X60685143Y-28085317D01*
X60913334Y-28272589D01*
X60953287Y-28293944D01*
X60750611Y-28442034D01*
X60551607Y-28658485D01*
X60398654Y-28909601D01*
X60297631Y-29185731D01*
X60294982Y-29201494D01*
X60416123Y-29433520D01*
X61775340Y-29433520D01*
X61775340Y-29413520D01*
X62029340Y-29413520D01*
X62029340Y-29433520D01*
X62049340Y-29433520D01*
X62049340Y-29687520D01*
X62029340Y-29687520D01*
X62029340Y-30901445D01*
X62264254Y-31045705D01*
X62549973Y-30976293D01*
X62816661Y-30852474D01*
X63054069Y-30679006D01*
X63253073Y-30462555D01*
X63406026Y-30211439D01*
X63507049Y-29935309D01*
X63509698Y-29919546D01*
X63388558Y-29687522D01*
X63459184Y-29687522D01*
X63570981Y-29799319D01*
X63570980Y-32704900D01*
X63033171Y-32704900D01*
X63014234Y-32685963D01*
X62844716Y-32572695D01*
X62656358Y-32494674D01*
X62456399Y-32454900D01*
X62252521Y-32454900D01*
X62052562Y-32494674D01*
X61864204Y-32572695D01*
X61694686Y-32685963D01*
X61550523Y-32830126D01*
X61437255Y-32999644D01*
X61359234Y-33188002D01*
X61319460Y-33387961D01*
X61319460Y-33591839D01*
X61359234Y-33791798D01*
X61437255Y-33980156D01*
X61550523Y-34149674D01*
X61694686Y-34293837D01*
X61864204Y-34407105D01*
X62052562Y-34485126D01*
X62252521Y-34524900D01*
X62456399Y-34524900D01*
X62656358Y-34485126D01*
X62844716Y-34407105D01*
X63014234Y-34293837D01*
X63033171Y-34274900D01*
X64317419Y-34274900D01*
X64332001Y-34276336D01*
X65111443Y-35055779D01*
X64998564Y-35102535D01*
X64829046Y-35215803D01*
X64684883Y-35359966D01*
X64571615Y-35529484D01*
X64493594Y-35717842D01*
X64453820Y-35917801D01*
X64453820Y-36121679D01*
X64493594Y-36321638D01*
X64571615Y-36509996D01*
X64684883Y-36679514D01*
X64703820Y-36698451D01*
X64703820Y-36796527D01*
X64700023Y-36835080D01*
X64703820Y-36873633D01*
X64703820Y-36873640D01*
X64715179Y-36988966D01*
X64760066Y-37136939D01*
X64832958Y-37273312D01*
X64931056Y-37392844D01*
X64961010Y-37417427D01*
X65561046Y-38017463D01*
X65459827Y-37986759D01*
X65344501Y-37975400D01*
X65344493Y-37975400D01*
X65305940Y-37971603D01*
X65267387Y-37975400D01*
X64475812Y-37975400D01*
X64437259Y-37971603D01*
X64398706Y-37975400D01*
X64398699Y-37975400D01*
X64297750Y-37985343D01*
X64283372Y-37986759D01*
X64248932Y-37997206D01*
X64135400Y-38031646D01*
X64079809Y-38061359D01*
X64039710Y-38021260D01*
X63027960Y-38021260D01*
X63027960Y-38041260D01*
X62773960Y-38041260D01*
X62773960Y-38021260D01*
X61762210Y-38021260D01*
X61603460Y-38180010D01*
X61600609Y-38750100D01*
X61049584Y-38750100D01*
X61059468Y-38717515D01*
X61076532Y-38544261D01*
X61076532Y-37244259D01*
X61059468Y-37071005D01*
X61036188Y-36994260D01*
X61600388Y-36994260D01*
X61603460Y-37608510D01*
X61762210Y-37767260D01*
X62773960Y-37767260D01*
X62773960Y-36518010D01*
X63027960Y-36518010D01*
X63027960Y-37767260D01*
X64039710Y-37767260D01*
X64198460Y-37608510D01*
X64201532Y-36994260D01*
X64189272Y-36869778D01*
X64152962Y-36750080D01*
X64093997Y-36639766D01*
X64014645Y-36543075D01*
X63917954Y-36463723D01*
X63807640Y-36404758D01*
X63687942Y-36368448D01*
X63563460Y-36356188D01*
X63186710Y-36359260D01*
X63027960Y-36518010D01*
X62773960Y-36518010D01*
X62615210Y-36359260D01*
X62238460Y-36356188D01*
X62113978Y-36368448D01*
X61994280Y-36404758D01*
X61883966Y-36463723D01*
X61787275Y-36543075D01*
X61707923Y-36639766D01*
X61648958Y-36750080D01*
X61612648Y-36869778D01*
X61600388Y-36994260D01*
X61036188Y-36994260D01*
X61008932Y-36904409D01*
X60926865Y-36750873D01*
X60816422Y-36616298D01*
X60681847Y-36505855D01*
X60528311Y-36423788D01*
X60361715Y-36373252D01*
X60188461Y-36356188D01*
X60102417Y-36356188D01*
X57086184Y-33339957D01*
X57060031Y-33308089D01*
X57028163Y-33281936D01*
X56261906Y-32515679D01*
X56235751Y-32483809D01*
X56108606Y-32379464D01*
X55963547Y-32301928D01*
X55806149Y-32254182D01*
X55683479Y-32242100D01*
X55683478Y-32242100D01*
X55642460Y-32238060D01*
X55601442Y-32242100D01*
X54510940Y-32242100D01*
X54510940Y-29919546D01*
X60294982Y-29919546D01*
X60297631Y-29935309D01*
X60398654Y-30211439D01*
X60551607Y-30462555D01*
X60750611Y-30679006D01*
X60988019Y-30852474D01*
X61254707Y-30976293D01*
X61540426Y-31045705D01*
X61775340Y-30901445D01*
X61775340Y-29687520D01*
X60416123Y-29687520D01*
X60294982Y-29919546D01*
X54510940Y-29919546D01*
X54510940Y-26349960D01*
X54508500Y-26325184D01*
X54501273Y-26301359D01*
X54489537Y-26279403D01*
X54473743Y-26260157D01*
X54454497Y-26244363D01*
X54432541Y-26232627D01*
X54408716Y-26225400D01*
X54383940Y-26222960D01*
X51277697Y-26222960D01*
X52902610Y-24598047D01*
X52932564Y-24573464D01*
X53030662Y-24453933D01*
X53030962Y-24453372D01*
X53224800Y-24453372D01*
X53349282Y-24441112D01*
X53468980Y-24404802D01*
X53579294Y-24345837D01*
X53675985Y-24266485D01*
X53755337Y-24169794D01*
X53814302Y-24059480D01*
X53850612Y-23939782D01*
X53862872Y-23815300D01*
X53862872Y-21815300D01*
X53850612Y-21690818D01*
X53814302Y-21571120D01*
X53764731Y-21478380D01*
X60324096Y-21478380D01*
X60273024Y-21646743D01*
G04 #@! TA.AperFunction,Conductor*
D29*
G36*
X60273024Y-21646743D02*
G01*
X60244089Y-21940520D01*
X60273024Y-22234297D01*
X60358715Y-22516784D01*
X60497871Y-22777126D01*
X60685143Y-23005317D01*
X60913334Y-23192589D01*
X60946880Y-23210520D01*
X60913334Y-23228451D01*
X60685143Y-23415723D01*
X60497871Y-23643914D01*
X60358715Y-23904256D01*
X60273024Y-24186743D01*
X60244089Y-24480520D01*
X60273024Y-24774297D01*
X60358715Y-25056784D01*
X60497871Y-25317126D01*
X60685143Y-25545317D01*
X60913334Y-25732589D01*
X60946880Y-25750520D01*
X60913334Y-25768451D01*
X60685143Y-25955723D01*
X60497871Y-26183914D01*
X60358715Y-26444256D01*
X60273024Y-26726743D01*
X60244089Y-27020520D01*
X60273024Y-27314297D01*
X60358715Y-27596784D01*
X60497871Y-27857126D01*
X60685143Y-28085317D01*
X60913334Y-28272589D01*
X60953287Y-28293944D01*
X60750611Y-28442034D01*
X60551607Y-28658485D01*
X60398654Y-28909601D01*
X60297631Y-29185731D01*
X60294982Y-29201494D01*
X60416123Y-29433520D01*
X61775340Y-29433520D01*
X61775340Y-29413520D01*
X62029340Y-29413520D01*
X62029340Y-29433520D01*
X62049340Y-29433520D01*
X62049340Y-29687520D01*
X62029340Y-29687520D01*
X62029340Y-30901445D01*
X62264254Y-31045705D01*
X62549973Y-30976293D01*
X62816661Y-30852474D01*
X63054069Y-30679006D01*
X63253073Y-30462555D01*
X63406026Y-30211439D01*
X63507049Y-29935309D01*
X63509698Y-29919546D01*
X63388558Y-29687522D01*
X63459184Y-29687522D01*
X63570981Y-29799319D01*
X63570980Y-32704900D01*
X63033171Y-32704900D01*
X63014234Y-32685963D01*
X62844716Y-32572695D01*
X62656358Y-32494674D01*
X62456399Y-32454900D01*
X62252521Y-32454900D01*
X62052562Y-32494674D01*
X61864204Y-32572695D01*
X61694686Y-32685963D01*
X61550523Y-32830126D01*
X61437255Y-32999644D01*
X61359234Y-33188002D01*
X61319460Y-33387961D01*
X61319460Y-33591839D01*
X61359234Y-33791798D01*
X61437255Y-33980156D01*
X61550523Y-34149674D01*
X61694686Y-34293837D01*
X61864204Y-34407105D01*
X62052562Y-34485126D01*
X62252521Y-34524900D01*
X62456399Y-34524900D01*
X62656358Y-34485126D01*
X62844716Y-34407105D01*
X63014234Y-34293837D01*
X63033171Y-34274900D01*
X64317419Y-34274900D01*
X64332001Y-34276336D01*
X65111443Y-35055779D01*
X64998564Y-35102535D01*
X64829046Y-35215803D01*
X64684883Y-35359966D01*
X64571615Y-35529484D01*
X64493594Y-35717842D01*
X64453820Y-35917801D01*
X64453820Y-36121679D01*
X64493594Y-36321638D01*
X64571615Y-36509996D01*
X64684883Y-36679514D01*
X64703820Y-36698451D01*
X64703820Y-36796527D01*
X64700023Y-36835080D01*
X64703820Y-36873633D01*
X64703820Y-36873640D01*
X64715179Y-36988966D01*
X64760066Y-37136939D01*
X64832958Y-37273312D01*
X64931056Y-37392844D01*
X64961010Y-37417427D01*
X65561046Y-38017463D01*
X65459827Y-37986759D01*
X65344501Y-37975400D01*
X65344493Y-37975400D01*
X65305940Y-37971603D01*
X65267387Y-37975400D01*
X64475812Y-37975400D01*
X64437259Y-37971603D01*
X64398706Y-37975400D01*
X64398699Y-37975400D01*
X64297750Y-37985343D01*
X64283372Y-37986759D01*
X64248932Y-37997206D01*
X64135400Y-38031646D01*
X64079809Y-38061359D01*
X64039710Y-38021260D01*
X63027960Y-38021260D01*
X63027960Y-38041260D01*
X62773960Y-38041260D01*
X62773960Y-38021260D01*
X61762210Y-38021260D01*
X61603460Y-38180010D01*
X61600609Y-38750100D01*
X61049584Y-38750100D01*
X61059468Y-38717515D01*
X61076532Y-38544261D01*
X61076532Y-37244259D01*
X61059468Y-37071005D01*
X61036188Y-36994260D01*
X61600388Y-36994260D01*
X61603460Y-37608510D01*
X61762210Y-37767260D01*
X62773960Y-37767260D01*
X62773960Y-36518010D01*
X63027960Y-36518010D01*
X63027960Y-37767260D01*
X64039710Y-37767260D01*
X64198460Y-37608510D01*
X64201532Y-36994260D01*
X64189272Y-36869778D01*
X64152962Y-36750080D01*
X64093997Y-36639766D01*
X64014645Y-36543075D01*
X63917954Y-36463723D01*
X63807640Y-36404758D01*
X63687942Y-36368448D01*
X63563460Y-36356188D01*
X63186710Y-36359260D01*
X63027960Y-36518010D01*
X62773960Y-36518010D01*
X62615210Y-36359260D01*
X62238460Y-36356188D01*
X62113978Y-36368448D01*
X61994280Y-36404758D01*
X61883966Y-36463723D01*
X61787275Y-36543075D01*
X61707923Y-36639766D01*
X61648958Y-36750080D01*
X61612648Y-36869778D01*
X61600388Y-36994260D01*
X61036188Y-36994260D01*
X61008932Y-36904409D01*
X60926865Y-36750873D01*
X60816422Y-36616298D01*
X60681847Y-36505855D01*
X60528311Y-36423788D01*
X60361715Y-36373252D01*
X60188461Y-36356188D01*
X60102417Y-36356188D01*
X57086184Y-33339957D01*
X57060031Y-33308089D01*
X57028163Y-33281936D01*
X56261906Y-32515679D01*
X56235751Y-32483809D01*
X56108606Y-32379464D01*
X55963547Y-32301928D01*
X55806149Y-32254182D01*
X55683479Y-32242100D01*
X55683478Y-32242100D01*
X55642460Y-32238060D01*
X55601442Y-32242100D01*
X54510940Y-32242100D01*
X54510940Y-29919546D01*
X60294982Y-29919546D01*
X60297631Y-29935309D01*
X60398654Y-30211439D01*
X60551607Y-30462555D01*
X60750611Y-30679006D01*
X60988019Y-30852474D01*
X61254707Y-30976293D01*
X61540426Y-31045705D01*
X61775340Y-30901445D01*
X61775340Y-29687520D01*
X60416123Y-29687520D01*
X60294982Y-29919546D01*
X54510940Y-29919546D01*
X54510940Y-26349960D01*
X54508500Y-26325184D01*
X54501273Y-26301359D01*
X54489537Y-26279403D01*
X54473743Y-26260157D01*
X54454497Y-26244363D01*
X54432541Y-26232627D01*
X54408716Y-26225400D01*
X54383940Y-26222960D01*
X51277697Y-26222960D01*
X52902610Y-24598047D01*
X52932564Y-24573464D01*
X53030662Y-24453933D01*
X53030962Y-24453372D01*
X53224800Y-24453372D01*
X53349282Y-24441112D01*
X53468980Y-24404802D01*
X53579294Y-24345837D01*
X53675985Y-24266485D01*
X53755337Y-24169794D01*
X53814302Y-24059480D01*
X53850612Y-23939782D01*
X53862872Y-23815300D01*
X53862872Y-21815300D01*
X53850612Y-21690818D01*
X53814302Y-21571120D01*
X53764731Y-21478380D01*
X60324096Y-21478380D01*
X60273024Y-21646743D01*
G37*
G04 #@! TD.AperFunction*
D28*
X70272300Y-22807089D02*
X70272300Y-23123628D01*
X70091300Y-23123628D01*
X69966818Y-23135888D01*
X69847120Y-23172198D01*
X69736806Y-23231163D01*
X69640115Y-23310515D01*
X69560763Y-23407206D01*
X69501798Y-23517520D01*
X69465488Y-23637218D01*
X69453228Y-23761700D01*
X69453228Y-25488900D01*
X69465488Y-25613382D01*
X69501798Y-25733080D01*
X69560763Y-25843394D01*
X69640115Y-25940085D01*
X69736806Y-26019437D01*
X69847120Y-26078402D01*
X69909212Y-26097237D01*
X69756567Y-26263265D01*
X69603614Y-26514381D01*
X69502591Y-26790511D01*
X69499942Y-26806274D01*
X69621083Y-27038300D01*
X70980300Y-27038300D01*
X70980300Y-27018300D01*
X71234300Y-27018300D01*
X71234300Y-27038300D01*
X71254300Y-27038300D01*
X71254300Y-27292300D01*
X71234300Y-27292300D01*
X71234300Y-27312300D01*
X70980300Y-27312300D01*
X70980300Y-27292300D01*
X69621083Y-27292300D01*
X69499942Y-27524326D01*
X69502591Y-27540089D01*
X69603614Y-27816219D01*
X69756567Y-28067335D01*
X69955571Y-28283786D01*
X70158247Y-28431876D01*
X70118294Y-28453231D01*
X69890103Y-28640503D01*
X69702831Y-28868694D01*
X69563675Y-29129036D01*
X69477984Y-29411523D01*
X69449049Y-29705300D01*
X69477984Y-29999077D01*
X69563675Y-30281564D01*
X69702831Y-30541906D01*
X69890103Y-30770097D01*
X70118294Y-30957369D01*
X70151840Y-30975300D01*
X70118294Y-30993231D01*
X69890103Y-31180503D01*
X69702831Y-31408694D01*
X69563675Y-31669036D01*
X69477984Y-31951523D01*
X69449049Y-32245300D01*
X69477984Y-32539077D01*
X69563675Y-32821564D01*
X69702831Y-33081906D01*
X69890103Y-33310097D01*
X70118294Y-33497369D01*
X70151840Y-33515300D01*
X70118294Y-33533231D01*
X69890103Y-33720503D01*
X69702831Y-33948694D01*
X69563675Y-34209036D01*
X69477984Y-34491523D01*
X69469529Y-34577371D01*
X68757940Y-33865783D01*
X68757940Y-26733676D01*
X68761737Y-26695120D01*
X68757940Y-26656560D01*
X68757940Y-26656559D01*
X68753960Y-26616146D01*
X68746582Y-26541233D01*
X68701694Y-26393260D01*
X68695491Y-26381655D01*
X68628802Y-26256887D01*
X68530704Y-26137356D01*
X68500751Y-26112774D01*
X63800687Y-21412710D01*
X63776104Y-21382756D01*
X63656573Y-21284658D01*
X63520200Y-21211766D01*
X63372227Y-21166879D01*
X63338699Y-21163577D01*
X63306809Y-21103914D01*
X63119537Y-20875723D01*
X63111475Y-20869106D01*
X63162520Y-20853622D01*
X63272834Y-20794657D01*
X63369525Y-20715305D01*
X63448877Y-20618614D01*
X63507842Y-20508300D01*
X63544152Y-20388602D01*
X63556412Y-20264120D01*
X63556412Y-18536920D01*
X63544152Y-18412438D01*
X63507842Y-18292740D01*
X63448877Y-18182426D01*
X63369525Y-18085735D01*
X63272834Y-18006383D01*
X63162520Y-17947418D01*
X63042822Y-17911108D01*
X62918340Y-17898848D01*
X60886340Y-17898848D01*
X60761858Y-17911108D01*
X60642160Y-17947418D01*
X60531846Y-18006383D01*
X60435155Y-18085735D01*
X60355803Y-18182426D01*
X60296838Y-18292740D01*
X60260528Y-18412438D01*
X60248268Y-18536920D01*
X60248268Y-19908380D01*
X53853705Y-19908380D01*
X53862872Y-19815300D01*
X53862872Y-19650300D01*
X54547142Y-19650300D01*
X54588160Y-19654340D01*
X54629178Y-19650300D01*
X54629179Y-19650300D01*
X54751849Y-19638218D01*
X54909247Y-19590472D01*
X55054306Y-19512936D01*
X55181451Y-19408591D01*
X55207606Y-19376721D01*
X58371793Y-16212536D01*
X58389779Y-16207080D01*
X63672293Y-16207080D01*
X70272300Y-22807089D01*
G04 #@! TA.AperFunction,Conductor*
D29*
G36*
X70272300Y-22807089D02*
G01*
X70272300Y-23123628D01*
X70091300Y-23123628D01*
X69966818Y-23135888D01*
X69847120Y-23172198D01*
X69736806Y-23231163D01*
X69640115Y-23310515D01*
X69560763Y-23407206D01*
X69501798Y-23517520D01*
X69465488Y-23637218D01*
X69453228Y-23761700D01*
X69453228Y-25488900D01*
X69465488Y-25613382D01*
X69501798Y-25733080D01*
X69560763Y-25843394D01*
X69640115Y-25940085D01*
X69736806Y-26019437D01*
X69847120Y-26078402D01*
X69909212Y-26097237D01*
X69756567Y-26263265D01*
X69603614Y-26514381D01*
X69502591Y-26790511D01*
X69499942Y-26806274D01*
X69621083Y-27038300D01*
X70980300Y-27038300D01*
X70980300Y-27018300D01*
X71234300Y-27018300D01*
X71234300Y-27038300D01*
X71254300Y-27038300D01*
X71254300Y-27292300D01*
X71234300Y-27292300D01*
X71234300Y-27312300D01*
X70980300Y-27312300D01*
X70980300Y-27292300D01*
X69621083Y-27292300D01*
X69499942Y-27524326D01*
X69502591Y-27540089D01*
X69603614Y-27816219D01*
X69756567Y-28067335D01*
X69955571Y-28283786D01*
X70158247Y-28431876D01*
X70118294Y-28453231D01*
X69890103Y-28640503D01*
X69702831Y-28868694D01*
X69563675Y-29129036D01*
X69477984Y-29411523D01*
X69449049Y-29705300D01*
X69477984Y-29999077D01*
X69563675Y-30281564D01*
X69702831Y-30541906D01*
X69890103Y-30770097D01*
X70118294Y-30957369D01*
X70151840Y-30975300D01*
X70118294Y-30993231D01*
X69890103Y-31180503D01*
X69702831Y-31408694D01*
X69563675Y-31669036D01*
X69477984Y-31951523D01*
X69449049Y-32245300D01*
X69477984Y-32539077D01*
X69563675Y-32821564D01*
X69702831Y-33081906D01*
X69890103Y-33310097D01*
X70118294Y-33497369D01*
X70151840Y-33515300D01*
X70118294Y-33533231D01*
X69890103Y-33720503D01*
X69702831Y-33948694D01*
X69563675Y-34209036D01*
X69477984Y-34491523D01*
X69469529Y-34577371D01*
X68757940Y-33865783D01*
X68757940Y-26733676D01*
X68761737Y-26695120D01*
X68757940Y-26656560D01*
X68757940Y-26656559D01*
X68753960Y-26616146D01*
X68746582Y-26541233D01*
X68701694Y-26393260D01*
X68695491Y-26381655D01*
X68628802Y-26256887D01*
X68530704Y-26137356D01*
X68500751Y-26112774D01*
X63800687Y-21412710D01*
X63776104Y-21382756D01*
X63656573Y-21284658D01*
X63520200Y-21211766D01*
X63372227Y-21166879D01*
X63338699Y-21163577D01*
X63306809Y-21103914D01*
X63119537Y-20875723D01*
X63111475Y-20869106D01*
X63162520Y-20853622D01*
X63272834Y-20794657D01*
X63369525Y-20715305D01*
X63448877Y-20618614D01*
X63507842Y-20508300D01*
X63544152Y-20388602D01*
X63556412Y-20264120D01*
X63556412Y-18536920D01*
X63544152Y-18412438D01*
X63507842Y-18292740D01*
X63448877Y-18182426D01*
X63369525Y-18085735D01*
X63272834Y-18006383D01*
X63162520Y-17947418D01*
X63042822Y-17911108D01*
X62918340Y-17898848D01*
X60886340Y-17898848D01*
X60761858Y-17911108D01*
X60642160Y-17947418D01*
X60531846Y-18006383D01*
X60435155Y-18085735D01*
X60355803Y-18182426D01*
X60296838Y-18292740D01*
X60260528Y-18412438D01*
X60248268Y-18536920D01*
X60248268Y-19908380D01*
X53853705Y-19908380D01*
X53862872Y-19815300D01*
X53862872Y-19650300D01*
X54547142Y-19650300D01*
X54588160Y-19654340D01*
X54629178Y-19650300D01*
X54629179Y-19650300D01*
X54751849Y-19638218D01*
X54909247Y-19590472D01*
X55054306Y-19512936D01*
X55181451Y-19408591D01*
X55207606Y-19376721D01*
X58371793Y-16212536D01*
X58389779Y-16207080D01*
X63672293Y-16207080D01*
X70272300Y-22807089D01*
G37*
G04 #@! TD.AperFunction*
D28*
X41369284Y-17571792D02*
X41348588Y-17640018D01*
X41336328Y-17764500D01*
X41336328Y-19764500D01*
X41348588Y-19888982D01*
X41384898Y-20008680D01*
X41443863Y-20118994D01*
X41523215Y-20215685D01*
X41619906Y-20295037D01*
X41730220Y-20354002D01*
X41849918Y-20390312D01*
X41974400Y-20402572D01*
X43003270Y-20402572D01*
X42296585Y-21109258D01*
X42275664Y-21126428D01*
X41974400Y-21126428D01*
X41849918Y-21138688D01*
X41730220Y-21174998D01*
X41619906Y-21233963D01*
X41523215Y-21313315D01*
X41443863Y-21410006D01*
X41384898Y-21520320D01*
X41348588Y-21640018D01*
X41336328Y-21764500D01*
X41336328Y-23764500D01*
X41348588Y-23888982D01*
X41384898Y-24008680D01*
X41443863Y-24118994D01*
X41523215Y-24215685D01*
X41619906Y-24295037D01*
X41730220Y-24354002D01*
X41849918Y-24390312D01*
X41974400Y-24402572D01*
X42039400Y-24402572D01*
X42039400Y-24472447D01*
X42035603Y-24511000D01*
X42039400Y-24549553D01*
X42039400Y-24549560D01*
X42050759Y-24664886D01*
X42095646Y-24812859D01*
X42168538Y-24949232D01*
X42266636Y-25068764D01*
X42296590Y-25093347D01*
X42762753Y-25559510D01*
X42787336Y-25589464D01*
X42906867Y-25687562D01*
X43043240Y-25760454D01*
X43191213Y-25805341D01*
X43306539Y-25816700D01*
X43306546Y-25816700D01*
X43345099Y-25820497D01*
X43383652Y-25816700D01*
X44642543Y-25816700D01*
X45048803Y-26222960D01*
X41864280Y-26222960D01*
X41839504Y-26225400D01*
X41815679Y-26232627D01*
X41793723Y-26244363D01*
X41774477Y-26260157D01*
X41758683Y-26279403D01*
X41746947Y-26301359D01*
X41739720Y-26325184D01*
X41737280Y-26349960D01*
X41737280Y-30591122D01*
X38088047Y-26941890D01*
X38063464Y-26911936D01*
X37943933Y-26813838D01*
X37807560Y-26740946D01*
X37668187Y-26698668D01*
X37596105Y-26563813D01*
X37485662Y-26429238D01*
X37351087Y-26318795D01*
X37197551Y-26236728D01*
X37030955Y-26186192D01*
X36857701Y-26169128D01*
X36087996Y-26169128D01*
X34709439Y-24790572D01*
X35123200Y-24790572D01*
X35247682Y-24778312D01*
X35367380Y-24742002D01*
X35477694Y-24683037D01*
X35574385Y-24603685D01*
X35653737Y-24506994D01*
X35712702Y-24396680D01*
X35749012Y-24276982D01*
X35761272Y-24152500D01*
X35761272Y-22152500D01*
X35749012Y-22028018D01*
X35712702Y-21908320D01*
X35653737Y-21798006D01*
X35574385Y-21701315D01*
X35477694Y-21621963D01*
X35367380Y-21562998D01*
X35247682Y-21526688D01*
X35123200Y-21514428D01*
X34058200Y-21514428D01*
X34058200Y-18482201D01*
X34097682Y-18478312D01*
X34217380Y-18442002D01*
X34327694Y-18383037D01*
X34373200Y-18345691D01*
X34418706Y-18383037D01*
X34529020Y-18442002D01*
X34648718Y-18478312D01*
X34773200Y-18490572D01*
X35237450Y-18487500D01*
X35396200Y-18328750D01*
X35396200Y-16979500D01*
X35650200Y-16979500D01*
X35650200Y-18328750D01*
X35808950Y-18487500D01*
X36273200Y-18490572D01*
X36397682Y-18478312D01*
X36517380Y-18442002D01*
X36627694Y-18383037D01*
X36724385Y-18303685D01*
X36803737Y-18206994D01*
X36862702Y-18096680D01*
X36899012Y-17976982D01*
X36911272Y-17852500D01*
X36908200Y-17138250D01*
X36749450Y-16979500D01*
X35650200Y-16979500D01*
X35396200Y-16979500D01*
X35376200Y-16979500D01*
X35376200Y-16725500D01*
X35396200Y-16725500D01*
X35396200Y-16705500D01*
X35650200Y-16705500D01*
X35650200Y-16725500D01*
X36749450Y-16725500D01*
X36908200Y-16566750D01*
X36909401Y-16287499D01*
X40084992Y-16287499D01*
X41369284Y-17571792D01*
G04 #@! TA.AperFunction,Conductor*
D29*
G36*
X41369284Y-17571792D02*
G01*
X41348588Y-17640018D01*
X41336328Y-17764500D01*
X41336328Y-19764500D01*
X41348588Y-19888982D01*
X41384898Y-20008680D01*
X41443863Y-20118994D01*
X41523215Y-20215685D01*
X41619906Y-20295037D01*
X41730220Y-20354002D01*
X41849918Y-20390312D01*
X41974400Y-20402572D01*
X43003270Y-20402572D01*
X42296585Y-21109258D01*
X42275664Y-21126428D01*
X41974400Y-21126428D01*
X41849918Y-21138688D01*
X41730220Y-21174998D01*
X41619906Y-21233963D01*
X41523215Y-21313315D01*
X41443863Y-21410006D01*
X41384898Y-21520320D01*
X41348588Y-21640018D01*
X41336328Y-21764500D01*
X41336328Y-23764500D01*
X41348588Y-23888982D01*
X41384898Y-24008680D01*
X41443863Y-24118994D01*
X41523215Y-24215685D01*
X41619906Y-24295037D01*
X41730220Y-24354002D01*
X41849918Y-24390312D01*
X41974400Y-24402572D01*
X42039400Y-24402572D01*
X42039400Y-24472447D01*
X42035603Y-24511000D01*
X42039400Y-24549553D01*
X42039400Y-24549560D01*
X42050759Y-24664886D01*
X42095646Y-24812859D01*
X42168538Y-24949232D01*
X42266636Y-25068764D01*
X42296590Y-25093347D01*
X42762753Y-25559510D01*
X42787336Y-25589464D01*
X42906867Y-25687562D01*
X43043240Y-25760454D01*
X43191213Y-25805341D01*
X43306539Y-25816700D01*
X43306546Y-25816700D01*
X43345099Y-25820497D01*
X43383652Y-25816700D01*
X44642543Y-25816700D01*
X45048803Y-26222960D01*
X41864280Y-26222960D01*
X41839504Y-26225400D01*
X41815679Y-26232627D01*
X41793723Y-26244363D01*
X41774477Y-26260157D01*
X41758683Y-26279403D01*
X41746947Y-26301359D01*
X41739720Y-26325184D01*
X41737280Y-26349960D01*
X41737280Y-30591122D01*
X38088047Y-26941890D01*
X38063464Y-26911936D01*
X37943933Y-26813838D01*
X37807560Y-26740946D01*
X37668187Y-26698668D01*
X37596105Y-26563813D01*
X37485662Y-26429238D01*
X37351087Y-26318795D01*
X37197551Y-26236728D01*
X37030955Y-26186192D01*
X36857701Y-26169128D01*
X36087996Y-26169128D01*
X34709439Y-24790572D01*
X35123200Y-24790572D01*
X35247682Y-24778312D01*
X35367380Y-24742002D01*
X35477694Y-24683037D01*
X35574385Y-24603685D01*
X35653737Y-24506994D01*
X35712702Y-24396680D01*
X35749012Y-24276982D01*
X35761272Y-24152500D01*
X35761272Y-22152500D01*
X35749012Y-22028018D01*
X35712702Y-21908320D01*
X35653737Y-21798006D01*
X35574385Y-21701315D01*
X35477694Y-21621963D01*
X35367380Y-21562998D01*
X35247682Y-21526688D01*
X35123200Y-21514428D01*
X34058200Y-21514428D01*
X34058200Y-18482201D01*
X34097682Y-18478312D01*
X34217380Y-18442002D01*
X34327694Y-18383037D01*
X34373200Y-18345691D01*
X34418706Y-18383037D01*
X34529020Y-18442002D01*
X34648718Y-18478312D01*
X34773200Y-18490572D01*
X35237450Y-18487500D01*
X35396200Y-18328750D01*
X35396200Y-16979500D01*
X35650200Y-16979500D01*
X35650200Y-18328750D01*
X35808950Y-18487500D01*
X36273200Y-18490572D01*
X36397682Y-18478312D01*
X36517380Y-18442002D01*
X36627694Y-18383037D01*
X36724385Y-18303685D01*
X36803737Y-18206994D01*
X36862702Y-18096680D01*
X36899012Y-17976982D01*
X36911272Y-17852500D01*
X36908200Y-17138250D01*
X36749450Y-16979500D01*
X35650200Y-16979500D01*
X35396200Y-16979500D01*
X35376200Y-16979500D01*
X35376200Y-16725500D01*
X35396200Y-16725500D01*
X35396200Y-16705500D01*
X35650200Y-16705500D01*
X35650200Y-16725500D01*
X36749450Y-16725500D01*
X36908200Y-16566750D01*
X36909401Y-16287499D01*
X40084992Y-16287499D01*
X41369284Y-17571792D01*
G37*
G04 #@! TD.AperFunction*
G04 #@! TD*
M02*
