M48
; DRILL file {KiCad 5.99.0+really5.1.10+dfsg1-1} date Fri Jun 24 16:49:16 2022
; FORMAT={-:-/ absolute / inch / decimal}
; #@! TF.CreationDate,2022-06-24T16:49:16+05:30
; #@! TF.GenerationSoftware,Kicad,Pcbnew,5.99.0+really5.1.10+dfsg1-1
FMAT,2
INCH
T1C0.0157
T2C0.0315
T3C0.0394
T4C0.0400
T5C0.0500
%
G90
G05
T1
X1.5005Y-1.557
X1.5631Y-1.2984
X1.6123Y-1.0406
X1.6271Y-2.1861
X1.9231Y-1.876
X2.1559Y-1.4717
X2.2074Y-1.3967
X2.4549Y-1.3185
X2.5061Y-1.3718
X2.5783Y-1.4181
X2.5891Y-1.544
X2.629Y-2.0624
X2.683Y-1.4997
T2
X0.732Y-1.057
X0.932Y-1.057
T3
X0.9955Y-0.6505
T4
X0.698Y-0.6645
X0.698Y-0.7645
X1.2085Y-3.093
X1.287Y-1.5744
X1.289Y-1.472
X1.2898Y-1.674
X1.3085Y-3.093
X1.4085Y-3.093
X1.5085Y-3.093
X1.5835Y-1.7675
X1.6085Y-3.093
X1.6835Y-1.7675
X1.7085Y-3.093
X1.7835Y-1.7675
X1.8085Y-3.093
X1.8835Y-1.7675
X1.9085Y-3.093
X1.9835Y-1.7675
X2.0085Y-3.093
X2.0835Y-1.7675
X2.1835Y-1.7675
X2.3793Y-1.7673
X2.4371Y-0.7638
X2.4371Y-0.8638
X2.4371Y-0.9638
X2.4371Y-1.0638
X2.4371Y-1.1638
X2.4793Y-1.7673
X2.5793Y-1.7673
X2.7995Y-0.9695
X2.7995Y-1.0695
X2.7995Y-1.1695
X2.7995Y-1.2695
X2.7995Y-1.3695
X2.7995Y-1.4695
X2.7995Y-1.5695
X2.7995Y-1.6695
X2.7995Y-1.7695
T5
X0.8455Y-0.6505
T0
M30
