G04 #@! TF.GenerationSoftware,KiCad,Pcbnew,5.99.0+really5.1.10+dfsg1-1*
G04 #@! TF.CreationDate,2022-06-24T16:38:05+05:30*
G04 #@! TF.ProjectId,AB1-4_display,4142312d-345f-4646-9973-706c61792e6b,rev?*
G04 #@! TF.SameCoordinates,Original*
G04 #@! TF.FileFunction,Soldermask,Top*
G04 #@! TF.FilePolarity,Negative*
%FSLAX46Y46*%
G04 Gerber Fmt 4.6, Leading zero omitted, Abs format (unit mm)*
G04 Created by KiCad (PCBNEW 5.99.0+really5.1.10+dfsg1-1) date 2022-06-24 16:38:05*
%MOMM*%
%LPD*%
G01*
G04 APERTURE LIST*
%ADD10R,2.032000X1.727200*%
%ADD11O,2.032000X1.727200*%
%ADD12C,1.998980*%
%ADD13R,1.998980X1.998980*%
%ADD14C,2.000000*%
%ADD15R,1.500000X0.550000*%
%ADD16R,0.550000X1.500000*%
%ADD17R,2.032000X2.032000*%
%ADD18O,2.032000X2.032000*%
%ADD19O,1.727200X2.032000*%
%ADD20R,1.727200X2.032000*%
%ADD21R,1.700000X2.000000*%
%ADD22R,3.800000X2.000000*%
%ADD23R,1.500000X2.000000*%
G04 APERTURE END LIST*
D10*
G04 #@! TO.C,Y1*
X32740600Y-37388800D03*
D11*
X32760600Y-42518800D03*
X32690600Y-39988800D03*
G04 #@! TD*
G04 #@! TO.C,C1*
G36*
G01*
X62238460Y-38544261D02*
X62238460Y-37244259D01*
G75*
G02*
X62488459Y-36994260I249999J0D01*
G01*
X63313461Y-36994260D01*
G75*
G02*
X63563460Y-37244259I0J-249999D01*
G01*
X63563460Y-38544261D01*
G75*
G02*
X63313461Y-38794260I-249999J0D01*
G01*
X62488459Y-38794260D01*
G75*
G02*
X62238460Y-38544261I0J249999D01*
G01*
G37*
G36*
G01*
X59113460Y-38544261D02*
X59113460Y-37244259D01*
G75*
G02*
X59363459Y-36994260I249999J0D01*
G01*
X60188461Y-36994260D01*
G75*
G02*
X60438460Y-37244259I0J-249999D01*
G01*
X60438460Y-38544261D01*
G75*
G02*
X60188461Y-38794260I-249999J0D01*
G01*
X59363459Y-38794260D01*
G75*
G02*
X59113460Y-38544261I0J249999D01*
G01*
G37*
G04 #@! TD*
G04 #@! TO.C,C2*
G36*
G01*
X19149100Y-34978101D02*
X19149100Y-33678099D01*
G75*
G02*
X19399099Y-33428100I249999J0D01*
G01*
X20224101Y-33428100D01*
G75*
G02*
X20474100Y-33678099I0J-249999D01*
G01*
X20474100Y-34978101D01*
G75*
G02*
X20224101Y-35228100I-249999J0D01*
G01*
X19399099Y-35228100D01*
G75*
G02*
X19149100Y-34978101I0J249999D01*
G01*
G37*
G36*
G01*
X22274100Y-34978101D02*
X22274100Y-33678099D01*
G75*
G02*
X22524099Y-33428100I249999J0D01*
G01*
X23349101Y-33428100D01*
G75*
G02*
X23599100Y-33678099I0J-249999D01*
G01*
X23599100Y-34978101D01*
G75*
G02*
X23349101Y-35228100I-249999J0D01*
G01*
X22524099Y-35228100D01*
G75*
G02*
X22274100Y-34978101I0J249999D01*
G01*
G37*
G04 #@! TD*
G04 #@! TO.C,C3*
G36*
G01*
X30388799Y-29856000D02*
X31688801Y-29856000D01*
G75*
G02*
X31938800Y-30105999I0J-249999D01*
G01*
X31938800Y-30931001D01*
G75*
G02*
X31688801Y-31181000I-249999J0D01*
G01*
X30388799Y-31181000D01*
G75*
G02*
X30138800Y-30931001I0J249999D01*
G01*
X30138800Y-30105999D01*
G75*
G02*
X30388799Y-29856000I249999J0D01*
G01*
G37*
G36*
G01*
X30388799Y-26731000D02*
X31688801Y-26731000D01*
G75*
G02*
X31938800Y-26980999I0J-249999D01*
G01*
X31938800Y-27806001D01*
G75*
G02*
X31688801Y-28056000I-249999J0D01*
G01*
X30388799Y-28056000D01*
G75*
G02*
X30138800Y-27806001I0J249999D01*
G01*
X30138800Y-26980999D01*
G75*
G02*
X30388799Y-26731000I249999J0D01*
G01*
G37*
G04 #@! TD*
G04 #@! TO.C,C4*
G36*
G01*
X35557699Y-26807200D02*
X36857701Y-26807200D01*
G75*
G02*
X37107700Y-27057199I0J-249999D01*
G01*
X37107700Y-27882201D01*
G75*
G02*
X36857701Y-28132200I-249999J0D01*
G01*
X35557699Y-28132200D01*
G75*
G02*
X35307700Y-27882201I0J249999D01*
G01*
X35307700Y-27057199D01*
G75*
G02*
X35557699Y-26807200I249999J0D01*
G01*
G37*
G36*
G01*
X35557699Y-29932200D02*
X36857701Y-29932200D01*
G75*
G02*
X37107700Y-30182199I0J-249999D01*
G01*
X37107700Y-31007201D01*
G75*
G02*
X36857701Y-31257200I-249999J0D01*
G01*
X35557699Y-31257200D01*
G75*
G02*
X35307700Y-31007201I0J249999D01*
G01*
X35307700Y-30182199D01*
G75*
G02*
X35557699Y-29932200I249999J0D01*
G01*
G37*
G04 #@! TD*
G04 #@! TO.C,C6*
G36*
G01*
X34749700Y-33220899D02*
X34749700Y-34520901D01*
G75*
G02*
X34499701Y-34770900I-249999J0D01*
G01*
X33674699Y-34770900D01*
G75*
G02*
X33424700Y-34520901I0J249999D01*
G01*
X33424700Y-33220899D01*
G75*
G02*
X33674699Y-32970900I249999J0D01*
G01*
X34499701Y-32970900D01*
G75*
G02*
X34749700Y-33220899I0J-249999D01*
G01*
G37*
G36*
G01*
X31624700Y-33220899D02*
X31624700Y-34520901D01*
G75*
G02*
X31374701Y-34770900I-249999J0D01*
G01*
X30549699Y-34770900D01*
G75*
G02*
X30299700Y-34520901I0J249999D01*
G01*
X30299700Y-33220899D01*
G75*
G02*
X30549699Y-32970900I249999J0D01*
G01*
X31374701Y-32970900D01*
G75*
G02*
X31624700Y-33220899I0J-249999D01*
G01*
G37*
G04 #@! TD*
G04 #@! TO.C,C7*
G36*
G01*
X31675500Y-45349399D02*
X31675500Y-46649401D01*
G75*
G02*
X31425501Y-46899400I-249999J0D01*
G01*
X30600499Y-46899400D01*
G75*
G02*
X30350500Y-46649401I0J249999D01*
G01*
X30350500Y-45349399D01*
G75*
G02*
X30600499Y-45099400I249999J0D01*
G01*
X31425501Y-45099400D01*
G75*
G02*
X31675500Y-45349399I0J-249999D01*
G01*
G37*
G36*
G01*
X34800500Y-45349399D02*
X34800500Y-46649401D01*
G75*
G02*
X34550501Y-46899400I-249999J0D01*
G01*
X33725499Y-46899400D01*
G75*
G02*
X33475500Y-46649401I0J249999D01*
G01*
X33475500Y-45349399D01*
G75*
G02*
X33725499Y-45099400I249999J0D01*
G01*
X34550501Y-45099400D01*
G75*
G02*
X34800500Y-45349399I0J-249999D01*
G01*
G37*
G04 #@! TD*
D12*
G04 #@! TO.C,D1*
X21475700Y-16522700D03*
D13*
X25285700Y-16522700D03*
G04 #@! TD*
G04 #@! TO.C,F1*
G36*
G01*
X20942500Y-20681101D02*
X20942500Y-19781099D01*
G75*
G02*
X21192499Y-19531100I249999J0D01*
G01*
X21842501Y-19531100D01*
G75*
G02*
X22092500Y-19781099I0J-249999D01*
G01*
X22092500Y-20681101D01*
G75*
G02*
X21842501Y-20931100I-249999J0D01*
G01*
X21192499Y-20931100D01*
G75*
G02*
X20942500Y-20681101I0J249999D01*
G01*
G37*
G36*
G01*
X22992500Y-20681101D02*
X22992500Y-19781099D01*
G75*
G02*
X23242499Y-19531100I249999J0D01*
G01*
X23892501Y-19531100D01*
G75*
G02*
X24142500Y-19781099I0J-249999D01*
G01*
X24142500Y-20681101D01*
G75*
G02*
X23892501Y-20931100I-249999J0D01*
G01*
X23242499Y-20931100D01*
G75*
G02*
X22992500Y-20681101I0J249999D01*
G01*
G37*
G04 #@! TD*
D14*
G04 #@! TO.C,FB1*
X23672800Y-26847800D03*
X18592800Y-26847800D03*
G04 #@! TD*
D15*
G04 #@! TO.C,IC1*
X43363100Y-29877100D03*
X43363100Y-30677100D03*
X43363100Y-31477100D03*
X43363100Y-32277100D03*
X43363100Y-33077100D03*
X43363100Y-33877100D03*
X43363100Y-34677100D03*
X43363100Y-35477100D03*
D16*
X44863100Y-36977100D03*
X45663100Y-36977100D03*
X46463100Y-36977100D03*
X47263100Y-36977100D03*
X48063100Y-36977100D03*
X48863100Y-36977100D03*
X49663100Y-36977100D03*
X50463100Y-36977100D03*
D15*
X51963100Y-35477100D03*
X51963100Y-34677100D03*
X51963100Y-33877100D03*
X51963100Y-33077100D03*
X51963100Y-32277100D03*
X51963100Y-31477100D03*
X51963100Y-30677100D03*
X51963100Y-29877100D03*
D16*
X50463100Y-28377100D03*
X49663100Y-28377100D03*
X48863100Y-28377100D03*
X48063100Y-28377100D03*
X47263100Y-28377100D03*
X46463100Y-28377100D03*
X45663100Y-28377100D03*
X44863100Y-28377100D03*
G04 #@! TD*
D17*
G04 #@! TO.C,P1*
X17729200Y-16878300D03*
D18*
X17729200Y-19418300D03*
G04 #@! TD*
D19*
G04 #@! TO.C,P6*
X65514220Y-44889420D03*
X62974220Y-44889420D03*
D20*
X60434220Y-44889420D03*
G04 #@! TD*
G04 #@! TO.C,P10*
X40220900Y-44894500D03*
D19*
X42760900Y-44894500D03*
X45300900Y-44894500D03*
X47840900Y-44894500D03*
X50380900Y-44894500D03*
X52920900Y-44894500D03*
X55460900Y-44894500D03*
G04 #@! TD*
D10*
G04 #@! TO.C,P12*
X61902340Y-19400520D03*
D11*
X61902340Y-21940520D03*
X61902340Y-24480520D03*
X61902340Y-27020520D03*
X61902340Y-29560520D03*
G04 #@! TD*
D20*
G04 #@! TO.C,P15*
X51015900Y-78562200D03*
D19*
X48475900Y-78562200D03*
X45935900Y-78562200D03*
X43395900Y-78562200D03*
X40855900Y-78562200D03*
X38315900Y-78562200D03*
X35775900Y-78562200D03*
X33235900Y-78562200D03*
X30695900Y-78562200D03*
G04 #@! TD*
D21*
G04 #@! TO.C,R1*
X29197300Y-41979600D03*
X29197300Y-37979600D03*
G04 #@! TD*
G04 #@! TO.C,R6*
X52374800Y-22815300D03*
X52374800Y-18815300D03*
G04 #@! TD*
G04 #@! TO.C,R7*
X47675800Y-18815300D03*
X47675800Y-22815300D03*
G04 #@! TD*
G04 #@! TO.C,R8*
X42824400Y-18764500D03*
X42824400Y-22764500D03*
G04 #@! TD*
D22*
G04 #@! TO.C,U1*
X33223200Y-23152500D03*
D23*
X33223200Y-16852500D03*
X30923200Y-16852500D03*
X35523200Y-16852500D03*
G04 #@! TD*
D11*
G04 #@! TO.C,U2*
X71107300Y-44945300D03*
X71107300Y-42405300D03*
X71107300Y-39865300D03*
X71107300Y-37325300D03*
X71107300Y-34785300D03*
X71107300Y-32245300D03*
X71107300Y-29705300D03*
X71107300Y-27165300D03*
D10*
X71107300Y-24625300D03*
G04 #@! TD*
M02*
