G04 #@! TF.GenerationSoftware,KiCad,Pcbnew,5.99.0+really5.1.10+dfsg1-1*
G04 #@! TF.CreationDate,2022-06-24T16:38:05+05:30*
G04 #@! TF.ProjectId,AB1-4_display,4142312d-345f-4646-9973-706c61792e6b,rev?*
G04 #@! TF.SameCoordinates,Original*
G04 #@! TF.FileFunction,Soldermask,Bot*
G04 #@! TF.FilePolarity,Negative*
%FSLAX46Y46*%
G04 Gerber Fmt 4.6, Leading zero omitted, Abs format (unit mm)*
G04 Created by KiCad (PCBNEW 5.99.0+really5.1.10+dfsg1-1) date 2022-06-24 16:38:05*
%MOMM*%
%LPD*%
G01*
G04 APERTURE LIST*
%ADD10R,2.032000X1.727200*%
%ADD11O,2.032000X1.727200*%
%ADD12C,1.998980*%
%ADD13R,1.998980X1.998980*%
%ADD14C,2.000000*%
%ADD15R,2.032000X2.032000*%
%ADD16O,2.032000X2.032000*%
%ADD17O,1.727200X2.032000*%
%ADD18R,1.727200X2.032000*%
G04 APERTURE END LIST*
D10*
G04 #@! TO.C,Y1*
X32740600Y-37388800D03*
D11*
X32760600Y-42518800D03*
X32690600Y-39988800D03*
G04 #@! TD*
D12*
G04 #@! TO.C,D1*
X21475700Y-16522700D03*
D13*
X25285700Y-16522700D03*
G04 #@! TD*
D14*
G04 #@! TO.C,FB1*
X23672800Y-26847800D03*
X18592800Y-26847800D03*
G04 #@! TD*
D15*
G04 #@! TO.C,P1*
X17729200Y-16878300D03*
D16*
X17729200Y-19418300D03*
G04 #@! TD*
D17*
G04 #@! TO.C,P6*
X65514220Y-44889420D03*
X62974220Y-44889420D03*
D18*
X60434220Y-44889420D03*
G04 #@! TD*
G04 #@! TO.C,P10*
X40220900Y-44894500D03*
D17*
X42760900Y-44894500D03*
X45300900Y-44894500D03*
X47840900Y-44894500D03*
X50380900Y-44894500D03*
X52920900Y-44894500D03*
X55460900Y-44894500D03*
G04 #@! TD*
D10*
G04 #@! TO.C,P12*
X61902340Y-19400520D03*
D11*
X61902340Y-21940520D03*
X61902340Y-24480520D03*
X61902340Y-27020520D03*
X61902340Y-29560520D03*
G04 #@! TD*
D18*
G04 #@! TO.C,P15*
X51015900Y-78562200D03*
D17*
X48475900Y-78562200D03*
X45935900Y-78562200D03*
X43395900Y-78562200D03*
X40855900Y-78562200D03*
X38315900Y-78562200D03*
X35775900Y-78562200D03*
X33235900Y-78562200D03*
X30695900Y-78562200D03*
G04 #@! TD*
D11*
G04 #@! TO.C,U2*
X71107300Y-44945300D03*
X71107300Y-42405300D03*
X71107300Y-39865300D03*
X71107300Y-37325300D03*
X71107300Y-34785300D03*
X71107300Y-32245300D03*
X71107300Y-29705300D03*
X71107300Y-27165300D03*
D10*
X71107300Y-24625300D03*
G04 #@! TD*
M02*
