G04 #@! TF.GenerationSoftware,KiCad,Pcbnew,5.99.0+really5.1.10+dfsg1-1*
G04 #@! TF.CreationDate,2022-06-24T16:38:05+05:30*
G04 #@! TF.ProjectId,AB1-4_display,4142312d-345f-4646-9973-706c61792e6b,rev?*
G04 #@! TF.SameCoordinates,Original*
G04 #@! TF.FileFunction,Legend,Top*
G04 #@! TF.FilePolarity,Positive*
%FSLAX46Y46*%
G04 Gerber Fmt 4.6, Leading zero omitted, Abs format (unit mm)*
G04 Created by KiCad (PCBNEW 5.99.0+really5.1.10+dfsg1-1) date 2022-06-24 16:38:05*
%MOMM*%
%LPD*%
G01*
G04 APERTURE LIST*
%ADD10C,0.150000*%
%ADD11C,0.120000*%
%ADD12C,0.100000*%
%ADD13C,0.152400*%
G04 APERTURE END LIST*
D10*
X73698100Y-82080100D02*
X73698100Y-84378800D01*
X15849600Y-84378800D02*
X73698100Y-84378800D01*
X73698100Y-49352200D02*
X73698100Y-82080100D01*
X15862300Y-49352200D02*
X73698100Y-49352200D01*
X15849600Y-84378800D02*
X15862300Y-49352200D01*
G04 #@! TO.C,Y1*
X31190600Y-35838800D02*
X34290600Y-35838800D01*
X31190600Y-37388800D02*
X31190600Y-35838800D01*
X34010600Y-38658800D02*
X31470600Y-38658800D01*
X34290600Y-35838800D02*
X34290600Y-37388800D01*
X34010600Y-43738800D02*
X34010600Y-38658800D01*
X31470600Y-43738800D02*
X34010600Y-43738800D01*
X31470600Y-38658800D02*
X31470600Y-43738800D01*
D11*
G04 #@! TO.C,C1*
X60627208Y-36984260D02*
X62049712Y-36984260D01*
X60627208Y-38804260D02*
X62049712Y-38804260D01*
G04 #@! TO.C,C2*
X20662848Y-35238100D02*
X22085352Y-35238100D01*
X20662848Y-33418100D02*
X22085352Y-33418100D01*
G04 #@! TO.C,C3*
X31948800Y-28244748D02*
X31948800Y-29667252D01*
X30128800Y-28244748D02*
X30128800Y-29667252D01*
G04 #@! TO.C,C4*
X35297700Y-28320948D02*
X35297700Y-29743452D01*
X37117700Y-28320948D02*
X37117700Y-29743452D01*
G04 #@! TO.C,C6*
X33235952Y-32960900D02*
X31813448Y-32960900D01*
X33235952Y-34780900D02*
X31813448Y-34780900D01*
G04 #@! TO.C,C7*
X33286752Y-46909400D02*
X31864248Y-46909400D01*
X33286752Y-45089400D02*
X31864248Y-45089400D01*
D10*
G04 #@! TO.C,D1*
X22999700Y-17538700D02*
X22999700Y-15506700D01*
X23761700Y-17538700D02*
X23761700Y-15506700D01*
X23761700Y-16522700D02*
X22999700Y-17538700D01*
X23761700Y-16522700D02*
X22999700Y-15506700D01*
D11*
G04 #@! TO.C,F1*
X22281248Y-20941100D02*
X22803752Y-20941100D01*
X22281248Y-19521100D02*
X22803752Y-19521100D01*
G04 #@! TO.C,FB1*
X23657265Y-28867372D02*
G75*
G02*
X18846800Y-29133800I-2524465J2019572D01*
G01*
X18832732Y-24547732D02*
G75*
G02*
X23672800Y-24815800I2300068J-2300068D01*
G01*
X24180800Y-25577800D02*
G75*
G02*
X24180800Y-28117800I-508000J-1270000D01*
G01*
X18084800Y-28117800D02*
G75*
G02*
X18084800Y-25577800I508000J1270000D01*
G01*
D12*
G04 #@! TO.C,IC1*
X43417100Y-28927100D02*
G75*
G03*
X43417100Y-28927100I-254000J0D01*
G01*
D13*
X45279100Y-29933900D02*
G75*
G03*
X45279100Y-29933900I-359200J0D01*
G01*
X44263100Y-29277100D02*
X51063100Y-29277100D01*
X44263100Y-36077100D02*
X44263100Y-29277100D01*
X51063100Y-36077100D02*
X44263100Y-36077100D01*
X51063100Y-29277100D02*
X51063100Y-36077100D01*
D10*
G04 #@! TO.C,P1*
X16459200Y-20688300D02*
X18999200Y-20688300D01*
X16459200Y-18148300D02*
X16459200Y-20688300D01*
X16179200Y-15328300D02*
X19279200Y-15328300D01*
X16179200Y-16878300D02*
X16179200Y-15328300D01*
X18999200Y-18148300D02*
X16459200Y-18148300D01*
X19279200Y-15328300D02*
X19279200Y-16878300D01*
X18999200Y-18148300D02*
X18999200Y-20688300D01*
G04 #@! TO.C,P6*
X61704220Y-46159420D02*
X66784220Y-46159420D01*
X66784220Y-46159420D02*
X66784220Y-43619420D01*
X66784220Y-43619420D02*
X61704220Y-43619420D01*
X58884220Y-43339420D02*
X60434220Y-43339420D01*
X61704220Y-43619420D02*
X61704220Y-46159420D01*
X60434220Y-46439420D02*
X58884220Y-46439420D01*
X58884220Y-46439420D02*
X58884220Y-43339420D01*
G04 #@! TO.C,P10*
X38670900Y-46444500D02*
X38670900Y-43344500D01*
X40220900Y-46444500D02*
X38670900Y-46444500D01*
X41490900Y-43624500D02*
X41490900Y-46164500D01*
X38670900Y-43344500D02*
X40220900Y-43344500D01*
X56730900Y-46164500D02*
X41490900Y-46164500D01*
X56730900Y-43624500D02*
X56730900Y-46164500D01*
X41490900Y-43624500D02*
X56730900Y-43624500D01*
G04 #@! TO.C,P12*
X63172340Y-20670520D02*
X60632340Y-20670520D01*
X60632340Y-30830520D02*
X60632340Y-20670520D01*
X63172340Y-30830520D02*
X60632340Y-30830520D01*
X63172340Y-20670520D02*
X63172340Y-30830520D01*
X63452340Y-17850520D02*
X63452340Y-19400520D01*
X60352340Y-17850520D02*
X63452340Y-17850520D01*
X60352340Y-19400520D02*
X60352340Y-17850520D01*
G04 #@! TO.C,P15*
X52565900Y-77012200D02*
X52565900Y-80112200D01*
X51015900Y-77012200D02*
X52565900Y-77012200D01*
X49745900Y-79832200D02*
X49745900Y-77292200D01*
X52565900Y-80112200D02*
X51015900Y-80112200D01*
X29425900Y-77292200D02*
X49745900Y-77292200D01*
X29425900Y-79832200D02*
X29425900Y-77292200D01*
X49745900Y-79832200D02*
X29425900Y-79832200D01*
G04 #@! TO.C,R1*
X28122300Y-40979600D02*
X28122300Y-38979600D01*
X30272300Y-38979600D02*
X30272300Y-40979600D01*
G04 #@! TO.C,R6*
X51299800Y-21815300D02*
X51299800Y-19815300D01*
X53449800Y-19815300D02*
X53449800Y-21815300D01*
G04 #@! TO.C,R7*
X48750800Y-19815300D02*
X48750800Y-21815300D01*
X46600800Y-21815300D02*
X46600800Y-19815300D01*
G04 #@! TO.C,R8*
X43899400Y-19764500D02*
X43899400Y-21764500D01*
X41749400Y-21764500D02*
X41749400Y-19764500D01*
D11*
G04 #@! TO.C,U1*
X36633200Y-15902500D02*
X36633200Y-21912500D01*
X29813200Y-18152500D02*
X29813200Y-21912500D01*
X36633200Y-21912500D02*
X35373200Y-21912500D01*
X29813200Y-21912500D02*
X31073200Y-21912500D01*
D10*
G04 #@! TO.C,U2*
X72377300Y-25895300D02*
X72377300Y-46215300D01*
X72377300Y-46215300D02*
X69837300Y-46215300D01*
X69837300Y-46215300D02*
X69837300Y-25895300D01*
X72657300Y-23075300D02*
X72657300Y-24625300D01*
X72377300Y-25895300D02*
X69837300Y-25895300D01*
X69557300Y-24625300D02*
X69557300Y-23075300D01*
X69557300Y-23075300D02*
X72657300Y-23075300D01*
G04 #@! TO.C,Y1*
X35239010Y-40625970D02*
X35715200Y-40625970D01*
X34715200Y-40959303D02*
X35239010Y-40625970D01*
X34715200Y-40292637D01*
X35715200Y-39435494D02*
X35715200Y-40006922D01*
X35715200Y-39721208D02*
X34715200Y-39721208D01*
X34858058Y-39816446D01*
X34953296Y-39911684D01*
X35000915Y-40006922D01*
G04 #@! TO.C,C1*
X61171793Y-36401402D02*
X61124174Y-36449021D01*
X60981317Y-36496640D01*
X60886079Y-36496640D01*
X60743221Y-36449021D01*
X60647983Y-36353783D01*
X60600364Y-36258545D01*
X60552745Y-36068069D01*
X60552745Y-35925212D01*
X60600364Y-35734736D01*
X60647983Y-35639498D01*
X60743221Y-35544260D01*
X60886079Y-35496640D01*
X60981317Y-35496640D01*
X61124174Y-35544260D01*
X61171793Y-35591879D01*
X62124174Y-36496640D02*
X61552745Y-36496640D01*
X61838460Y-36496640D02*
X61838460Y-35496640D01*
X61743221Y-35639498D01*
X61647983Y-35734736D01*
X61552745Y-35782355D01*
G04 #@! TO.C,C2*
X21207433Y-32835242D02*
X21159814Y-32882861D01*
X21016957Y-32930480D01*
X20921719Y-32930480D01*
X20778861Y-32882861D01*
X20683623Y-32787623D01*
X20636004Y-32692385D01*
X20588385Y-32501909D01*
X20588385Y-32359052D01*
X20636004Y-32168576D01*
X20683623Y-32073338D01*
X20778861Y-31978100D01*
X20921719Y-31930480D01*
X21016957Y-31930480D01*
X21159814Y-31978100D01*
X21207433Y-32025719D01*
X21588385Y-32025719D02*
X21636004Y-31978100D01*
X21731242Y-31930480D01*
X21969338Y-31930480D01*
X22064576Y-31978100D01*
X22112195Y-32025719D01*
X22159814Y-32120957D01*
X22159814Y-32216195D01*
X22112195Y-32359052D01*
X21540766Y-32930480D01*
X22159814Y-32930480D01*
G04 #@! TO.C,C3*
X29269962Y-29109966D02*
X29317581Y-29157585D01*
X29365200Y-29300442D01*
X29365200Y-29395680D01*
X29317581Y-29538538D01*
X29222343Y-29633776D01*
X29127105Y-29681395D01*
X28936629Y-29729014D01*
X28793772Y-29729014D01*
X28603296Y-29681395D01*
X28508058Y-29633776D01*
X28412820Y-29538538D01*
X28365200Y-29395680D01*
X28365200Y-29300442D01*
X28412820Y-29157585D01*
X28460439Y-29109966D01*
X28365200Y-28776633D02*
X28365200Y-28157585D01*
X28746153Y-28490919D01*
X28746153Y-28348061D01*
X28793772Y-28252823D01*
X28841391Y-28205204D01*
X28936629Y-28157585D01*
X29174724Y-28157585D01*
X29269962Y-28205204D01*
X29317581Y-28252823D01*
X29365200Y-28348061D01*
X29365200Y-28633776D01*
X29317581Y-28729014D01*
X29269962Y-28776633D01*
G04 #@! TO.C,C4*
X38756862Y-29234426D02*
X38804481Y-29282045D01*
X38852100Y-29424902D01*
X38852100Y-29520140D01*
X38804481Y-29662998D01*
X38709243Y-29758236D01*
X38614005Y-29805855D01*
X38423529Y-29853474D01*
X38280672Y-29853474D01*
X38090196Y-29805855D01*
X37994958Y-29758236D01*
X37899720Y-29662998D01*
X37852100Y-29520140D01*
X37852100Y-29424902D01*
X37899720Y-29282045D01*
X37947339Y-29234426D01*
X38185434Y-28377283D02*
X38852100Y-28377283D01*
X37804481Y-28615379D02*
X38518767Y-28853474D01*
X38518767Y-28234426D01*
G04 #@! TO.C,C6*
X32612033Y-32500842D02*
X32564414Y-32548461D01*
X32421557Y-32596080D01*
X32326319Y-32596080D01*
X32183461Y-32548461D01*
X32088223Y-32453223D01*
X32040604Y-32357985D01*
X31992985Y-32167509D01*
X31992985Y-32024652D01*
X32040604Y-31834176D01*
X32088223Y-31738938D01*
X32183461Y-31643700D01*
X32326319Y-31596080D01*
X32421557Y-31596080D01*
X32564414Y-31643700D01*
X32612033Y-31691319D01*
X33469176Y-31596080D02*
X33278700Y-31596080D01*
X33183461Y-31643700D01*
X33135842Y-31691319D01*
X33040604Y-31834176D01*
X32992985Y-32024652D01*
X32992985Y-32405604D01*
X33040604Y-32500842D01*
X33088223Y-32548461D01*
X33183461Y-32596080D01*
X33373938Y-32596080D01*
X33469176Y-32548461D01*
X33516795Y-32500842D01*
X33564414Y-32405604D01*
X33564414Y-32167509D01*
X33516795Y-32072271D01*
X33469176Y-32024652D01*
X33373938Y-31977033D01*
X33183461Y-31977033D01*
X33088223Y-32024652D01*
X33040604Y-32072271D01*
X32992985Y-32167509D01*
G04 #@! TO.C,C7*
X32408833Y-48206542D02*
X32361214Y-48254161D01*
X32218357Y-48301780D01*
X32123119Y-48301780D01*
X31980261Y-48254161D01*
X31885023Y-48158923D01*
X31837404Y-48063685D01*
X31789785Y-47873209D01*
X31789785Y-47730352D01*
X31837404Y-47539876D01*
X31885023Y-47444638D01*
X31980261Y-47349400D01*
X32123119Y-47301780D01*
X32218357Y-47301780D01*
X32361214Y-47349400D01*
X32408833Y-47397019D01*
X32742166Y-47301780D02*
X33408833Y-47301780D01*
X32980261Y-48301780D01*
G04 #@! TO.C,D1*
X26869164Y-17079220D02*
X26869164Y-16079220D01*
X27107260Y-16079220D01*
X27250117Y-16126840D01*
X27345355Y-16222078D01*
X27392974Y-16317316D01*
X27440593Y-16507792D01*
X27440593Y-16650649D01*
X27392974Y-16841125D01*
X27345355Y-16936363D01*
X27250117Y-17031601D01*
X27107260Y-17079220D01*
X26869164Y-17079220D01*
X28392974Y-17079220D02*
X27821545Y-17079220D01*
X28107260Y-17079220D02*
X28107260Y-16079220D01*
X28012021Y-16222078D01*
X27916783Y-16317316D01*
X27821545Y-16364935D01*
G04 #@! TO.C,F1*
X22209166Y-18509671D02*
X21875833Y-18509671D01*
X21875833Y-19033480D02*
X21875833Y-18033480D01*
X22352023Y-18033480D01*
X23256785Y-19033480D02*
X22685357Y-19033480D01*
X22971071Y-19033480D02*
X22971071Y-18033480D01*
X22875833Y-18176338D01*
X22780595Y-18271576D01*
X22685357Y-18319195D01*
G04 #@! TO.C,FB1*
X20304546Y-25204111D02*
X19971213Y-25204111D01*
X19971213Y-25727920D02*
X19971213Y-24727920D01*
X20447403Y-24727920D01*
X21161689Y-25204111D02*
X21304546Y-25251730D01*
X21352165Y-25299349D01*
X21399784Y-25394587D01*
X21399784Y-25537444D01*
X21352165Y-25632682D01*
X21304546Y-25680301D01*
X21209308Y-25727920D01*
X20828356Y-25727920D01*
X20828356Y-24727920D01*
X21161689Y-24727920D01*
X21256927Y-24775540D01*
X21304546Y-24823159D01*
X21352165Y-24918397D01*
X21352165Y-25013635D01*
X21304546Y-25108873D01*
X21256927Y-25156492D01*
X21161689Y-25204111D01*
X20828356Y-25204111D01*
X22352165Y-25727920D02*
X21780737Y-25727920D01*
X22066451Y-25727920D02*
X22066451Y-24727920D01*
X21971213Y-24870778D01*
X21875975Y-24966016D01*
X21780737Y-25013635D01*
G04 #@! TO.C,IC1*
X43493683Y-26929117D02*
X43493683Y-26287878D01*
X44165457Y-26868046D02*
X44134922Y-26898582D01*
X44043317Y-26929117D01*
X43982246Y-26929117D01*
X43890641Y-26898582D01*
X43829570Y-26837511D01*
X43799035Y-26776441D01*
X43768500Y-26654300D01*
X43768500Y-26562695D01*
X43799035Y-26440554D01*
X43829570Y-26379483D01*
X43890641Y-26318413D01*
X43982246Y-26287878D01*
X44043317Y-26287878D01*
X44134922Y-26318413D01*
X44165457Y-26348948D01*
X44776161Y-26929117D02*
X44409739Y-26929117D01*
X44592950Y-26929117D02*
X44592950Y-26287878D01*
X44531880Y-26379483D01*
X44470809Y-26440554D01*
X44409739Y-26471089D01*
G04 #@! TO.C,P1*
X16871724Y-22413220D02*
X16871724Y-21413220D01*
X17252677Y-21413220D01*
X17347915Y-21460840D01*
X17395534Y-21508459D01*
X17443153Y-21603697D01*
X17443153Y-21746554D01*
X17395534Y-21841792D01*
X17347915Y-21889411D01*
X17252677Y-21937030D01*
X16871724Y-21937030D01*
X18395534Y-22413220D02*
X17824105Y-22413220D01*
X18109820Y-22413220D02*
X18109820Y-21413220D01*
X18014581Y-21556078D01*
X17919343Y-21651316D01*
X17824105Y-21698935D01*
G04 #@! TO.C,P6*
X59531024Y-42771320D02*
X59531024Y-41771320D01*
X59911977Y-41771320D01*
X60007215Y-41818940D01*
X60054834Y-41866559D01*
X60102453Y-41961797D01*
X60102453Y-42104654D01*
X60054834Y-42199892D01*
X60007215Y-42247511D01*
X59911977Y-42295130D01*
X59531024Y-42295130D01*
X60959596Y-41771320D02*
X60769120Y-41771320D01*
X60673881Y-41818940D01*
X60626262Y-41866559D01*
X60531024Y-42009416D01*
X60483405Y-42199892D01*
X60483405Y-42580844D01*
X60531024Y-42676082D01*
X60578643Y-42723701D01*
X60673881Y-42771320D01*
X60864358Y-42771320D01*
X60959596Y-42723701D01*
X61007215Y-42676082D01*
X61054834Y-42580844D01*
X61054834Y-42342749D01*
X61007215Y-42247511D01*
X60959596Y-42199892D01*
X60864358Y-42152273D01*
X60673881Y-42152273D01*
X60578643Y-42199892D01*
X60531024Y-42247511D01*
X60483405Y-42342749D01*
G04 #@! TO.C,P10*
X38960894Y-42771320D02*
X38960894Y-41771320D01*
X39341846Y-41771320D01*
X39437084Y-41818940D01*
X39484703Y-41866559D01*
X39532322Y-41961797D01*
X39532322Y-42104654D01*
X39484703Y-42199892D01*
X39437084Y-42247511D01*
X39341846Y-42295130D01*
X38960894Y-42295130D01*
X40484703Y-42771320D02*
X39913275Y-42771320D01*
X40198989Y-42771320D02*
X40198989Y-41771320D01*
X40103751Y-41914178D01*
X40008513Y-42009416D01*
X39913275Y-42057035D01*
X41103751Y-41771320D02*
X41198989Y-41771320D01*
X41294227Y-41818940D01*
X41341846Y-41866559D01*
X41389465Y-41961797D01*
X41437084Y-42152273D01*
X41437084Y-42390368D01*
X41389465Y-42580844D01*
X41341846Y-42676082D01*
X41294227Y-42723701D01*
X41198989Y-42771320D01*
X41103751Y-42771320D01*
X41008513Y-42723701D01*
X40960894Y-42676082D01*
X40913275Y-42580844D01*
X40865656Y-42390368D01*
X40865656Y-42152273D01*
X40913275Y-41961797D01*
X40960894Y-41866559D01*
X41008513Y-41818940D01*
X41103751Y-41771320D01*
G04 #@! TO.C,P12*
X60703294Y-16906500D02*
X60703294Y-15906500D01*
X61084246Y-15906500D01*
X61179484Y-15954120D01*
X61227103Y-16001739D01*
X61274722Y-16096977D01*
X61274722Y-16239834D01*
X61227103Y-16335072D01*
X61179484Y-16382691D01*
X61084246Y-16430310D01*
X60703294Y-16430310D01*
X62227103Y-16906500D02*
X61655675Y-16906500D01*
X61941389Y-16906500D02*
X61941389Y-15906500D01*
X61846151Y-16049358D01*
X61750913Y-16144596D01*
X61655675Y-16192215D01*
X62608056Y-16001739D02*
X62655675Y-15954120D01*
X62750913Y-15906500D01*
X62989008Y-15906500D01*
X63084246Y-15954120D01*
X63131865Y-16001739D01*
X63179484Y-16096977D01*
X63179484Y-16192215D01*
X63131865Y-16335072D01*
X62560437Y-16906500D01*
X63179484Y-16906500D01*
G04 #@! TO.C,P15*
X49788914Y-76322180D02*
X49788914Y-75322180D01*
X50169866Y-75322180D01*
X50265104Y-75369800D01*
X50312723Y-75417419D01*
X50360342Y-75512657D01*
X50360342Y-75655514D01*
X50312723Y-75750752D01*
X50265104Y-75798371D01*
X50169866Y-75845990D01*
X49788914Y-75845990D01*
X51312723Y-76322180D02*
X50741295Y-76322180D01*
X51027009Y-76322180D02*
X51027009Y-75322180D01*
X50931771Y-75465038D01*
X50836533Y-75560276D01*
X50741295Y-75607895D01*
X52217485Y-75322180D02*
X51741295Y-75322180D01*
X51693676Y-75798371D01*
X51741295Y-75750752D01*
X51836533Y-75703133D01*
X52074628Y-75703133D01*
X52169866Y-75750752D01*
X52217485Y-75798371D01*
X52265104Y-75893609D01*
X52265104Y-76131704D01*
X52217485Y-76226942D01*
X52169866Y-76274561D01*
X52074628Y-76322180D01*
X51836533Y-76322180D01*
X51741295Y-76274561D01*
X51693676Y-76226942D01*
G04 #@! TO.C,R1*
X27349680Y-40146266D02*
X26873490Y-40479600D01*
X27349680Y-40717695D02*
X26349680Y-40717695D01*
X26349680Y-40336742D01*
X26397300Y-40241504D01*
X26444919Y-40193885D01*
X26540157Y-40146266D01*
X26683014Y-40146266D01*
X26778252Y-40193885D01*
X26825871Y-40241504D01*
X26873490Y-40336742D01*
X26873490Y-40717695D01*
X27349680Y-39193885D02*
X27349680Y-39765314D01*
X27349680Y-39479600D02*
X26349680Y-39479600D01*
X26492538Y-39574838D01*
X26587776Y-39670076D01*
X26635395Y-39765314D01*
G04 #@! TO.C,R6*
X51006000Y-21284226D02*
X50529810Y-21617560D01*
X51006000Y-21855655D02*
X50006000Y-21855655D01*
X50006000Y-21474702D01*
X50053620Y-21379464D01*
X50101239Y-21331845D01*
X50196477Y-21284226D01*
X50339334Y-21284226D01*
X50434572Y-21331845D01*
X50482191Y-21379464D01*
X50529810Y-21474702D01*
X50529810Y-21855655D01*
X50006000Y-20427083D02*
X50006000Y-20617560D01*
X50053620Y-20712798D01*
X50101239Y-20760417D01*
X50244096Y-20855655D01*
X50434572Y-20903274D01*
X50815524Y-20903274D01*
X50910762Y-20855655D01*
X50958381Y-20808036D01*
X51006000Y-20712798D01*
X51006000Y-20522321D01*
X50958381Y-20427083D01*
X50910762Y-20379464D01*
X50815524Y-20331845D01*
X50577429Y-20331845D01*
X50482191Y-20379464D01*
X50434572Y-20427083D01*
X50386953Y-20522321D01*
X50386953Y-20712798D01*
X50434572Y-20808036D01*
X50482191Y-20855655D01*
X50577429Y-20903274D01*
G04 #@! TO.C,R7*
X46322240Y-21075946D02*
X45846050Y-21409280D01*
X46322240Y-21647375D02*
X45322240Y-21647375D01*
X45322240Y-21266422D01*
X45369860Y-21171184D01*
X45417479Y-21123565D01*
X45512717Y-21075946D01*
X45655574Y-21075946D01*
X45750812Y-21123565D01*
X45798431Y-21171184D01*
X45846050Y-21266422D01*
X45846050Y-21647375D01*
X45322240Y-20742613D02*
X45322240Y-20075946D01*
X46322240Y-20504518D01*
G04 #@! TO.C,R8*
X41300660Y-20971806D02*
X40824470Y-21305140D01*
X41300660Y-21543235D02*
X40300660Y-21543235D01*
X40300660Y-21162282D01*
X40348280Y-21067044D01*
X40395899Y-21019425D01*
X40491137Y-20971806D01*
X40633994Y-20971806D01*
X40729232Y-21019425D01*
X40776851Y-21067044D01*
X40824470Y-21162282D01*
X40824470Y-21543235D01*
X40729232Y-20400378D02*
X40681613Y-20495616D01*
X40633994Y-20543235D01*
X40538756Y-20590854D01*
X40491137Y-20590854D01*
X40395899Y-20543235D01*
X40348280Y-20495616D01*
X40300660Y-20400378D01*
X40300660Y-20209901D01*
X40348280Y-20114663D01*
X40395899Y-20067044D01*
X40491137Y-20019425D01*
X40538756Y-20019425D01*
X40633994Y-20067044D01*
X40681613Y-20114663D01*
X40729232Y-20209901D01*
X40729232Y-20400378D01*
X40776851Y-20495616D01*
X40824470Y-20543235D01*
X40919708Y-20590854D01*
X41110184Y-20590854D01*
X41205422Y-20543235D01*
X41253041Y-20495616D01*
X41300660Y-20400378D01*
X41300660Y-20209901D01*
X41253041Y-20114663D01*
X41205422Y-20067044D01*
X41110184Y-20019425D01*
X40919708Y-20019425D01*
X40824470Y-20067044D01*
X40776851Y-20114663D01*
X40729232Y-20209901D01*
G04 #@! TO.C,U1*
X37175580Y-20764404D02*
X37985104Y-20764404D01*
X38080342Y-20716785D01*
X38127961Y-20669166D01*
X38175580Y-20573928D01*
X38175580Y-20383452D01*
X38127961Y-20288214D01*
X38080342Y-20240595D01*
X37985104Y-20192976D01*
X37175580Y-20192976D01*
X38175580Y-19192976D02*
X38175580Y-19764404D01*
X38175580Y-19478690D02*
X37175580Y-19478690D01*
X37318438Y-19573928D01*
X37413676Y-19669166D01*
X37461295Y-19764404D01*
G04 #@! TO.C,U2*
X70363175Y-21202400D02*
X70363175Y-22011924D01*
X70410794Y-22107162D01*
X70458413Y-22154781D01*
X70553651Y-22202400D01*
X70744127Y-22202400D01*
X70839365Y-22154781D01*
X70886984Y-22107162D01*
X70934603Y-22011924D01*
X70934603Y-21202400D01*
X71363175Y-21297639D02*
X71410794Y-21250020D01*
X71506032Y-21202400D01*
X71744127Y-21202400D01*
X71839365Y-21250020D01*
X71886984Y-21297639D01*
X71934603Y-21392877D01*
X71934603Y-21488115D01*
X71886984Y-21630972D01*
X71315556Y-22202400D01*
X71934603Y-22202400D01*
G04 #@! TD*
M02*
