G04 #@! TF.GenerationSoftware,KiCad,Pcbnew,5.99.0+really5.1.10+dfsg1-1*
G04 #@! TF.CreationDate,2022-06-24T16:38:05+05:30*
G04 #@! TF.ProjectId,AB1-4_display,4142312d-345f-4646-9973-706c61792e6b,rev?*
G04 #@! TF.SameCoordinates,Original*
G04 #@! TF.FileFunction,Copper,L2,Bot*
G04 #@! TF.FilePolarity,Positive*
%FSLAX46Y46*%
G04 Gerber Fmt 4.6, Leading zero omitted, Abs format (unit mm)*
G04 Created by KiCad (PCBNEW 5.99.0+really5.1.10+dfsg1-1) date 2022-06-24 16:38:05*
%MOMM*%
%LPD*%
G01*
G04 APERTURE LIST*
G04 #@! TA.AperFunction,ComponentPad*
%ADD10R,2.032000X1.727200*%
G04 #@! TD*
G04 #@! TA.AperFunction,ComponentPad*
%ADD11O,2.032000X1.727200*%
G04 #@! TD*
G04 #@! TA.AperFunction,ComponentPad*
%ADD12C,1.998980*%
G04 #@! TD*
G04 #@! TA.AperFunction,ComponentPad*
%ADD13R,1.998980X1.998980*%
G04 #@! TD*
G04 #@! TA.AperFunction,ComponentPad*
%ADD14C,2.000000*%
G04 #@! TD*
G04 #@! TA.AperFunction,ComponentPad*
%ADD15R,2.032000X2.032000*%
G04 #@! TD*
G04 #@! TA.AperFunction,ComponentPad*
%ADD16O,2.032000X2.032000*%
G04 #@! TD*
G04 #@! TA.AperFunction,ComponentPad*
%ADD17O,1.727200X2.032000*%
G04 #@! TD*
G04 #@! TA.AperFunction,ComponentPad*
%ADD18R,1.727200X2.032000*%
G04 #@! TD*
G04 #@! TA.AperFunction,ViaPad*
%ADD19C,0.800000*%
G04 #@! TD*
G04 #@! TA.AperFunction,Conductor*
%ADD20C,0.300000*%
G04 #@! TD*
G04 #@! TA.AperFunction,Conductor*
%ADD21C,0.254000*%
G04 #@! TD*
G04 #@! TA.AperFunction,Conductor*
%ADD22C,0.100000*%
G04 #@! TD*
G04 APERTURE END LIST*
D10*
G04 #@! TO.P,Y1,1*
G04 #@! TO.N,/XTAL1*
X32740600Y-37388800D03*
D11*
G04 #@! TO.P,Y1,2*
G04 #@! TO.N,/XTAL2*
X32760600Y-42518800D03*
G04 #@! TO.P,Y1,3*
G04 #@! TO.N,N/C*
X32690600Y-39988800D03*
G04 #@! TD*
D12*
G04 #@! TO.P,D1,2*
G04 #@! TO.N,/VCC_raw*
X21475700Y-16522700D03*
D13*
G04 #@! TO.P,D1,1*
G04 #@! TO.N,Net-(D1-Pad1)*
X25285700Y-16522700D03*
G04 #@! TD*
D14*
G04 #@! TO.P,FB1,2*
G04 #@! TO.N,Net-(F1-Pad2)*
X23672800Y-26847800D03*
G04 #@! TO.P,FB1,1*
G04 #@! TO.N,/VCC5*
X18592800Y-26847800D03*
G04 #@! TD*
D15*
G04 #@! TO.P,P1,1*
G04 #@! TO.N,/VCC_raw*
X17729200Y-16878300D03*
D16*
G04 #@! TO.P,P1,2*
G04 #@! TO.N,/GND*
X17729200Y-19418300D03*
G04 #@! TD*
D17*
G04 #@! TO.P,P6,3*
G04 #@! TO.N,/RX2*
X65514220Y-44889420D03*
G04 #@! TO.P,P6,2*
G04 #@! TO.N,/TX2*
X62974220Y-44889420D03*
D18*
G04 #@! TO.P,P6,1*
G04 #@! TO.N,/GND*
X60434220Y-44889420D03*
G04 #@! TD*
G04 #@! TO.P,P10,1*
G04 #@! TO.N,/RX2*
X40220900Y-44894500D03*
D17*
G04 #@! TO.P,P10,2*
G04 #@! TO.N,/TX2*
X42760900Y-44894500D03*
G04 #@! TO.P,P10,3*
G04 #@! TO.N,/GND*
X45300900Y-44894500D03*
G04 #@! TO.P,P10,4*
G04 #@! TO.N,Net-(P10-Pad4)*
X47840900Y-44894500D03*
G04 #@! TO.P,P10,5*
G04 #@! TO.N,/VCC5*
X50380900Y-44894500D03*
G04 #@! TO.P,P10,6*
G04 #@! TO.N,Net-(P10-Pad6)*
X52920900Y-44894500D03*
G04 #@! TO.P,P10,7*
G04 #@! TO.N,/A2/CTL*
X55460900Y-44894500D03*
G04 #@! TD*
D10*
G04 #@! TO.P,P12,1*
G04 #@! TO.N,/RST*
X61902340Y-19400520D03*
D11*
G04 #@! TO.P,P12,2*
G04 #@! TO.N,/D11*
X61902340Y-21940520D03*
G04 #@! TO.P,P12,3*
G04 #@! TO.N,/D12*
X61902340Y-24480520D03*
G04 #@! TO.P,P12,4*
G04 #@! TO.N,/D13*
X61902340Y-27020520D03*
G04 #@! TO.P,P12,5*
G04 #@! TO.N,/GND*
X61902340Y-29560520D03*
G04 #@! TD*
D18*
G04 #@! TO.P,P15,1*
G04 #@! TO.N,Net-(P15-Pad1)*
X51015900Y-78562200D03*
D17*
G04 #@! TO.P,P15,2*
G04 #@! TO.N,Net-(P15-Pad2)*
X48475900Y-78562200D03*
G04 #@! TO.P,P15,3*
G04 #@! TO.N,Net-(P15-Pad3)*
X45935900Y-78562200D03*
G04 #@! TO.P,P15,4*
G04 #@! TO.N,/D7/CO2_O*
X43395900Y-78562200D03*
G04 #@! TO.P,P15,5*
G04 #@! TO.N,Net-(P15-Pad5)*
X40855900Y-78562200D03*
G04 #@! TO.P,P15,6*
G04 #@! TO.N,/GND*
X38315900Y-78562200D03*
G04 #@! TO.P,P15,7*
G04 #@! TO.N,/VCC5*
X35775900Y-78562200D03*
G04 #@! TO.P,P15,8*
G04 #@! TO.N,Net-(P15-Pad8)*
X33235900Y-78562200D03*
G04 #@! TO.P,P15,9*
G04 #@! TO.N,Net-(P15-Pad9)*
X30695900Y-78562200D03*
G04 #@! TD*
D11*
G04 #@! TO.P,U2,9*
G04 #@! TO.N,/D12*
X71107300Y-44945300D03*
G04 #@! TO.P,U2,8*
G04 #@! TO.N,/VCC3v3*
X71107300Y-42405300D03*
G04 #@! TO.P,U2,7*
G04 #@! TO.N,/D13*
X71107300Y-39865300D03*
G04 #@! TO.P,U2,6*
G04 #@! TO.N,/D11*
X71107300Y-37325300D03*
G04 #@! TO.P,U2,5*
G04 #@! TO.N,/D5*
X71107300Y-34785300D03*
G04 #@! TO.P,U2,4*
G04 #@! TO.N,/D6*
X71107300Y-32245300D03*
G04 #@! TO.P,U2,3*
G04 #@! TO.N,/D10*
X71107300Y-29705300D03*
G04 #@! TO.P,U2,2*
G04 #@! TO.N,/GND*
X71107300Y-27165300D03*
D10*
G04 #@! TO.P,U2,1*
G04 #@! TO.N,/VCC3v3*
X71107300Y-24625300D03*
G04 #@! TD*
D19*
G04 #@! TO.N,/GND*
X40952420Y-26431240D03*
X63654940Y-34843720D03*
X39702740Y-32979360D03*
G04 #@! TO.N,/D5*
X38112700Y-39547800D03*
G04 #@! TO.N,/D6*
X41328340Y-55526940D03*
X66776600Y-52384960D03*
X68148200Y-38092380D03*
G04 #@! TO.N,/RX2*
X48846740Y-47650400D03*
G04 #@! TO.N,/D10*
X65488820Y-36019740D03*
G04 #@! TO.N,/D11*
X65763140Y-39217600D03*
G04 #@! TO.N,/D12*
X54759860Y-37381180D03*
G04 #@! TO.N,/D13*
X56067040Y-35477100D03*
X62354460Y-33489900D03*
G04 #@! TD*
D20*
G04 #@! TO.N,/D5*
X71107300Y-34785300D02*
X72290940Y-34785300D01*
X72290940Y-34785300D02*
X73174860Y-35669220D01*
X73174860Y-35669220D02*
X73174860Y-48610520D01*
X73174860Y-48610520D02*
X71437500Y-50347880D01*
X71437500Y-50347880D02*
X38069520Y-50347880D01*
X38069520Y-50347880D02*
X36245800Y-48524160D01*
X36245800Y-48524160D02*
X36245800Y-40807640D01*
X36245800Y-40807640D02*
X37287200Y-39766240D01*
X37287200Y-39766240D02*
X37894260Y-39766240D01*
X37894260Y-39766240D02*
X38112700Y-39547800D01*
X38112700Y-39547800D02*
X38112700Y-39547800D01*
G04 #@! TO.N,/D6*
X71107300Y-32245300D02*
X70601840Y-32245300D01*
X70601840Y-32245300D02*
X68148200Y-34698940D01*
X68148200Y-34698940D02*
X68148200Y-38092380D01*
X68148200Y-38092380D02*
X68148200Y-38092380D01*
X41328340Y-55526940D02*
X63817500Y-55526940D01*
X63817500Y-55526940D02*
X66776600Y-52567840D01*
X66776600Y-52567840D02*
X66776600Y-52384960D01*
X66776600Y-52384960D02*
X66776600Y-52384960D01*
X68148200Y-38092380D02*
X68148200Y-38092380D01*
G04 #@! TO.N,/RX2*
X62753240Y-47650400D02*
X65514220Y-44889420D01*
X48846740Y-47650400D02*
X62753240Y-47650400D01*
G04 #@! TO.N,/D10*
X65488820Y-36019740D02*
X65488820Y-33367980D01*
X69151500Y-29705300D02*
X71107300Y-29705300D01*
X65488820Y-33367980D02*
X69151500Y-29705300D01*
G04 #@! TO.N,/D11*
X66163139Y-39617599D02*
X68708321Y-39617599D01*
X65763140Y-39217600D02*
X66163139Y-39617599D01*
X71000620Y-37325300D02*
X71107300Y-37325300D01*
X68708321Y-39617599D02*
X71000620Y-37325300D01*
G04 #@! TO.N,/D12*
X54759860Y-37381180D02*
X54759860Y-29385260D01*
X59664600Y-24480520D02*
X61902340Y-24480520D01*
X54759860Y-29385260D02*
X59664600Y-24480520D01*
X54759860Y-37381180D02*
X56393080Y-39014400D01*
X56393080Y-39014400D02*
X64218820Y-39014400D01*
X70149720Y-44945300D02*
X71107300Y-44945300D01*
X64218820Y-39014400D02*
X70149720Y-44945300D01*
G04 #@! TO.N,/D13*
X56067040Y-35477100D02*
X59112500Y-35477100D01*
X59112500Y-35477100D02*
X61099700Y-33489900D01*
X61099700Y-33489900D02*
X62354460Y-33489900D01*
X62354460Y-33489900D02*
X62354460Y-33489900D01*
G04 #@! TD*
D21*
G04 #@! TO.N,/GND*
X73578720Y-34962923D02*
X72873287Y-34257490D01*
X72848704Y-34227536D01*
X72729173Y-34129438D01*
X72592800Y-34056546D01*
X72564892Y-34048080D01*
X72511769Y-33948694D01*
X72324497Y-33720503D01*
X72096306Y-33533231D01*
X72062760Y-33515300D01*
X72096306Y-33497369D01*
X72324497Y-33310097D01*
X72511769Y-33081906D01*
X72650925Y-32821564D01*
X72736616Y-32539077D01*
X72765551Y-32245300D01*
X72736616Y-31951523D01*
X72650925Y-31669036D01*
X72511769Y-31408694D01*
X72324497Y-31180503D01*
X72096306Y-30993231D01*
X72062760Y-30975300D01*
X72096306Y-30957369D01*
X72324497Y-30770097D01*
X72511769Y-30541906D01*
X72650925Y-30281564D01*
X72736616Y-29999077D01*
X72765551Y-29705300D01*
X72736616Y-29411523D01*
X72650925Y-29129036D01*
X72511769Y-28868694D01*
X72324497Y-28640503D01*
X72096306Y-28453231D01*
X72056353Y-28431876D01*
X72259029Y-28283786D01*
X72458033Y-28067335D01*
X72610986Y-27816219D01*
X72712009Y-27540089D01*
X72714658Y-27524326D01*
X72593517Y-27292300D01*
X71234300Y-27292300D01*
X71234300Y-27312300D01*
X70980300Y-27312300D01*
X70980300Y-27292300D01*
X69621083Y-27292300D01*
X69499942Y-27524326D01*
X69502591Y-27540089D01*
X69603614Y-27816219D01*
X69756567Y-28067335D01*
X69955571Y-28283786D01*
X70158247Y-28431876D01*
X70118294Y-28453231D01*
X69890103Y-28640503D01*
X69702831Y-28868694D01*
X69675247Y-28920300D01*
X69190056Y-28920300D01*
X69151500Y-28916503D01*
X69112944Y-28920300D01*
X69112939Y-28920300D01*
X69072526Y-28924280D01*
X68997613Y-28931658D01*
X68849640Y-28976546D01*
X68713267Y-29049438D01*
X68593736Y-29147536D01*
X68569153Y-29177490D01*
X64961005Y-32785638D01*
X64931057Y-32810216D01*
X64906479Y-32840164D01*
X64906475Y-32840168D01*
X64873510Y-32880336D01*
X64832959Y-32929747D01*
X64809277Y-32974054D01*
X64760066Y-33066121D01*
X64715179Y-33214094D01*
X64700023Y-33367980D01*
X64703821Y-33406543D01*
X64703820Y-35341029D01*
X64684883Y-35359966D01*
X64571615Y-35529484D01*
X64493594Y-35717842D01*
X64453820Y-35917801D01*
X64453820Y-36121679D01*
X64493594Y-36321638D01*
X64571615Y-36509996D01*
X64684883Y-36679514D01*
X64829046Y-36823677D01*
X64998564Y-36936945D01*
X65186922Y-37014966D01*
X65386881Y-37054740D01*
X65590759Y-37054740D01*
X65790718Y-37014966D01*
X65979076Y-36936945D01*
X66148594Y-36823677D01*
X66292757Y-36679514D01*
X66406025Y-36509996D01*
X66484046Y-36321638D01*
X66523820Y-36121679D01*
X66523820Y-35917801D01*
X66484046Y-35717842D01*
X66406025Y-35529484D01*
X66292757Y-35359966D01*
X66273820Y-35341029D01*
X66273820Y-33693137D01*
X69476657Y-30490300D01*
X69675247Y-30490300D01*
X69702831Y-30541906D01*
X69890103Y-30770097D01*
X70118294Y-30957369D01*
X70151840Y-30975300D01*
X70118294Y-30993231D01*
X69890103Y-31180503D01*
X69702831Y-31408694D01*
X69563675Y-31669036D01*
X69477984Y-31951523D01*
X69449049Y-32245300D01*
X69452872Y-32284111D01*
X67620390Y-34116593D01*
X67590436Y-34141176D01*
X67492338Y-34260708D01*
X67419446Y-34397081D01*
X67374559Y-34545054D01*
X67363200Y-34660380D01*
X67363200Y-34660387D01*
X67359403Y-34698940D01*
X67363200Y-34737493D01*
X67363201Y-37413668D01*
X67344263Y-37432606D01*
X67230995Y-37602124D01*
X67152974Y-37790482D01*
X67113200Y-37990441D01*
X67113200Y-38194319D01*
X67152974Y-38394278D01*
X67230995Y-38582636D01*
X67344263Y-38752154D01*
X67424708Y-38832599D01*
X66723943Y-38832599D01*
X66680345Y-38727344D01*
X66567077Y-38557826D01*
X66422914Y-38413663D01*
X66253396Y-38300395D01*
X66065038Y-38222374D01*
X65865079Y-38182600D01*
X65661201Y-38182600D01*
X65461242Y-38222374D01*
X65272884Y-38300395D01*
X65103366Y-38413663D01*
X64959203Y-38557826D01*
X64924436Y-38609859D01*
X64801165Y-38486588D01*
X64776584Y-38456636D01*
X64657053Y-38358538D01*
X64520680Y-38285646D01*
X64372707Y-38240759D01*
X64257381Y-38229400D01*
X64257373Y-38229400D01*
X64218820Y-38225603D01*
X64180267Y-38229400D01*
X56718237Y-38229400D01*
X55794860Y-37306023D01*
X55794860Y-37279241D01*
X55755086Y-37079282D01*
X55677065Y-36890924D01*
X55563797Y-36721406D01*
X55544860Y-36702469D01*
X55544860Y-36372974D01*
X55576784Y-36394305D01*
X55765142Y-36472326D01*
X55965101Y-36512100D01*
X56168979Y-36512100D01*
X56368938Y-36472326D01*
X56557296Y-36394305D01*
X56726814Y-36281037D01*
X56745751Y-36262100D01*
X59073947Y-36262100D01*
X59112500Y-36265897D01*
X59151053Y-36262100D01*
X59151061Y-36262100D01*
X59266387Y-36250741D01*
X59414360Y-36205854D01*
X59550733Y-36132962D01*
X59670264Y-36034864D01*
X59694847Y-36004910D01*
X61424858Y-34274900D01*
X61675749Y-34274900D01*
X61694686Y-34293837D01*
X61864204Y-34407105D01*
X62052562Y-34485126D01*
X62252521Y-34524900D01*
X62456399Y-34524900D01*
X62656358Y-34485126D01*
X62844716Y-34407105D01*
X63014234Y-34293837D01*
X63158397Y-34149674D01*
X63271665Y-33980156D01*
X63349686Y-33791798D01*
X63389460Y-33591839D01*
X63389460Y-33387961D01*
X63349686Y-33188002D01*
X63271665Y-32999644D01*
X63158397Y-32830126D01*
X63014234Y-32685963D01*
X62844716Y-32572695D01*
X62656358Y-32494674D01*
X62456399Y-32454900D01*
X62252521Y-32454900D01*
X62052562Y-32494674D01*
X61864204Y-32572695D01*
X61694686Y-32685963D01*
X61675749Y-32704900D01*
X61138252Y-32704900D01*
X61099699Y-32701103D01*
X61061146Y-32704900D01*
X61061139Y-32704900D01*
X60960190Y-32714843D01*
X60945812Y-32716259D01*
X60797840Y-32761146D01*
X60661467Y-32834038D01*
X60601259Y-32883450D01*
X60571887Y-32907555D01*
X60571884Y-32907558D01*
X60541936Y-32932136D01*
X60517358Y-32962084D01*
X58787343Y-34692100D01*
X56745751Y-34692100D01*
X56726814Y-34673163D01*
X56557296Y-34559895D01*
X56368938Y-34481874D01*
X56168979Y-34442100D01*
X55965101Y-34442100D01*
X55765142Y-34481874D01*
X55576784Y-34559895D01*
X55544860Y-34581226D01*
X55544860Y-29919546D01*
X60294982Y-29919546D01*
X60297631Y-29935309D01*
X60398654Y-30211439D01*
X60551607Y-30462555D01*
X60750611Y-30679006D01*
X60988019Y-30852474D01*
X61254707Y-30976293D01*
X61540426Y-31045705D01*
X61775340Y-30901445D01*
X61775340Y-29687520D01*
X62029340Y-29687520D01*
X62029340Y-30901445D01*
X62264254Y-31045705D01*
X62549973Y-30976293D01*
X62816661Y-30852474D01*
X63054069Y-30679006D01*
X63253073Y-30462555D01*
X63406026Y-30211439D01*
X63507049Y-29935309D01*
X63509698Y-29919546D01*
X63388557Y-29687520D01*
X62029340Y-29687520D01*
X61775340Y-29687520D01*
X60416123Y-29687520D01*
X60294982Y-29919546D01*
X55544860Y-29919546D01*
X55544860Y-29710417D01*
X59989757Y-25265520D01*
X60470287Y-25265520D01*
X60497871Y-25317126D01*
X60685143Y-25545317D01*
X60913334Y-25732589D01*
X60946880Y-25750520D01*
X60913334Y-25768451D01*
X60685143Y-25955723D01*
X60497871Y-26183914D01*
X60358715Y-26444256D01*
X60273024Y-26726743D01*
X60244089Y-27020520D01*
X60273024Y-27314297D01*
X60358715Y-27596784D01*
X60497871Y-27857126D01*
X60685143Y-28085317D01*
X60913334Y-28272589D01*
X60953287Y-28293944D01*
X60750611Y-28442034D01*
X60551607Y-28658485D01*
X60398654Y-28909601D01*
X60297631Y-29185731D01*
X60294982Y-29201494D01*
X60416123Y-29433520D01*
X61775340Y-29433520D01*
X61775340Y-29413520D01*
X62029340Y-29413520D01*
X62029340Y-29433520D01*
X63388557Y-29433520D01*
X63509698Y-29201494D01*
X63507049Y-29185731D01*
X63406026Y-28909601D01*
X63253073Y-28658485D01*
X63054069Y-28442034D01*
X62851393Y-28293944D01*
X62891346Y-28272589D01*
X63119537Y-28085317D01*
X63306809Y-27857126D01*
X63445965Y-27596784D01*
X63531656Y-27314297D01*
X63560591Y-27020520D01*
X63531656Y-26726743D01*
X63445965Y-26444256D01*
X63306809Y-26183914D01*
X63119537Y-25955723D01*
X62891346Y-25768451D01*
X62857800Y-25750520D01*
X62891346Y-25732589D01*
X63119537Y-25545317D01*
X63306809Y-25317126D01*
X63445965Y-25056784D01*
X63531656Y-24774297D01*
X63560591Y-24480520D01*
X63531656Y-24186743D01*
X63445965Y-23904256D01*
X63369768Y-23761700D01*
X69453228Y-23761700D01*
X69453228Y-25488900D01*
X69465488Y-25613382D01*
X69501798Y-25733080D01*
X69560763Y-25843394D01*
X69640115Y-25940085D01*
X69736806Y-26019437D01*
X69847120Y-26078402D01*
X69909212Y-26097237D01*
X69756567Y-26263265D01*
X69603614Y-26514381D01*
X69502591Y-26790511D01*
X69499942Y-26806274D01*
X69621083Y-27038300D01*
X70980300Y-27038300D01*
X70980300Y-27018300D01*
X71234300Y-27018300D01*
X71234300Y-27038300D01*
X72593517Y-27038300D01*
X72714658Y-26806274D01*
X72712009Y-26790511D01*
X72610986Y-26514381D01*
X72458033Y-26263265D01*
X72305388Y-26097237D01*
X72367480Y-26078402D01*
X72477794Y-26019437D01*
X72574485Y-25940085D01*
X72653837Y-25843394D01*
X72712802Y-25733080D01*
X72749112Y-25613382D01*
X72761372Y-25488900D01*
X72761372Y-23761700D01*
X72749112Y-23637218D01*
X72712802Y-23517520D01*
X72653837Y-23407206D01*
X72574485Y-23310515D01*
X72477794Y-23231163D01*
X72367480Y-23172198D01*
X72247782Y-23135888D01*
X72123300Y-23123628D01*
X70091300Y-23123628D01*
X69966818Y-23135888D01*
X69847120Y-23172198D01*
X69736806Y-23231163D01*
X69640115Y-23310515D01*
X69560763Y-23407206D01*
X69501798Y-23517520D01*
X69465488Y-23637218D01*
X69453228Y-23761700D01*
X63369768Y-23761700D01*
X63306809Y-23643914D01*
X63119537Y-23415723D01*
X62891346Y-23228451D01*
X62857800Y-23210520D01*
X62891346Y-23192589D01*
X63119537Y-23005317D01*
X63306809Y-22777126D01*
X63445965Y-22516784D01*
X63531656Y-22234297D01*
X63560591Y-21940520D01*
X63531656Y-21646743D01*
X63445965Y-21364256D01*
X63306809Y-21103914D01*
X63119537Y-20875723D01*
X63111475Y-20869106D01*
X63162520Y-20853622D01*
X63272834Y-20794657D01*
X63369525Y-20715305D01*
X63448877Y-20618614D01*
X63507842Y-20508300D01*
X63544152Y-20388602D01*
X63556412Y-20264120D01*
X63556412Y-18536920D01*
X63544152Y-18412438D01*
X63507842Y-18292740D01*
X63448877Y-18182426D01*
X63369525Y-18085735D01*
X63272834Y-18006383D01*
X63162520Y-17947418D01*
X63042822Y-17911108D01*
X62918340Y-17898848D01*
X60886340Y-17898848D01*
X60761858Y-17911108D01*
X60642160Y-17947418D01*
X60531846Y-18006383D01*
X60435155Y-18085735D01*
X60355803Y-18182426D01*
X60296838Y-18292740D01*
X60260528Y-18412438D01*
X60248268Y-18536920D01*
X60248268Y-20264120D01*
X60260528Y-20388602D01*
X60296838Y-20508300D01*
X60355803Y-20618614D01*
X60435155Y-20715305D01*
X60531846Y-20794657D01*
X60642160Y-20853622D01*
X60693205Y-20869106D01*
X60685143Y-20875723D01*
X60497871Y-21103914D01*
X60358715Y-21364256D01*
X60273024Y-21646743D01*
X60244089Y-21940520D01*
X60273024Y-22234297D01*
X60358715Y-22516784D01*
X60497871Y-22777126D01*
X60685143Y-23005317D01*
X60913334Y-23192589D01*
X60946880Y-23210520D01*
X60913334Y-23228451D01*
X60685143Y-23415723D01*
X60497871Y-23643914D01*
X60470287Y-23695520D01*
X59703156Y-23695520D01*
X59664600Y-23691723D01*
X59626044Y-23695520D01*
X59626039Y-23695520D01*
X59585626Y-23699500D01*
X59510713Y-23706878D01*
X59362740Y-23751766D01*
X59226367Y-23824658D01*
X59106836Y-23922756D01*
X59082253Y-23952710D01*
X54510940Y-28524023D01*
X54510940Y-26349960D01*
X54508500Y-26325184D01*
X54501273Y-26301359D01*
X54489537Y-26279403D01*
X54473743Y-26260157D01*
X54454497Y-26244363D01*
X54432541Y-26232627D01*
X54408716Y-26225400D01*
X54383940Y-26222960D01*
X41864280Y-26222960D01*
X41839504Y-26225400D01*
X41815679Y-26232627D01*
X41793723Y-26244363D01*
X41774477Y-26260157D01*
X41758683Y-26279403D01*
X41746947Y-26301359D01*
X41739720Y-26325184D01*
X41737280Y-26349960D01*
X41737280Y-38765480D01*
X41739720Y-38790256D01*
X41746947Y-38814081D01*
X41758683Y-38836037D01*
X41774477Y-38855283D01*
X41793723Y-38871077D01*
X41815679Y-38882813D01*
X41839504Y-38890040D01*
X41864280Y-38892480D01*
X54383940Y-38892480D01*
X54408716Y-38890040D01*
X54432541Y-38882813D01*
X54454497Y-38871077D01*
X54473743Y-38855283D01*
X54489537Y-38836037D01*
X54501273Y-38814081D01*
X54508500Y-38790256D01*
X54510940Y-38765480D01*
X54510940Y-38386944D01*
X54657921Y-38416180D01*
X54684703Y-38416180D01*
X55810733Y-39542210D01*
X55835316Y-39572164D01*
X55954847Y-39670262D01*
X56091220Y-39743154D01*
X56239193Y-39788042D01*
X56314106Y-39795420D01*
X56354519Y-39799400D01*
X56354524Y-39799400D01*
X56393080Y-39803197D01*
X56431636Y-39799400D01*
X63893663Y-39799400D01*
X69540967Y-45446705D01*
X69563675Y-45521564D01*
X69702831Y-45781906D01*
X69890103Y-46010097D01*
X70118294Y-46197369D01*
X70378636Y-46336525D01*
X70661123Y-46422216D01*
X70881281Y-46443900D01*
X71333319Y-46443900D01*
X71553477Y-46422216D01*
X71835964Y-46336525D01*
X72096306Y-46197369D01*
X72324497Y-46010097D01*
X72389861Y-45930451D01*
X72389861Y-48285361D01*
X71112343Y-49562880D01*
X38394677Y-49562880D01*
X37030800Y-48199003D01*
X37030800Y-47548461D01*
X47811740Y-47548461D01*
X47811740Y-47752339D01*
X47851514Y-47952298D01*
X47929535Y-48140656D01*
X48042803Y-48310174D01*
X48186966Y-48454337D01*
X48356484Y-48567605D01*
X48544842Y-48645626D01*
X48744801Y-48685400D01*
X48948679Y-48685400D01*
X49148638Y-48645626D01*
X49336996Y-48567605D01*
X49506514Y-48454337D01*
X49525451Y-48435400D01*
X62714687Y-48435400D01*
X62753240Y-48439197D01*
X62791793Y-48435400D01*
X62791801Y-48435400D01*
X62907127Y-48424041D01*
X63055100Y-48379154D01*
X63191473Y-48306262D01*
X63311004Y-48208164D01*
X63335587Y-48178210D01*
X65047518Y-46466280D01*
X65220444Y-46518736D01*
X65514220Y-46547671D01*
X65807997Y-46518736D01*
X66090484Y-46433045D01*
X66350826Y-46293889D01*
X66579017Y-46106617D01*
X66766289Y-45878426D01*
X66905445Y-45618083D01*
X66991136Y-45335596D01*
X67012820Y-45115438D01*
X67012820Y-44663401D01*
X66991136Y-44443243D01*
X66905445Y-44160756D01*
X66766289Y-43900414D01*
X66579017Y-43672223D01*
X66350825Y-43484951D01*
X66090483Y-43345795D01*
X65807996Y-43260104D01*
X65514220Y-43231169D01*
X65220443Y-43260104D01*
X64937956Y-43345795D01*
X64677614Y-43484951D01*
X64449423Y-43672223D01*
X64262151Y-43900415D01*
X64244220Y-43933961D01*
X64226289Y-43900414D01*
X64039017Y-43672223D01*
X63810825Y-43484951D01*
X63550483Y-43345795D01*
X63267996Y-43260104D01*
X62974220Y-43231169D01*
X62680443Y-43260104D01*
X62397956Y-43345795D01*
X62137614Y-43484951D01*
X61909423Y-43672223D01*
X61902806Y-43680285D01*
X61887322Y-43629240D01*
X61828357Y-43518926D01*
X61749005Y-43422235D01*
X61652314Y-43342883D01*
X61542000Y-43283918D01*
X61422302Y-43247608D01*
X61297820Y-43235348D01*
X60719970Y-43238420D01*
X60561220Y-43397170D01*
X60561220Y-44762420D01*
X60581220Y-44762420D01*
X60581220Y-45016420D01*
X60561220Y-45016420D01*
X60561220Y-46381670D01*
X60719970Y-46540420D01*
X61297820Y-46543492D01*
X61422302Y-46531232D01*
X61542000Y-46494922D01*
X61652314Y-46435957D01*
X61749005Y-46356605D01*
X61828357Y-46259914D01*
X61887322Y-46149600D01*
X61902806Y-46098555D01*
X61909423Y-46106617D01*
X62137615Y-46293889D01*
X62397957Y-46433045D01*
X62680444Y-46518736D01*
X62766291Y-46527191D01*
X62428083Y-46865400D01*
X49525451Y-46865400D01*
X49506514Y-46846463D01*
X49336996Y-46733195D01*
X49148638Y-46655174D01*
X48948679Y-46615400D01*
X48744801Y-46615400D01*
X48544842Y-46655174D01*
X48356484Y-46733195D01*
X48186966Y-46846463D01*
X48042803Y-46990626D01*
X47929535Y-47160144D01*
X47851514Y-47348502D01*
X47811740Y-47548461D01*
X37030800Y-47548461D01*
X37030800Y-43878500D01*
X38719228Y-43878500D01*
X38719228Y-45910500D01*
X38731488Y-46034982D01*
X38767798Y-46154680D01*
X38826763Y-46264994D01*
X38906115Y-46361685D01*
X39002806Y-46441037D01*
X39113120Y-46500002D01*
X39232818Y-46536312D01*
X39357300Y-46548572D01*
X41084500Y-46548572D01*
X41208982Y-46536312D01*
X41328680Y-46500002D01*
X41438994Y-46441037D01*
X41535685Y-46361685D01*
X41615037Y-46264994D01*
X41674002Y-46154680D01*
X41689486Y-46103635D01*
X41696103Y-46111697D01*
X41924295Y-46298969D01*
X42184637Y-46438125D01*
X42467124Y-46523816D01*
X42760900Y-46552751D01*
X43054677Y-46523816D01*
X43337164Y-46438125D01*
X43597506Y-46298969D01*
X43825697Y-46111697D01*
X44012969Y-45883506D01*
X44034324Y-45843553D01*
X44182414Y-46046229D01*
X44398865Y-46245233D01*
X44649981Y-46398186D01*
X44926111Y-46499209D01*
X44941874Y-46501858D01*
X45173900Y-46380717D01*
X45173900Y-45021500D01*
X45153900Y-45021500D01*
X45153900Y-44767500D01*
X45173900Y-44767500D01*
X45173900Y-43408283D01*
X45427900Y-43408283D01*
X45427900Y-44767500D01*
X45447900Y-44767500D01*
X45447900Y-45021500D01*
X45427900Y-45021500D01*
X45427900Y-46380717D01*
X45659926Y-46501858D01*
X45675689Y-46499209D01*
X45951819Y-46398186D01*
X46202935Y-46245233D01*
X46419386Y-46046229D01*
X46567476Y-45843553D01*
X46588831Y-45883506D01*
X46776103Y-46111697D01*
X47004295Y-46298969D01*
X47264637Y-46438125D01*
X47547124Y-46523816D01*
X47840900Y-46552751D01*
X48134677Y-46523816D01*
X48417164Y-46438125D01*
X48677506Y-46298969D01*
X48905697Y-46111697D01*
X49092969Y-45883506D01*
X49110900Y-45849959D01*
X49128831Y-45883506D01*
X49316103Y-46111697D01*
X49544295Y-46298969D01*
X49804637Y-46438125D01*
X50087124Y-46523816D01*
X50380900Y-46552751D01*
X50674677Y-46523816D01*
X50957164Y-46438125D01*
X51217506Y-46298969D01*
X51445697Y-46111697D01*
X51632969Y-45883506D01*
X51650900Y-45849959D01*
X51668831Y-45883506D01*
X51856103Y-46111697D01*
X52084295Y-46298969D01*
X52344637Y-46438125D01*
X52627124Y-46523816D01*
X52920900Y-46552751D01*
X53214677Y-46523816D01*
X53497164Y-46438125D01*
X53757506Y-46298969D01*
X53985697Y-46111697D01*
X54172969Y-45883506D01*
X54190900Y-45849959D01*
X54208831Y-45883506D01*
X54396103Y-46111697D01*
X54624295Y-46298969D01*
X54884637Y-46438125D01*
X55167124Y-46523816D01*
X55460900Y-46552751D01*
X55754677Y-46523816D01*
X56037164Y-46438125D01*
X56297506Y-46298969D01*
X56525697Y-46111697D01*
X56694984Y-45905420D01*
X58932548Y-45905420D01*
X58944808Y-46029902D01*
X58981118Y-46149600D01*
X59040083Y-46259914D01*
X59119435Y-46356605D01*
X59216126Y-46435957D01*
X59326440Y-46494922D01*
X59446138Y-46531232D01*
X59570620Y-46543492D01*
X60148470Y-46540420D01*
X60307220Y-46381670D01*
X60307220Y-45016420D01*
X59094370Y-45016420D01*
X58935620Y-45175170D01*
X58932548Y-45905420D01*
X56694984Y-45905420D01*
X56712969Y-45883506D01*
X56852125Y-45623163D01*
X56937816Y-45340676D01*
X56959500Y-45120518D01*
X56959500Y-44668481D01*
X56937816Y-44448323D01*
X56852125Y-44165836D01*
X56712969Y-43905494D01*
X56686647Y-43873420D01*
X58932548Y-43873420D01*
X58935620Y-44603670D01*
X59094370Y-44762420D01*
X60307220Y-44762420D01*
X60307220Y-43397170D01*
X60148470Y-43238420D01*
X59570620Y-43235348D01*
X59446138Y-43247608D01*
X59326440Y-43283918D01*
X59216126Y-43342883D01*
X59119435Y-43422235D01*
X59040083Y-43518926D01*
X58981118Y-43629240D01*
X58944808Y-43748938D01*
X58932548Y-43873420D01*
X56686647Y-43873420D01*
X56525697Y-43677303D01*
X56297505Y-43490031D01*
X56037163Y-43350875D01*
X55754676Y-43265184D01*
X55460900Y-43236249D01*
X55167123Y-43265184D01*
X54884636Y-43350875D01*
X54624294Y-43490031D01*
X54396103Y-43677303D01*
X54208831Y-43905495D01*
X54190900Y-43939041D01*
X54172969Y-43905494D01*
X53985697Y-43677303D01*
X53757505Y-43490031D01*
X53497163Y-43350875D01*
X53214676Y-43265184D01*
X52920900Y-43236249D01*
X52627123Y-43265184D01*
X52344636Y-43350875D01*
X52084294Y-43490031D01*
X51856103Y-43677303D01*
X51668831Y-43905495D01*
X51650900Y-43939041D01*
X51632969Y-43905494D01*
X51445697Y-43677303D01*
X51217505Y-43490031D01*
X50957163Y-43350875D01*
X50674676Y-43265184D01*
X50380900Y-43236249D01*
X50087123Y-43265184D01*
X49804636Y-43350875D01*
X49544294Y-43490031D01*
X49316103Y-43677303D01*
X49128831Y-43905495D01*
X49110900Y-43939041D01*
X49092969Y-43905494D01*
X48905697Y-43677303D01*
X48677505Y-43490031D01*
X48417163Y-43350875D01*
X48134676Y-43265184D01*
X47840900Y-43236249D01*
X47547123Y-43265184D01*
X47264636Y-43350875D01*
X47004294Y-43490031D01*
X46776103Y-43677303D01*
X46588831Y-43905495D01*
X46567476Y-43945447D01*
X46419386Y-43742771D01*
X46202935Y-43543767D01*
X45951819Y-43390814D01*
X45675689Y-43289791D01*
X45659926Y-43287142D01*
X45427900Y-43408283D01*
X45173900Y-43408283D01*
X44941874Y-43287142D01*
X44926111Y-43289791D01*
X44649981Y-43390814D01*
X44398865Y-43543767D01*
X44182414Y-43742771D01*
X44034324Y-43945447D01*
X44012969Y-43905494D01*
X43825697Y-43677303D01*
X43597505Y-43490031D01*
X43337163Y-43350875D01*
X43054676Y-43265184D01*
X42760900Y-43236249D01*
X42467123Y-43265184D01*
X42184636Y-43350875D01*
X41924294Y-43490031D01*
X41696103Y-43677303D01*
X41689486Y-43685365D01*
X41674002Y-43634320D01*
X41615037Y-43524006D01*
X41535685Y-43427315D01*
X41438994Y-43347963D01*
X41328680Y-43288998D01*
X41208982Y-43252688D01*
X41084500Y-43240428D01*
X39357300Y-43240428D01*
X39232818Y-43252688D01*
X39113120Y-43288998D01*
X39002806Y-43347963D01*
X38906115Y-43427315D01*
X38826763Y-43524006D01*
X38767798Y-43634320D01*
X38731488Y-43754018D01*
X38719228Y-43878500D01*
X37030800Y-43878500D01*
X37030800Y-41132797D01*
X37612358Y-40551240D01*
X37852097Y-40551240D01*
X38010761Y-40582800D01*
X38214639Y-40582800D01*
X38414598Y-40543026D01*
X38602956Y-40465005D01*
X38772474Y-40351737D01*
X38916637Y-40207574D01*
X39029905Y-40038056D01*
X39107926Y-39849698D01*
X39147700Y-39649739D01*
X39147700Y-39445861D01*
X39107926Y-39245902D01*
X39029905Y-39057544D01*
X38916637Y-38888026D01*
X38772474Y-38743863D01*
X38602956Y-38630595D01*
X38414598Y-38552574D01*
X38214639Y-38512800D01*
X38010761Y-38512800D01*
X37810802Y-38552574D01*
X37622444Y-38630595D01*
X37452926Y-38743863D01*
X37308763Y-38888026D01*
X37246327Y-38981468D01*
X37133313Y-38992599D01*
X36985340Y-39037486D01*
X36848967Y-39110378D01*
X36798015Y-39152194D01*
X36759387Y-39183895D01*
X36759384Y-39183898D01*
X36729436Y-39208476D01*
X36704857Y-39238425D01*
X35717985Y-40225298D01*
X35688037Y-40249876D01*
X35663459Y-40279824D01*
X35663455Y-40279828D01*
X35651781Y-40294053D01*
X35589939Y-40369407D01*
X35572198Y-40402599D01*
X35517046Y-40505781D01*
X35472159Y-40653754D01*
X35457003Y-40807640D01*
X35460801Y-40846203D01*
X35460800Y-48485607D01*
X35457003Y-48524160D01*
X35460800Y-48562713D01*
X35460800Y-48562720D01*
X35472159Y-48678046D01*
X35517046Y-48826019D01*
X35589938Y-48962392D01*
X35688036Y-49081924D01*
X35717990Y-49106507D01*
X37487173Y-50875690D01*
X37511756Y-50905644D01*
X37631287Y-51003742D01*
X37767660Y-51076634D01*
X37915633Y-51121522D01*
X37990546Y-51128900D01*
X38030959Y-51132880D01*
X38030964Y-51132880D01*
X38069520Y-51136677D01*
X38108076Y-51132880D01*
X71398947Y-51132880D01*
X71437500Y-51136677D01*
X71476053Y-51132880D01*
X71476061Y-51132880D01*
X71591387Y-51121521D01*
X71739360Y-51076634D01*
X71875733Y-51003742D01*
X71995264Y-50905644D01*
X72019847Y-50875690D01*
X73578720Y-49316818D01*
X73578720Y-84518839D01*
X16033974Y-84484153D01*
X16031769Y-78336181D01*
X29197300Y-78336181D01*
X29197300Y-78788218D01*
X29218984Y-79008376D01*
X29304675Y-79290863D01*
X29443831Y-79551205D01*
X29631103Y-79779397D01*
X29859294Y-79966669D01*
X30119636Y-80105825D01*
X30402123Y-80191516D01*
X30695900Y-80220451D01*
X30989676Y-80191516D01*
X31272163Y-80105825D01*
X31532505Y-79966669D01*
X31760697Y-79779397D01*
X31947969Y-79551206D01*
X31965900Y-79517659D01*
X31983831Y-79551205D01*
X32171103Y-79779397D01*
X32399294Y-79966669D01*
X32659636Y-80105825D01*
X32942123Y-80191516D01*
X33235900Y-80220451D01*
X33529676Y-80191516D01*
X33812163Y-80105825D01*
X34072505Y-79966669D01*
X34300697Y-79779397D01*
X34487969Y-79551206D01*
X34505900Y-79517659D01*
X34523831Y-79551205D01*
X34711103Y-79779397D01*
X34939294Y-79966669D01*
X35199636Y-80105825D01*
X35482123Y-80191516D01*
X35775900Y-80220451D01*
X36069676Y-80191516D01*
X36352163Y-80105825D01*
X36612505Y-79966669D01*
X36840697Y-79779397D01*
X37027969Y-79551206D01*
X37049324Y-79511253D01*
X37197414Y-79713929D01*
X37413865Y-79912933D01*
X37664981Y-80065886D01*
X37941111Y-80166909D01*
X37956874Y-80169558D01*
X38188900Y-80048417D01*
X38188900Y-78689200D01*
X38168900Y-78689200D01*
X38168900Y-78435200D01*
X38188900Y-78435200D01*
X38188900Y-77075983D01*
X38442900Y-77075983D01*
X38442900Y-78435200D01*
X38462900Y-78435200D01*
X38462900Y-78689200D01*
X38442900Y-78689200D01*
X38442900Y-80048417D01*
X38674926Y-80169558D01*
X38690689Y-80166909D01*
X38966819Y-80065886D01*
X39217935Y-79912933D01*
X39434386Y-79713929D01*
X39582476Y-79511253D01*
X39603831Y-79551205D01*
X39791103Y-79779397D01*
X40019294Y-79966669D01*
X40279636Y-80105825D01*
X40562123Y-80191516D01*
X40855900Y-80220451D01*
X41149676Y-80191516D01*
X41432163Y-80105825D01*
X41692505Y-79966669D01*
X41920697Y-79779397D01*
X42107969Y-79551206D01*
X42125900Y-79517659D01*
X42143831Y-79551205D01*
X42331103Y-79779397D01*
X42559294Y-79966669D01*
X42819636Y-80105825D01*
X43102123Y-80191516D01*
X43395900Y-80220451D01*
X43689676Y-80191516D01*
X43972163Y-80105825D01*
X44232505Y-79966669D01*
X44460697Y-79779397D01*
X44647969Y-79551206D01*
X44665900Y-79517659D01*
X44683831Y-79551205D01*
X44871103Y-79779397D01*
X45099294Y-79966669D01*
X45359636Y-80105825D01*
X45642123Y-80191516D01*
X45935900Y-80220451D01*
X46229676Y-80191516D01*
X46512163Y-80105825D01*
X46772505Y-79966669D01*
X47000697Y-79779397D01*
X47187969Y-79551206D01*
X47205900Y-79517659D01*
X47223831Y-79551205D01*
X47411103Y-79779397D01*
X47639294Y-79966669D01*
X47899636Y-80105825D01*
X48182123Y-80191516D01*
X48475900Y-80220451D01*
X48769676Y-80191516D01*
X49052163Y-80105825D01*
X49312505Y-79966669D01*
X49540697Y-79779397D01*
X49547314Y-79771335D01*
X49562798Y-79822380D01*
X49621763Y-79932694D01*
X49701115Y-80029385D01*
X49797806Y-80108737D01*
X49908120Y-80167702D01*
X50027818Y-80204012D01*
X50152300Y-80216272D01*
X51879500Y-80216272D01*
X52003982Y-80204012D01*
X52123680Y-80167702D01*
X52233994Y-80108737D01*
X52330685Y-80029385D01*
X52410037Y-79932694D01*
X52469002Y-79822380D01*
X52505312Y-79702682D01*
X52517572Y-79578200D01*
X52517572Y-77546200D01*
X52505312Y-77421718D01*
X52469002Y-77302020D01*
X52410037Y-77191706D01*
X52330685Y-77095015D01*
X52233994Y-77015663D01*
X52123680Y-76956698D01*
X52003982Y-76920388D01*
X51879500Y-76908128D01*
X50152300Y-76908128D01*
X50027818Y-76920388D01*
X49908120Y-76956698D01*
X49797806Y-77015663D01*
X49701115Y-77095015D01*
X49621763Y-77191706D01*
X49562798Y-77302020D01*
X49547314Y-77353065D01*
X49540697Y-77345003D01*
X49312506Y-77157731D01*
X49052164Y-77018575D01*
X48769677Y-76932884D01*
X48475900Y-76903949D01*
X48182124Y-76932884D01*
X47899637Y-77018575D01*
X47639295Y-77157731D01*
X47411103Y-77345003D01*
X47223831Y-77573194D01*
X47205900Y-77606741D01*
X47187969Y-77573194D01*
X47000697Y-77345003D01*
X46772506Y-77157731D01*
X46512164Y-77018575D01*
X46229677Y-76932884D01*
X45935900Y-76903949D01*
X45642124Y-76932884D01*
X45359637Y-77018575D01*
X45099295Y-77157731D01*
X44871103Y-77345003D01*
X44683831Y-77573194D01*
X44665900Y-77606741D01*
X44647969Y-77573194D01*
X44460697Y-77345003D01*
X44232506Y-77157731D01*
X43972164Y-77018575D01*
X43689677Y-76932884D01*
X43395900Y-76903949D01*
X43102124Y-76932884D01*
X42819637Y-77018575D01*
X42559295Y-77157731D01*
X42331103Y-77345003D01*
X42143831Y-77573194D01*
X42125900Y-77606741D01*
X42107969Y-77573194D01*
X41920697Y-77345003D01*
X41692506Y-77157731D01*
X41432164Y-77018575D01*
X41149677Y-76932884D01*
X40855900Y-76903949D01*
X40562124Y-76932884D01*
X40279637Y-77018575D01*
X40019295Y-77157731D01*
X39791103Y-77345003D01*
X39603831Y-77573194D01*
X39582476Y-77613147D01*
X39434386Y-77410471D01*
X39217935Y-77211467D01*
X38966819Y-77058514D01*
X38690689Y-76957491D01*
X38674926Y-76954842D01*
X38442900Y-77075983D01*
X38188900Y-77075983D01*
X37956874Y-76954842D01*
X37941111Y-76957491D01*
X37664981Y-77058514D01*
X37413865Y-77211467D01*
X37197414Y-77410471D01*
X37049324Y-77613147D01*
X37027969Y-77573194D01*
X36840697Y-77345003D01*
X36612506Y-77157731D01*
X36352164Y-77018575D01*
X36069677Y-76932884D01*
X35775900Y-76903949D01*
X35482124Y-76932884D01*
X35199637Y-77018575D01*
X34939295Y-77157731D01*
X34711103Y-77345003D01*
X34523831Y-77573194D01*
X34505900Y-77606741D01*
X34487969Y-77573194D01*
X34300697Y-77345003D01*
X34072506Y-77157731D01*
X33812164Y-77018575D01*
X33529677Y-76932884D01*
X33235900Y-76903949D01*
X32942124Y-76932884D01*
X32659637Y-77018575D01*
X32399295Y-77157731D01*
X32171103Y-77345003D01*
X31983831Y-77573194D01*
X31965900Y-77606741D01*
X31947969Y-77573194D01*
X31760697Y-77345003D01*
X31532506Y-77157731D01*
X31272164Y-77018575D01*
X30989677Y-76932884D01*
X30695900Y-76903949D01*
X30402124Y-76932884D01*
X30119637Y-77018575D01*
X29859295Y-77157731D01*
X29631103Y-77345003D01*
X29443831Y-77573194D01*
X29304675Y-77833536D01*
X29218984Y-78116023D01*
X29197300Y-78336181D01*
X16031769Y-78336181D01*
X16023549Y-55425001D01*
X40293340Y-55425001D01*
X40293340Y-55628879D01*
X40333114Y-55828838D01*
X40411135Y-56017196D01*
X40524403Y-56186714D01*
X40668566Y-56330877D01*
X40838084Y-56444145D01*
X41026442Y-56522166D01*
X41226401Y-56561940D01*
X41430279Y-56561940D01*
X41630238Y-56522166D01*
X41818596Y-56444145D01*
X41988114Y-56330877D01*
X42007051Y-56311940D01*
X63778947Y-56311940D01*
X63817500Y-56315737D01*
X63856053Y-56311940D01*
X63856061Y-56311940D01*
X63971387Y-56300581D01*
X64119360Y-56255694D01*
X64255733Y-56182802D01*
X64375264Y-56084704D01*
X64399847Y-56054750D01*
X67073397Y-53381201D01*
X67078498Y-53380186D01*
X67266856Y-53302165D01*
X67436374Y-53188897D01*
X67580537Y-53044734D01*
X67693805Y-52875216D01*
X67771826Y-52686858D01*
X67811600Y-52486899D01*
X67811600Y-52283021D01*
X67771826Y-52083062D01*
X67693805Y-51894704D01*
X67580537Y-51725186D01*
X67436374Y-51581023D01*
X67266856Y-51467755D01*
X67078498Y-51389734D01*
X66878539Y-51349960D01*
X66674661Y-51349960D01*
X66474702Y-51389734D01*
X66286344Y-51467755D01*
X66116826Y-51581023D01*
X65972663Y-51725186D01*
X65859395Y-51894704D01*
X65781374Y-52083062D01*
X65741600Y-52283021D01*
X65741600Y-52486899D01*
X65742559Y-52491723D01*
X63492343Y-54741940D01*
X42007051Y-54741940D01*
X41988114Y-54723003D01*
X41818596Y-54609735D01*
X41630238Y-54531714D01*
X41430279Y-54491940D01*
X41226401Y-54491940D01*
X41026442Y-54531714D01*
X40838084Y-54609735D01*
X40668566Y-54723003D01*
X40524403Y-54867166D01*
X40411135Y-55036684D01*
X40333114Y-55225042D01*
X40293340Y-55425001D01*
X16023549Y-55425001D01*
X16018010Y-39988800D01*
X31032349Y-39988800D01*
X31061284Y-40282577D01*
X31146975Y-40565064D01*
X31286131Y-40825406D01*
X31473403Y-41053597D01*
X31701594Y-41240869D01*
X31763068Y-41273728D01*
X31543403Y-41454003D01*
X31356131Y-41682194D01*
X31216975Y-41942536D01*
X31131284Y-42225023D01*
X31102349Y-42518800D01*
X31131284Y-42812577D01*
X31216975Y-43095064D01*
X31356131Y-43355406D01*
X31543403Y-43583597D01*
X31771594Y-43770869D01*
X32031936Y-43910025D01*
X32314423Y-43995716D01*
X32534581Y-44017400D01*
X32986619Y-44017400D01*
X33206777Y-43995716D01*
X33489264Y-43910025D01*
X33749606Y-43770869D01*
X33977797Y-43583597D01*
X34165069Y-43355406D01*
X34304225Y-43095064D01*
X34389916Y-42812577D01*
X34418851Y-42518800D01*
X34389916Y-42225023D01*
X34304225Y-41942536D01*
X34165069Y-41682194D01*
X33977797Y-41454003D01*
X33749606Y-41266731D01*
X33688132Y-41233872D01*
X33907797Y-41053597D01*
X34095069Y-40825406D01*
X34234225Y-40565064D01*
X34319916Y-40282577D01*
X34348851Y-39988800D01*
X34319916Y-39695023D01*
X34234225Y-39412536D01*
X34095069Y-39152194D01*
X33907797Y-38924003D01*
X33855117Y-38880769D01*
X33881082Y-38878212D01*
X34000780Y-38841902D01*
X34111094Y-38782937D01*
X34207785Y-38703585D01*
X34287137Y-38606894D01*
X34346102Y-38496580D01*
X34382412Y-38376882D01*
X34394672Y-38252400D01*
X34394672Y-36525200D01*
X34382412Y-36400718D01*
X34346102Y-36281020D01*
X34287137Y-36170706D01*
X34207785Y-36074015D01*
X34111094Y-35994663D01*
X34000780Y-35935698D01*
X33881082Y-35899388D01*
X33756600Y-35887128D01*
X31724600Y-35887128D01*
X31600118Y-35899388D01*
X31480420Y-35935698D01*
X31370106Y-35994663D01*
X31273415Y-36074015D01*
X31194063Y-36170706D01*
X31135098Y-36281020D01*
X31098788Y-36400718D01*
X31086528Y-36525200D01*
X31086528Y-38252400D01*
X31098788Y-38376882D01*
X31135098Y-38496580D01*
X31194063Y-38606894D01*
X31273415Y-38703585D01*
X31370106Y-38782937D01*
X31480420Y-38841902D01*
X31548339Y-38862505D01*
X31473403Y-38924003D01*
X31286131Y-39152194D01*
X31146975Y-39412536D01*
X31061284Y-39695023D01*
X31032349Y-39988800D01*
X16018010Y-39988800D01*
X16013237Y-26686767D01*
X16957800Y-26686767D01*
X16957800Y-27008833D01*
X17020632Y-27324712D01*
X17143882Y-27622263D01*
X17322813Y-27890052D01*
X17550548Y-28117787D01*
X17818337Y-28296718D01*
X18115888Y-28419968D01*
X18431767Y-28482800D01*
X18753833Y-28482800D01*
X19069712Y-28419968D01*
X19367263Y-28296718D01*
X19635052Y-28117787D01*
X19862787Y-27890052D01*
X20041718Y-27622263D01*
X20164968Y-27324712D01*
X20227800Y-27008833D01*
X20227800Y-26686767D01*
X22037800Y-26686767D01*
X22037800Y-27008833D01*
X22100632Y-27324712D01*
X22223882Y-27622263D01*
X22402813Y-27890052D01*
X22630548Y-28117787D01*
X22898337Y-28296718D01*
X23195888Y-28419968D01*
X23511767Y-28482800D01*
X23833833Y-28482800D01*
X24149712Y-28419968D01*
X24447263Y-28296718D01*
X24715052Y-28117787D01*
X24942787Y-27890052D01*
X25121718Y-27622263D01*
X25244968Y-27324712D01*
X25307800Y-27008833D01*
X25307800Y-26686767D01*
X25244968Y-26370888D01*
X25121718Y-26073337D01*
X24942787Y-25805548D01*
X24715052Y-25577813D01*
X24447263Y-25398882D01*
X24149712Y-25275632D01*
X23833833Y-25212800D01*
X23511767Y-25212800D01*
X23195888Y-25275632D01*
X22898337Y-25398882D01*
X22630548Y-25577813D01*
X22402813Y-25805548D01*
X22223882Y-26073337D01*
X22100632Y-26370888D01*
X22037800Y-26686767D01*
X20227800Y-26686767D01*
X20164968Y-26370888D01*
X20041718Y-26073337D01*
X19862787Y-25805548D01*
X19635052Y-25577813D01*
X19367263Y-25398882D01*
X19069712Y-25275632D01*
X18753833Y-25212800D01*
X18431767Y-25212800D01*
X18115888Y-25275632D01*
X17818337Y-25398882D01*
X17550548Y-25577813D01*
X17322813Y-25805548D01*
X17143882Y-26073337D01*
X17020632Y-26370888D01*
X16957800Y-26686767D01*
X16013237Y-26686767D01*
X16010766Y-19801244D01*
X16123225Y-19801244D01*
X16181124Y-19992126D01*
X16322818Y-20283115D01*
X16518558Y-20540869D01*
X16760823Y-20755484D01*
X17040302Y-20918711D01*
X17346255Y-21024278D01*
X17602200Y-20905662D01*
X17602200Y-19545300D01*
X17856200Y-19545300D01*
X17856200Y-20905662D01*
X18112145Y-21024278D01*
X18418098Y-20918711D01*
X18697577Y-20755484D01*
X18939842Y-20540869D01*
X19135582Y-20283115D01*
X19277276Y-19992126D01*
X19335175Y-19801244D01*
X19216036Y-19545300D01*
X17856200Y-19545300D01*
X17602200Y-19545300D01*
X16242364Y-19545300D01*
X16123225Y-19801244D01*
X16010766Y-19801244D01*
X16009352Y-15862300D01*
X16075128Y-15862300D01*
X16075128Y-17894300D01*
X16087388Y-18018782D01*
X16123698Y-18138480D01*
X16182663Y-18248794D01*
X16262015Y-18345485D01*
X16358706Y-18424837D01*
X16402669Y-18448336D01*
X16322818Y-18553485D01*
X16181124Y-18844474D01*
X16123225Y-19035356D01*
X16242364Y-19291300D01*
X17602200Y-19291300D01*
X17602200Y-19271300D01*
X17856200Y-19271300D01*
X17856200Y-19291300D01*
X19216036Y-19291300D01*
X19335175Y-19035356D01*
X19277276Y-18844474D01*
X19135582Y-18553485D01*
X19055731Y-18448336D01*
X19099694Y-18424837D01*
X19196385Y-18345485D01*
X19275737Y-18248794D01*
X19334702Y-18138480D01*
X19371012Y-18018782D01*
X19383272Y-17894300D01*
X19383272Y-15862300D01*
X19371012Y-15737818D01*
X19334702Y-15618120D01*
X19275737Y-15507806D01*
X19196385Y-15411115D01*
X19099694Y-15331763D01*
X18989380Y-15272798D01*
X18869682Y-15236488D01*
X18745200Y-15224228D01*
X16713200Y-15224228D01*
X16588718Y-15236488D01*
X16469020Y-15272798D01*
X16358706Y-15331763D01*
X16262015Y-15411115D01*
X16182663Y-15507806D01*
X16123698Y-15618120D01*
X16087388Y-15737818D01*
X16075128Y-15862300D01*
X16009352Y-15862300D01*
X16009065Y-15063910D01*
X20726890Y-15063707D01*
X20701478Y-15074233D01*
X20433773Y-15253108D01*
X20206108Y-15480773D01*
X20027233Y-15748478D01*
X19904022Y-16045937D01*
X19841210Y-16361717D01*
X19841210Y-16683683D01*
X19904022Y-16999463D01*
X20027233Y-17296922D01*
X20206108Y-17564627D01*
X20433773Y-17792292D01*
X20701478Y-17971167D01*
X20998937Y-18094378D01*
X21314717Y-18157190D01*
X21636683Y-18157190D01*
X21952463Y-18094378D01*
X22249922Y-17971167D01*
X22517627Y-17792292D01*
X22745292Y-17564627D01*
X22924167Y-17296922D01*
X23047378Y-16999463D01*
X23110190Y-16683683D01*
X23110190Y-16361717D01*
X23047378Y-16045937D01*
X22924167Y-15748478D01*
X22745292Y-15480773D01*
X22517627Y-15253108D01*
X22249922Y-15074233D01*
X22224354Y-15063643D01*
X23845324Y-15063573D01*
X23835025Y-15072025D01*
X23755673Y-15168716D01*
X23696708Y-15279030D01*
X23660398Y-15398728D01*
X23648138Y-15523210D01*
X23648138Y-17522190D01*
X23660398Y-17646672D01*
X23696708Y-17766370D01*
X23755673Y-17876684D01*
X23835025Y-17973375D01*
X23931716Y-18052727D01*
X24042030Y-18111692D01*
X24161728Y-18148002D01*
X24286210Y-18160262D01*
X26285190Y-18160262D01*
X26409672Y-18148002D01*
X26529370Y-18111692D01*
X26639684Y-18052727D01*
X26736375Y-17973375D01*
X26815727Y-17876684D01*
X26874692Y-17766370D01*
X26911002Y-17646672D01*
X26923262Y-17522190D01*
X26923262Y-15523210D01*
X26911002Y-15398728D01*
X26874692Y-15279030D01*
X26815727Y-15168716D01*
X26736375Y-15072025D01*
X26725925Y-15063449D01*
X73578720Y-15061433D01*
X73578720Y-34962923D01*
G04 #@! TA.AperFunction,Conductor*
D22*
G36*
X73578720Y-34962923D02*
G01*
X72873287Y-34257490D01*
X72848704Y-34227536D01*
X72729173Y-34129438D01*
X72592800Y-34056546D01*
X72564892Y-34048080D01*
X72511769Y-33948694D01*
X72324497Y-33720503D01*
X72096306Y-33533231D01*
X72062760Y-33515300D01*
X72096306Y-33497369D01*
X72324497Y-33310097D01*
X72511769Y-33081906D01*
X72650925Y-32821564D01*
X72736616Y-32539077D01*
X72765551Y-32245300D01*
X72736616Y-31951523D01*
X72650925Y-31669036D01*
X72511769Y-31408694D01*
X72324497Y-31180503D01*
X72096306Y-30993231D01*
X72062760Y-30975300D01*
X72096306Y-30957369D01*
X72324497Y-30770097D01*
X72511769Y-30541906D01*
X72650925Y-30281564D01*
X72736616Y-29999077D01*
X72765551Y-29705300D01*
X72736616Y-29411523D01*
X72650925Y-29129036D01*
X72511769Y-28868694D01*
X72324497Y-28640503D01*
X72096306Y-28453231D01*
X72056353Y-28431876D01*
X72259029Y-28283786D01*
X72458033Y-28067335D01*
X72610986Y-27816219D01*
X72712009Y-27540089D01*
X72714658Y-27524326D01*
X72593517Y-27292300D01*
X71234300Y-27292300D01*
X71234300Y-27312300D01*
X70980300Y-27312300D01*
X70980300Y-27292300D01*
X69621083Y-27292300D01*
X69499942Y-27524326D01*
X69502591Y-27540089D01*
X69603614Y-27816219D01*
X69756567Y-28067335D01*
X69955571Y-28283786D01*
X70158247Y-28431876D01*
X70118294Y-28453231D01*
X69890103Y-28640503D01*
X69702831Y-28868694D01*
X69675247Y-28920300D01*
X69190056Y-28920300D01*
X69151500Y-28916503D01*
X69112944Y-28920300D01*
X69112939Y-28920300D01*
X69072526Y-28924280D01*
X68997613Y-28931658D01*
X68849640Y-28976546D01*
X68713267Y-29049438D01*
X68593736Y-29147536D01*
X68569153Y-29177490D01*
X64961005Y-32785638D01*
X64931057Y-32810216D01*
X64906479Y-32840164D01*
X64906475Y-32840168D01*
X64873510Y-32880336D01*
X64832959Y-32929747D01*
X64809277Y-32974054D01*
X64760066Y-33066121D01*
X64715179Y-33214094D01*
X64700023Y-33367980D01*
X64703821Y-33406543D01*
X64703820Y-35341029D01*
X64684883Y-35359966D01*
X64571615Y-35529484D01*
X64493594Y-35717842D01*
X64453820Y-35917801D01*
X64453820Y-36121679D01*
X64493594Y-36321638D01*
X64571615Y-36509996D01*
X64684883Y-36679514D01*
X64829046Y-36823677D01*
X64998564Y-36936945D01*
X65186922Y-37014966D01*
X65386881Y-37054740D01*
X65590759Y-37054740D01*
X65790718Y-37014966D01*
X65979076Y-36936945D01*
X66148594Y-36823677D01*
X66292757Y-36679514D01*
X66406025Y-36509996D01*
X66484046Y-36321638D01*
X66523820Y-36121679D01*
X66523820Y-35917801D01*
X66484046Y-35717842D01*
X66406025Y-35529484D01*
X66292757Y-35359966D01*
X66273820Y-35341029D01*
X66273820Y-33693137D01*
X69476657Y-30490300D01*
X69675247Y-30490300D01*
X69702831Y-30541906D01*
X69890103Y-30770097D01*
X70118294Y-30957369D01*
X70151840Y-30975300D01*
X70118294Y-30993231D01*
X69890103Y-31180503D01*
X69702831Y-31408694D01*
X69563675Y-31669036D01*
X69477984Y-31951523D01*
X69449049Y-32245300D01*
X69452872Y-32284111D01*
X67620390Y-34116593D01*
X67590436Y-34141176D01*
X67492338Y-34260708D01*
X67419446Y-34397081D01*
X67374559Y-34545054D01*
X67363200Y-34660380D01*
X67363200Y-34660387D01*
X67359403Y-34698940D01*
X67363200Y-34737493D01*
X67363201Y-37413668D01*
X67344263Y-37432606D01*
X67230995Y-37602124D01*
X67152974Y-37790482D01*
X67113200Y-37990441D01*
X67113200Y-38194319D01*
X67152974Y-38394278D01*
X67230995Y-38582636D01*
X67344263Y-38752154D01*
X67424708Y-38832599D01*
X66723943Y-38832599D01*
X66680345Y-38727344D01*
X66567077Y-38557826D01*
X66422914Y-38413663D01*
X66253396Y-38300395D01*
X66065038Y-38222374D01*
X65865079Y-38182600D01*
X65661201Y-38182600D01*
X65461242Y-38222374D01*
X65272884Y-38300395D01*
X65103366Y-38413663D01*
X64959203Y-38557826D01*
X64924436Y-38609859D01*
X64801165Y-38486588D01*
X64776584Y-38456636D01*
X64657053Y-38358538D01*
X64520680Y-38285646D01*
X64372707Y-38240759D01*
X64257381Y-38229400D01*
X64257373Y-38229400D01*
X64218820Y-38225603D01*
X64180267Y-38229400D01*
X56718237Y-38229400D01*
X55794860Y-37306023D01*
X55794860Y-37279241D01*
X55755086Y-37079282D01*
X55677065Y-36890924D01*
X55563797Y-36721406D01*
X55544860Y-36702469D01*
X55544860Y-36372974D01*
X55576784Y-36394305D01*
X55765142Y-36472326D01*
X55965101Y-36512100D01*
X56168979Y-36512100D01*
X56368938Y-36472326D01*
X56557296Y-36394305D01*
X56726814Y-36281037D01*
X56745751Y-36262100D01*
X59073947Y-36262100D01*
X59112500Y-36265897D01*
X59151053Y-36262100D01*
X59151061Y-36262100D01*
X59266387Y-36250741D01*
X59414360Y-36205854D01*
X59550733Y-36132962D01*
X59670264Y-36034864D01*
X59694847Y-36004910D01*
X61424858Y-34274900D01*
X61675749Y-34274900D01*
X61694686Y-34293837D01*
X61864204Y-34407105D01*
X62052562Y-34485126D01*
X62252521Y-34524900D01*
X62456399Y-34524900D01*
X62656358Y-34485126D01*
X62844716Y-34407105D01*
X63014234Y-34293837D01*
X63158397Y-34149674D01*
X63271665Y-33980156D01*
X63349686Y-33791798D01*
X63389460Y-33591839D01*
X63389460Y-33387961D01*
X63349686Y-33188002D01*
X63271665Y-32999644D01*
X63158397Y-32830126D01*
X63014234Y-32685963D01*
X62844716Y-32572695D01*
X62656358Y-32494674D01*
X62456399Y-32454900D01*
X62252521Y-32454900D01*
X62052562Y-32494674D01*
X61864204Y-32572695D01*
X61694686Y-32685963D01*
X61675749Y-32704900D01*
X61138252Y-32704900D01*
X61099699Y-32701103D01*
X61061146Y-32704900D01*
X61061139Y-32704900D01*
X60960190Y-32714843D01*
X60945812Y-32716259D01*
X60797840Y-32761146D01*
X60661467Y-32834038D01*
X60601259Y-32883450D01*
X60571887Y-32907555D01*
X60571884Y-32907558D01*
X60541936Y-32932136D01*
X60517358Y-32962084D01*
X58787343Y-34692100D01*
X56745751Y-34692100D01*
X56726814Y-34673163D01*
X56557296Y-34559895D01*
X56368938Y-34481874D01*
X56168979Y-34442100D01*
X55965101Y-34442100D01*
X55765142Y-34481874D01*
X55576784Y-34559895D01*
X55544860Y-34581226D01*
X55544860Y-29919546D01*
X60294982Y-29919546D01*
X60297631Y-29935309D01*
X60398654Y-30211439D01*
X60551607Y-30462555D01*
X60750611Y-30679006D01*
X60988019Y-30852474D01*
X61254707Y-30976293D01*
X61540426Y-31045705D01*
X61775340Y-30901445D01*
X61775340Y-29687520D01*
X62029340Y-29687520D01*
X62029340Y-30901445D01*
X62264254Y-31045705D01*
X62549973Y-30976293D01*
X62816661Y-30852474D01*
X63054069Y-30679006D01*
X63253073Y-30462555D01*
X63406026Y-30211439D01*
X63507049Y-29935309D01*
X63509698Y-29919546D01*
X63388557Y-29687520D01*
X62029340Y-29687520D01*
X61775340Y-29687520D01*
X60416123Y-29687520D01*
X60294982Y-29919546D01*
X55544860Y-29919546D01*
X55544860Y-29710417D01*
X59989757Y-25265520D01*
X60470287Y-25265520D01*
X60497871Y-25317126D01*
X60685143Y-25545317D01*
X60913334Y-25732589D01*
X60946880Y-25750520D01*
X60913334Y-25768451D01*
X60685143Y-25955723D01*
X60497871Y-26183914D01*
X60358715Y-26444256D01*
X60273024Y-26726743D01*
X60244089Y-27020520D01*
X60273024Y-27314297D01*
X60358715Y-27596784D01*
X60497871Y-27857126D01*
X60685143Y-28085317D01*
X60913334Y-28272589D01*
X60953287Y-28293944D01*
X60750611Y-28442034D01*
X60551607Y-28658485D01*
X60398654Y-28909601D01*
X60297631Y-29185731D01*
X60294982Y-29201494D01*
X60416123Y-29433520D01*
X61775340Y-29433520D01*
X61775340Y-29413520D01*
X62029340Y-29413520D01*
X62029340Y-29433520D01*
X63388557Y-29433520D01*
X63509698Y-29201494D01*
X63507049Y-29185731D01*
X63406026Y-28909601D01*
X63253073Y-28658485D01*
X63054069Y-28442034D01*
X62851393Y-28293944D01*
X62891346Y-28272589D01*
X63119537Y-28085317D01*
X63306809Y-27857126D01*
X63445965Y-27596784D01*
X63531656Y-27314297D01*
X63560591Y-27020520D01*
X63531656Y-26726743D01*
X63445965Y-26444256D01*
X63306809Y-26183914D01*
X63119537Y-25955723D01*
X62891346Y-25768451D01*
X62857800Y-25750520D01*
X62891346Y-25732589D01*
X63119537Y-25545317D01*
X63306809Y-25317126D01*
X63445965Y-25056784D01*
X63531656Y-24774297D01*
X63560591Y-24480520D01*
X63531656Y-24186743D01*
X63445965Y-23904256D01*
X63369768Y-23761700D01*
X69453228Y-23761700D01*
X69453228Y-25488900D01*
X69465488Y-25613382D01*
X69501798Y-25733080D01*
X69560763Y-25843394D01*
X69640115Y-25940085D01*
X69736806Y-26019437D01*
X69847120Y-26078402D01*
X69909212Y-26097237D01*
X69756567Y-26263265D01*
X69603614Y-26514381D01*
X69502591Y-26790511D01*
X69499942Y-26806274D01*
X69621083Y-27038300D01*
X70980300Y-27038300D01*
X70980300Y-27018300D01*
X71234300Y-27018300D01*
X71234300Y-27038300D01*
X72593517Y-27038300D01*
X72714658Y-26806274D01*
X72712009Y-26790511D01*
X72610986Y-26514381D01*
X72458033Y-26263265D01*
X72305388Y-26097237D01*
X72367480Y-26078402D01*
X72477794Y-26019437D01*
X72574485Y-25940085D01*
X72653837Y-25843394D01*
X72712802Y-25733080D01*
X72749112Y-25613382D01*
X72761372Y-25488900D01*
X72761372Y-23761700D01*
X72749112Y-23637218D01*
X72712802Y-23517520D01*
X72653837Y-23407206D01*
X72574485Y-23310515D01*
X72477794Y-23231163D01*
X72367480Y-23172198D01*
X72247782Y-23135888D01*
X72123300Y-23123628D01*
X70091300Y-23123628D01*
X69966818Y-23135888D01*
X69847120Y-23172198D01*
X69736806Y-23231163D01*
X69640115Y-23310515D01*
X69560763Y-23407206D01*
X69501798Y-23517520D01*
X69465488Y-23637218D01*
X69453228Y-23761700D01*
X63369768Y-23761700D01*
X63306809Y-23643914D01*
X63119537Y-23415723D01*
X62891346Y-23228451D01*
X62857800Y-23210520D01*
X62891346Y-23192589D01*
X63119537Y-23005317D01*
X63306809Y-22777126D01*
X63445965Y-22516784D01*
X63531656Y-22234297D01*
X63560591Y-21940520D01*
X63531656Y-21646743D01*
X63445965Y-21364256D01*
X63306809Y-21103914D01*
X63119537Y-20875723D01*
X63111475Y-20869106D01*
X63162520Y-20853622D01*
X63272834Y-20794657D01*
X63369525Y-20715305D01*
X63448877Y-20618614D01*
X63507842Y-20508300D01*
X63544152Y-20388602D01*
X63556412Y-20264120D01*
X63556412Y-18536920D01*
X63544152Y-18412438D01*
X63507842Y-18292740D01*
X63448877Y-18182426D01*
X63369525Y-18085735D01*
X63272834Y-18006383D01*
X63162520Y-17947418D01*
X63042822Y-17911108D01*
X62918340Y-17898848D01*
X60886340Y-17898848D01*
X60761858Y-17911108D01*
X60642160Y-17947418D01*
X60531846Y-18006383D01*
X60435155Y-18085735D01*
X60355803Y-18182426D01*
X60296838Y-18292740D01*
X60260528Y-18412438D01*
X60248268Y-18536920D01*
X60248268Y-20264120D01*
X60260528Y-20388602D01*
X60296838Y-20508300D01*
X60355803Y-20618614D01*
X60435155Y-20715305D01*
X60531846Y-20794657D01*
X60642160Y-20853622D01*
X60693205Y-20869106D01*
X60685143Y-20875723D01*
X60497871Y-21103914D01*
X60358715Y-21364256D01*
X60273024Y-21646743D01*
X60244089Y-21940520D01*
X60273024Y-22234297D01*
X60358715Y-22516784D01*
X60497871Y-22777126D01*
X60685143Y-23005317D01*
X60913334Y-23192589D01*
X60946880Y-23210520D01*
X60913334Y-23228451D01*
X60685143Y-23415723D01*
X60497871Y-23643914D01*
X60470287Y-23695520D01*
X59703156Y-23695520D01*
X59664600Y-23691723D01*
X59626044Y-23695520D01*
X59626039Y-23695520D01*
X59585626Y-23699500D01*
X59510713Y-23706878D01*
X59362740Y-23751766D01*
X59226367Y-23824658D01*
X59106836Y-23922756D01*
X59082253Y-23952710D01*
X54510940Y-28524023D01*
X54510940Y-26349960D01*
X54508500Y-26325184D01*
X54501273Y-26301359D01*
X54489537Y-26279403D01*
X54473743Y-26260157D01*
X54454497Y-26244363D01*
X54432541Y-26232627D01*
X54408716Y-26225400D01*
X54383940Y-26222960D01*
X41864280Y-26222960D01*
X41839504Y-26225400D01*
X41815679Y-26232627D01*
X41793723Y-26244363D01*
X41774477Y-26260157D01*
X41758683Y-26279403D01*
X41746947Y-26301359D01*
X41739720Y-26325184D01*
X41737280Y-26349960D01*
X41737280Y-38765480D01*
X41739720Y-38790256D01*
X41746947Y-38814081D01*
X41758683Y-38836037D01*
X41774477Y-38855283D01*
X41793723Y-38871077D01*
X41815679Y-38882813D01*
X41839504Y-38890040D01*
X41864280Y-38892480D01*
X54383940Y-38892480D01*
X54408716Y-38890040D01*
X54432541Y-38882813D01*
X54454497Y-38871077D01*
X54473743Y-38855283D01*
X54489537Y-38836037D01*
X54501273Y-38814081D01*
X54508500Y-38790256D01*
X54510940Y-38765480D01*
X54510940Y-38386944D01*
X54657921Y-38416180D01*
X54684703Y-38416180D01*
X55810733Y-39542210D01*
X55835316Y-39572164D01*
X55954847Y-39670262D01*
X56091220Y-39743154D01*
X56239193Y-39788042D01*
X56314106Y-39795420D01*
X56354519Y-39799400D01*
X56354524Y-39799400D01*
X56393080Y-39803197D01*
X56431636Y-39799400D01*
X63893663Y-39799400D01*
X69540967Y-45446705D01*
X69563675Y-45521564D01*
X69702831Y-45781906D01*
X69890103Y-46010097D01*
X70118294Y-46197369D01*
X70378636Y-46336525D01*
X70661123Y-46422216D01*
X70881281Y-46443900D01*
X71333319Y-46443900D01*
X71553477Y-46422216D01*
X71835964Y-46336525D01*
X72096306Y-46197369D01*
X72324497Y-46010097D01*
X72389861Y-45930451D01*
X72389861Y-48285361D01*
X71112343Y-49562880D01*
X38394677Y-49562880D01*
X37030800Y-48199003D01*
X37030800Y-47548461D01*
X47811740Y-47548461D01*
X47811740Y-47752339D01*
X47851514Y-47952298D01*
X47929535Y-48140656D01*
X48042803Y-48310174D01*
X48186966Y-48454337D01*
X48356484Y-48567605D01*
X48544842Y-48645626D01*
X48744801Y-48685400D01*
X48948679Y-48685400D01*
X49148638Y-48645626D01*
X49336996Y-48567605D01*
X49506514Y-48454337D01*
X49525451Y-48435400D01*
X62714687Y-48435400D01*
X62753240Y-48439197D01*
X62791793Y-48435400D01*
X62791801Y-48435400D01*
X62907127Y-48424041D01*
X63055100Y-48379154D01*
X63191473Y-48306262D01*
X63311004Y-48208164D01*
X63335587Y-48178210D01*
X65047518Y-46466280D01*
X65220444Y-46518736D01*
X65514220Y-46547671D01*
X65807997Y-46518736D01*
X66090484Y-46433045D01*
X66350826Y-46293889D01*
X66579017Y-46106617D01*
X66766289Y-45878426D01*
X66905445Y-45618083D01*
X66991136Y-45335596D01*
X67012820Y-45115438D01*
X67012820Y-44663401D01*
X66991136Y-44443243D01*
X66905445Y-44160756D01*
X66766289Y-43900414D01*
X66579017Y-43672223D01*
X66350825Y-43484951D01*
X66090483Y-43345795D01*
X65807996Y-43260104D01*
X65514220Y-43231169D01*
X65220443Y-43260104D01*
X64937956Y-43345795D01*
X64677614Y-43484951D01*
X64449423Y-43672223D01*
X64262151Y-43900415D01*
X64244220Y-43933961D01*
X64226289Y-43900414D01*
X64039017Y-43672223D01*
X63810825Y-43484951D01*
X63550483Y-43345795D01*
X63267996Y-43260104D01*
X62974220Y-43231169D01*
X62680443Y-43260104D01*
X62397956Y-43345795D01*
X62137614Y-43484951D01*
X61909423Y-43672223D01*
X61902806Y-43680285D01*
X61887322Y-43629240D01*
X61828357Y-43518926D01*
X61749005Y-43422235D01*
X61652314Y-43342883D01*
X61542000Y-43283918D01*
X61422302Y-43247608D01*
X61297820Y-43235348D01*
X60719970Y-43238420D01*
X60561220Y-43397170D01*
X60561220Y-44762420D01*
X60581220Y-44762420D01*
X60581220Y-45016420D01*
X60561220Y-45016420D01*
X60561220Y-46381670D01*
X60719970Y-46540420D01*
X61297820Y-46543492D01*
X61422302Y-46531232D01*
X61542000Y-46494922D01*
X61652314Y-46435957D01*
X61749005Y-46356605D01*
X61828357Y-46259914D01*
X61887322Y-46149600D01*
X61902806Y-46098555D01*
X61909423Y-46106617D01*
X62137615Y-46293889D01*
X62397957Y-46433045D01*
X62680444Y-46518736D01*
X62766291Y-46527191D01*
X62428083Y-46865400D01*
X49525451Y-46865400D01*
X49506514Y-46846463D01*
X49336996Y-46733195D01*
X49148638Y-46655174D01*
X48948679Y-46615400D01*
X48744801Y-46615400D01*
X48544842Y-46655174D01*
X48356484Y-46733195D01*
X48186966Y-46846463D01*
X48042803Y-46990626D01*
X47929535Y-47160144D01*
X47851514Y-47348502D01*
X47811740Y-47548461D01*
X37030800Y-47548461D01*
X37030800Y-43878500D01*
X38719228Y-43878500D01*
X38719228Y-45910500D01*
X38731488Y-46034982D01*
X38767798Y-46154680D01*
X38826763Y-46264994D01*
X38906115Y-46361685D01*
X39002806Y-46441037D01*
X39113120Y-46500002D01*
X39232818Y-46536312D01*
X39357300Y-46548572D01*
X41084500Y-46548572D01*
X41208982Y-46536312D01*
X41328680Y-46500002D01*
X41438994Y-46441037D01*
X41535685Y-46361685D01*
X41615037Y-46264994D01*
X41674002Y-46154680D01*
X41689486Y-46103635D01*
X41696103Y-46111697D01*
X41924295Y-46298969D01*
X42184637Y-46438125D01*
X42467124Y-46523816D01*
X42760900Y-46552751D01*
X43054677Y-46523816D01*
X43337164Y-46438125D01*
X43597506Y-46298969D01*
X43825697Y-46111697D01*
X44012969Y-45883506D01*
X44034324Y-45843553D01*
X44182414Y-46046229D01*
X44398865Y-46245233D01*
X44649981Y-46398186D01*
X44926111Y-46499209D01*
X44941874Y-46501858D01*
X45173900Y-46380717D01*
X45173900Y-45021500D01*
X45153900Y-45021500D01*
X45153900Y-44767500D01*
X45173900Y-44767500D01*
X45173900Y-43408283D01*
X45427900Y-43408283D01*
X45427900Y-44767500D01*
X45447900Y-44767500D01*
X45447900Y-45021500D01*
X45427900Y-45021500D01*
X45427900Y-46380717D01*
X45659926Y-46501858D01*
X45675689Y-46499209D01*
X45951819Y-46398186D01*
X46202935Y-46245233D01*
X46419386Y-46046229D01*
X46567476Y-45843553D01*
X46588831Y-45883506D01*
X46776103Y-46111697D01*
X47004295Y-46298969D01*
X47264637Y-46438125D01*
X47547124Y-46523816D01*
X47840900Y-46552751D01*
X48134677Y-46523816D01*
X48417164Y-46438125D01*
X48677506Y-46298969D01*
X48905697Y-46111697D01*
X49092969Y-45883506D01*
X49110900Y-45849959D01*
X49128831Y-45883506D01*
X49316103Y-46111697D01*
X49544295Y-46298969D01*
X49804637Y-46438125D01*
X50087124Y-46523816D01*
X50380900Y-46552751D01*
X50674677Y-46523816D01*
X50957164Y-46438125D01*
X51217506Y-46298969D01*
X51445697Y-46111697D01*
X51632969Y-45883506D01*
X51650900Y-45849959D01*
X51668831Y-45883506D01*
X51856103Y-46111697D01*
X52084295Y-46298969D01*
X52344637Y-46438125D01*
X52627124Y-46523816D01*
X52920900Y-46552751D01*
X53214677Y-46523816D01*
X53497164Y-46438125D01*
X53757506Y-46298969D01*
X53985697Y-46111697D01*
X54172969Y-45883506D01*
X54190900Y-45849959D01*
X54208831Y-45883506D01*
X54396103Y-46111697D01*
X54624295Y-46298969D01*
X54884637Y-46438125D01*
X55167124Y-46523816D01*
X55460900Y-46552751D01*
X55754677Y-46523816D01*
X56037164Y-46438125D01*
X56297506Y-46298969D01*
X56525697Y-46111697D01*
X56694984Y-45905420D01*
X58932548Y-45905420D01*
X58944808Y-46029902D01*
X58981118Y-46149600D01*
X59040083Y-46259914D01*
X59119435Y-46356605D01*
X59216126Y-46435957D01*
X59326440Y-46494922D01*
X59446138Y-46531232D01*
X59570620Y-46543492D01*
X60148470Y-46540420D01*
X60307220Y-46381670D01*
X60307220Y-45016420D01*
X59094370Y-45016420D01*
X58935620Y-45175170D01*
X58932548Y-45905420D01*
X56694984Y-45905420D01*
X56712969Y-45883506D01*
X56852125Y-45623163D01*
X56937816Y-45340676D01*
X56959500Y-45120518D01*
X56959500Y-44668481D01*
X56937816Y-44448323D01*
X56852125Y-44165836D01*
X56712969Y-43905494D01*
X56686647Y-43873420D01*
X58932548Y-43873420D01*
X58935620Y-44603670D01*
X59094370Y-44762420D01*
X60307220Y-44762420D01*
X60307220Y-43397170D01*
X60148470Y-43238420D01*
X59570620Y-43235348D01*
X59446138Y-43247608D01*
X59326440Y-43283918D01*
X59216126Y-43342883D01*
X59119435Y-43422235D01*
X59040083Y-43518926D01*
X58981118Y-43629240D01*
X58944808Y-43748938D01*
X58932548Y-43873420D01*
X56686647Y-43873420D01*
X56525697Y-43677303D01*
X56297505Y-43490031D01*
X56037163Y-43350875D01*
X55754676Y-43265184D01*
X55460900Y-43236249D01*
X55167123Y-43265184D01*
X54884636Y-43350875D01*
X54624294Y-43490031D01*
X54396103Y-43677303D01*
X54208831Y-43905495D01*
X54190900Y-43939041D01*
X54172969Y-43905494D01*
X53985697Y-43677303D01*
X53757505Y-43490031D01*
X53497163Y-43350875D01*
X53214676Y-43265184D01*
X52920900Y-43236249D01*
X52627123Y-43265184D01*
X52344636Y-43350875D01*
X52084294Y-43490031D01*
X51856103Y-43677303D01*
X51668831Y-43905495D01*
X51650900Y-43939041D01*
X51632969Y-43905494D01*
X51445697Y-43677303D01*
X51217505Y-43490031D01*
X50957163Y-43350875D01*
X50674676Y-43265184D01*
X50380900Y-43236249D01*
X50087123Y-43265184D01*
X49804636Y-43350875D01*
X49544294Y-43490031D01*
X49316103Y-43677303D01*
X49128831Y-43905495D01*
X49110900Y-43939041D01*
X49092969Y-43905494D01*
X48905697Y-43677303D01*
X48677505Y-43490031D01*
X48417163Y-43350875D01*
X48134676Y-43265184D01*
X47840900Y-43236249D01*
X47547123Y-43265184D01*
X47264636Y-43350875D01*
X47004294Y-43490031D01*
X46776103Y-43677303D01*
X46588831Y-43905495D01*
X46567476Y-43945447D01*
X46419386Y-43742771D01*
X46202935Y-43543767D01*
X45951819Y-43390814D01*
X45675689Y-43289791D01*
X45659926Y-43287142D01*
X45427900Y-43408283D01*
X45173900Y-43408283D01*
X44941874Y-43287142D01*
X44926111Y-43289791D01*
X44649981Y-43390814D01*
X44398865Y-43543767D01*
X44182414Y-43742771D01*
X44034324Y-43945447D01*
X44012969Y-43905494D01*
X43825697Y-43677303D01*
X43597505Y-43490031D01*
X43337163Y-43350875D01*
X43054676Y-43265184D01*
X42760900Y-43236249D01*
X42467123Y-43265184D01*
X42184636Y-43350875D01*
X41924294Y-43490031D01*
X41696103Y-43677303D01*
X41689486Y-43685365D01*
X41674002Y-43634320D01*
X41615037Y-43524006D01*
X41535685Y-43427315D01*
X41438994Y-43347963D01*
X41328680Y-43288998D01*
X41208982Y-43252688D01*
X41084500Y-43240428D01*
X39357300Y-43240428D01*
X39232818Y-43252688D01*
X39113120Y-43288998D01*
X39002806Y-43347963D01*
X38906115Y-43427315D01*
X38826763Y-43524006D01*
X38767798Y-43634320D01*
X38731488Y-43754018D01*
X38719228Y-43878500D01*
X37030800Y-43878500D01*
X37030800Y-41132797D01*
X37612358Y-40551240D01*
X37852097Y-40551240D01*
X38010761Y-40582800D01*
X38214639Y-40582800D01*
X38414598Y-40543026D01*
X38602956Y-40465005D01*
X38772474Y-40351737D01*
X38916637Y-40207574D01*
X39029905Y-40038056D01*
X39107926Y-39849698D01*
X39147700Y-39649739D01*
X39147700Y-39445861D01*
X39107926Y-39245902D01*
X39029905Y-39057544D01*
X38916637Y-38888026D01*
X38772474Y-38743863D01*
X38602956Y-38630595D01*
X38414598Y-38552574D01*
X38214639Y-38512800D01*
X38010761Y-38512800D01*
X37810802Y-38552574D01*
X37622444Y-38630595D01*
X37452926Y-38743863D01*
X37308763Y-38888026D01*
X37246327Y-38981468D01*
X37133313Y-38992599D01*
X36985340Y-39037486D01*
X36848967Y-39110378D01*
X36798015Y-39152194D01*
X36759387Y-39183895D01*
X36759384Y-39183898D01*
X36729436Y-39208476D01*
X36704857Y-39238425D01*
X35717985Y-40225298D01*
X35688037Y-40249876D01*
X35663459Y-40279824D01*
X35663455Y-40279828D01*
X35651781Y-40294053D01*
X35589939Y-40369407D01*
X35572198Y-40402599D01*
X35517046Y-40505781D01*
X35472159Y-40653754D01*
X35457003Y-40807640D01*
X35460801Y-40846203D01*
X35460800Y-48485607D01*
X35457003Y-48524160D01*
X35460800Y-48562713D01*
X35460800Y-48562720D01*
X35472159Y-48678046D01*
X35517046Y-48826019D01*
X35589938Y-48962392D01*
X35688036Y-49081924D01*
X35717990Y-49106507D01*
X37487173Y-50875690D01*
X37511756Y-50905644D01*
X37631287Y-51003742D01*
X37767660Y-51076634D01*
X37915633Y-51121522D01*
X37990546Y-51128900D01*
X38030959Y-51132880D01*
X38030964Y-51132880D01*
X38069520Y-51136677D01*
X38108076Y-51132880D01*
X71398947Y-51132880D01*
X71437500Y-51136677D01*
X71476053Y-51132880D01*
X71476061Y-51132880D01*
X71591387Y-51121521D01*
X71739360Y-51076634D01*
X71875733Y-51003742D01*
X71995264Y-50905644D01*
X72019847Y-50875690D01*
X73578720Y-49316818D01*
X73578720Y-84518839D01*
X16033974Y-84484153D01*
X16031769Y-78336181D01*
X29197300Y-78336181D01*
X29197300Y-78788218D01*
X29218984Y-79008376D01*
X29304675Y-79290863D01*
X29443831Y-79551205D01*
X29631103Y-79779397D01*
X29859294Y-79966669D01*
X30119636Y-80105825D01*
X30402123Y-80191516D01*
X30695900Y-80220451D01*
X30989676Y-80191516D01*
X31272163Y-80105825D01*
X31532505Y-79966669D01*
X31760697Y-79779397D01*
X31947969Y-79551206D01*
X31965900Y-79517659D01*
X31983831Y-79551205D01*
X32171103Y-79779397D01*
X32399294Y-79966669D01*
X32659636Y-80105825D01*
X32942123Y-80191516D01*
X33235900Y-80220451D01*
X33529676Y-80191516D01*
X33812163Y-80105825D01*
X34072505Y-79966669D01*
X34300697Y-79779397D01*
X34487969Y-79551206D01*
X34505900Y-79517659D01*
X34523831Y-79551205D01*
X34711103Y-79779397D01*
X34939294Y-79966669D01*
X35199636Y-80105825D01*
X35482123Y-80191516D01*
X35775900Y-80220451D01*
X36069676Y-80191516D01*
X36352163Y-80105825D01*
X36612505Y-79966669D01*
X36840697Y-79779397D01*
X37027969Y-79551206D01*
X37049324Y-79511253D01*
X37197414Y-79713929D01*
X37413865Y-79912933D01*
X37664981Y-80065886D01*
X37941111Y-80166909D01*
X37956874Y-80169558D01*
X38188900Y-80048417D01*
X38188900Y-78689200D01*
X38168900Y-78689200D01*
X38168900Y-78435200D01*
X38188900Y-78435200D01*
X38188900Y-77075983D01*
X38442900Y-77075983D01*
X38442900Y-78435200D01*
X38462900Y-78435200D01*
X38462900Y-78689200D01*
X38442900Y-78689200D01*
X38442900Y-80048417D01*
X38674926Y-80169558D01*
X38690689Y-80166909D01*
X38966819Y-80065886D01*
X39217935Y-79912933D01*
X39434386Y-79713929D01*
X39582476Y-79511253D01*
X39603831Y-79551205D01*
X39791103Y-79779397D01*
X40019294Y-79966669D01*
X40279636Y-80105825D01*
X40562123Y-80191516D01*
X40855900Y-80220451D01*
X41149676Y-80191516D01*
X41432163Y-80105825D01*
X41692505Y-79966669D01*
X41920697Y-79779397D01*
X42107969Y-79551206D01*
X42125900Y-79517659D01*
X42143831Y-79551205D01*
X42331103Y-79779397D01*
X42559294Y-79966669D01*
X42819636Y-80105825D01*
X43102123Y-80191516D01*
X43395900Y-80220451D01*
X43689676Y-80191516D01*
X43972163Y-80105825D01*
X44232505Y-79966669D01*
X44460697Y-79779397D01*
X44647969Y-79551206D01*
X44665900Y-79517659D01*
X44683831Y-79551205D01*
X44871103Y-79779397D01*
X45099294Y-79966669D01*
X45359636Y-80105825D01*
X45642123Y-80191516D01*
X45935900Y-80220451D01*
X46229676Y-80191516D01*
X46512163Y-80105825D01*
X46772505Y-79966669D01*
X47000697Y-79779397D01*
X47187969Y-79551206D01*
X47205900Y-79517659D01*
X47223831Y-79551205D01*
X47411103Y-79779397D01*
X47639294Y-79966669D01*
X47899636Y-80105825D01*
X48182123Y-80191516D01*
X48475900Y-80220451D01*
X48769676Y-80191516D01*
X49052163Y-80105825D01*
X49312505Y-79966669D01*
X49540697Y-79779397D01*
X49547314Y-79771335D01*
X49562798Y-79822380D01*
X49621763Y-79932694D01*
X49701115Y-80029385D01*
X49797806Y-80108737D01*
X49908120Y-80167702D01*
X50027818Y-80204012D01*
X50152300Y-80216272D01*
X51879500Y-80216272D01*
X52003982Y-80204012D01*
X52123680Y-80167702D01*
X52233994Y-80108737D01*
X52330685Y-80029385D01*
X52410037Y-79932694D01*
X52469002Y-79822380D01*
X52505312Y-79702682D01*
X52517572Y-79578200D01*
X52517572Y-77546200D01*
X52505312Y-77421718D01*
X52469002Y-77302020D01*
X52410037Y-77191706D01*
X52330685Y-77095015D01*
X52233994Y-77015663D01*
X52123680Y-76956698D01*
X52003982Y-76920388D01*
X51879500Y-76908128D01*
X50152300Y-76908128D01*
X50027818Y-76920388D01*
X49908120Y-76956698D01*
X49797806Y-77015663D01*
X49701115Y-77095015D01*
X49621763Y-77191706D01*
X49562798Y-77302020D01*
X49547314Y-77353065D01*
X49540697Y-77345003D01*
X49312506Y-77157731D01*
X49052164Y-77018575D01*
X48769677Y-76932884D01*
X48475900Y-76903949D01*
X48182124Y-76932884D01*
X47899637Y-77018575D01*
X47639295Y-77157731D01*
X47411103Y-77345003D01*
X47223831Y-77573194D01*
X47205900Y-77606741D01*
X47187969Y-77573194D01*
X47000697Y-77345003D01*
X46772506Y-77157731D01*
X46512164Y-77018575D01*
X46229677Y-76932884D01*
X45935900Y-76903949D01*
X45642124Y-76932884D01*
X45359637Y-77018575D01*
X45099295Y-77157731D01*
X44871103Y-77345003D01*
X44683831Y-77573194D01*
X44665900Y-77606741D01*
X44647969Y-77573194D01*
X44460697Y-77345003D01*
X44232506Y-77157731D01*
X43972164Y-77018575D01*
X43689677Y-76932884D01*
X43395900Y-76903949D01*
X43102124Y-76932884D01*
X42819637Y-77018575D01*
X42559295Y-77157731D01*
X42331103Y-77345003D01*
X42143831Y-77573194D01*
X42125900Y-77606741D01*
X42107969Y-77573194D01*
X41920697Y-77345003D01*
X41692506Y-77157731D01*
X41432164Y-77018575D01*
X41149677Y-76932884D01*
X40855900Y-76903949D01*
X40562124Y-76932884D01*
X40279637Y-77018575D01*
X40019295Y-77157731D01*
X39791103Y-77345003D01*
X39603831Y-77573194D01*
X39582476Y-77613147D01*
X39434386Y-77410471D01*
X39217935Y-77211467D01*
X38966819Y-77058514D01*
X38690689Y-76957491D01*
X38674926Y-76954842D01*
X38442900Y-77075983D01*
X38188900Y-77075983D01*
X37956874Y-76954842D01*
X37941111Y-76957491D01*
X37664981Y-77058514D01*
X37413865Y-77211467D01*
X37197414Y-77410471D01*
X37049324Y-77613147D01*
X37027969Y-77573194D01*
X36840697Y-77345003D01*
X36612506Y-77157731D01*
X36352164Y-77018575D01*
X36069677Y-76932884D01*
X35775900Y-76903949D01*
X35482124Y-76932884D01*
X35199637Y-77018575D01*
X34939295Y-77157731D01*
X34711103Y-77345003D01*
X34523831Y-77573194D01*
X34505900Y-77606741D01*
X34487969Y-77573194D01*
X34300697Y-77345003D01*
X34072506Y-77157731D01*
X33812164Y-77018575D01*
X33529677Y-76932884D01*
X33235900Y-76903949D01*
X32942124Y-76932884D01*
X32659637Y-77018575D01*
X32399295Y-77157731D01*
X32171103Y-77345003D01*
X31983831Y-77573194D01*
X31965900Y-77606741D01*
X31947969Y-77573194D01*
X31760697Y-77345003D01*
X31532506Y-77157731D01*
X31272164Y-77018575D01*
X30989677Y-76932884D01*
X30695900Y-76903949D01*
X30402124Y-76932884D01*
X30119637Y-77018575D01*
X29859295Y-77157731D01*
X29631103Y-77345003D01*
X29443831Y-77573194D01*
X29304675Y-77833536D01*
X29218984Y-78116023D01*
X29197300Y-78336181D01*
X16031769Y-78336181D01*
X16023549Y-55425001D01*
X40293340Y-55425001D01*
X40293340Y-55628879D01*
X40333114Y-55828838D01*
X40411135Y-56017196D01*
X40524403Y-56186714D01*
X40668566Y-56330877D01*
X40838084Y-56444145D01*
X41026442Y-56522166D01*
X41226401Y-56561940D01*
X41430279Y-56561940D01*
X41630238Y-56522166D01*
X41818596Y-56444145D01*
X41988114Y-56330877D01*
X42007051Y-56311940D01*
X63778947Y-56311940D01*
X63817500Y-56315737D01*
X63856053Y-56311940D01*
X63856061Y-56311940D01*
X63971387Y-56300581D01*
X64119360Y-56255694D01*
X64255733Y-56182802D01*
X64375264Y-56084704D01*
X64399847Y-56054750D01*
X67073397Y-53381201D01*
X67078498Y-53380186D01*
X67266856Y-53302165D01*
X67436374Y-53188897D01*
X67580537Y-53044734D01*
X67693805Y-52875216D01*
X67771826Y-52686858D01*
X67811600Y-52486899D01*
X67811600Y-52283021D01*
X67771826Y-52083062D01*
X67693805Y-51894704D01*
X67580537Y-51725186D01*
X67436374Y-51581023D01*
X67266856Y-51467755D01*
X67078498Y-51389734D01*
X66878539Y-51349960D01*
X66674661Y-51349960D01*
X66474702Y-51389734D01*
X66286344Y-51467755D01*
X66116826Y-51581023D01*
X65972663Y-51725186D01*
X65859395Y-51894704D01*
X65781374Y-52083062D01*
X65741600Y-52283021D01*
X65741600Y-52486899D01*
X65742559Y-52491723D01*
X63492343Y-54741940D01*
X42007051Y-54741940D01*
X41988114Y-54723003D01*
X41818596Y-54609735D01*
X41630238Y-54531714D01*
X41430279Y-54491940D01*
X41226401Y-54491940D01*
X41026442Y-54531714D01*
X40838084Y-54609735D01*
X40668566Y-54723003D01*
X40524403Y-54867166D01*
X40411135Y-55036684D01*
X40333114Y-55225042D01*
X40293340Y-55425001D01*
X16023549Y-55425001D01*
X16018010Y-39988800D01*
X31032349Y-39988800D01*
X31061284Y-40282577D01*
X31146975Y-40565064D01*
X31286131Y-40825406D01*
X31473403Y-41053597D01*
X31701594Y-41240869D01*
X31763068Y-41273728D01*
X31543403Y-41454003D01*
X31356131Y-41682194D01*
X31216975Y-41942536D01*
X31131284Y-42225023D01*
X31102349Y-42518800D01*
X31131284Y-42812577D01*
X31216975Y-43095064D01*
X31356131Y-43355406D01*
X31543403Y-43583597D01*
X31771594Y-43770869D01*
X32031936Y-43910025D01*
X32314423Y-43995716D01*
X32534581Y-44017400D01*
X32986619Y-44017400D01*
X33206777Y-43995716D01*
X33489264Y-43910025D01*
X33749606Y-43770869D01*
X33977797Y-43583597D01*
X34165069Y-43355406D01*
X34304225Y-43095064D01*
X34389916Y-42812577D01*
X34418851Y-42518800D01*
X34389916Y-42225023D01*
X34304225Y-41942536D01*
X34165069Y-41682194D01*
X33977797Y-41454003D01*
X33749606Y-41266731D01*
X33688132Y-41233872D01*
X33907797Y-41053597D01*
X34095069Y-40825406D01*
X34234225Y-40565064D01*
X34319916Y-40282577D01*
X34348851Y-39988800D01*
X34319916Y-39695023D01*
X34234225Y-39412536D01*
X34095069Y-39152194D01*
X33907797Y-38924003D01*
X33855117Y-38880769D01*
X33881082Y-38878212D01*
X34000780Y-38841902D01*
X34111094Y-38782937D01*
X34207785Y-38703585D01*
X34287137Y-38606894D01*
X34346102Y-38496580D01*
X34382412Y-38376882D01*
X34394672Y-38252400D01*
X34394672Y-36525200D01*
X34382412Y-36400718D01*
X34346102Y-36281020D01*
X34287137Y-36170706D01*
X34207785Y-36074015D01*
X34111094Y-35994663D01*
X34000780Y-35935698D01*
X33881082Y-35899388D01*
X33756600Y-35887128D01*
X31724600Y-35887128D01*
X31600118Y-35899388D01*
X31480420Y-35935698D01*
X31370106Y-35994663D01*
X31273415Y-36074015D01*
X31194063Y-36170706D01*
X31135098Y-36281020D01*
X31098788Y-36400718D01*
X31086528Y-36525200D01*
X31086528Y-38252400D01*
X31098788Y-38376882D01*
X31135098Y-38496580D01*
X31194063Y-38606894D01*
X31273415Y-38703585D01*
X31370106Y-38782937D01*
X31480420Y-38841902D01*
X31548339Y-38862505D01*
X31473403Y-38924003D01*
X31286131Y-39152194D01*
X31146975Y-39412536D01*
X31061284Y-39695023D01*
X31032349Y-39988800D01*
X16018010Y-39988800D01*
X16013237Y-26686767D01*
X16957800Y-26686767D01*
X16957800Y-27008833D01*
X17020632Y-27324712D01*
X17143882Y-27622263D01*
X17322813Y-27890052D01*
X17550548Y-28117787D01*
X17818337Y-28296718D01*
X18115888Y-28419968D01*
X18431767Y-28482800D01*
X18753833Y-28482800D01*
X19069712Y-28419968D01*
X19367263Y-28296718D01*
X19635052Y-28117787D01*
X19862787Y-27890052D01*
X20041718Y-27622263D01*
X20164968Y-27324712D01*
X20227800Y-27008833D01*
X20227800Y-26686767D01*
X22037800Y-26686767D01*
X22037800Y-27008833D01*
X22100632Y-27324712D01*
X22223882Y-27622263D01*
X22402813Y-27890052D01*
X22630548Y-28117787D01*
X22898337Y-28296718D01*
X23195888Y-28419968D01*
X23511767Y-28482800D01*
X23833833Y-28482800D01*
X24149712Y-28419968D01*
X24447263Y-28296718D01*
X24715052Y-28117787D01*
X24942787Y-27890052D01*
X25121718Y-27622263D01*
X25244968Y-27324712D01*
X25307800Y-27008833D01*
X25307800Y-26686767D01*
X25244968Y-26370888D01*
X25121718Y-26073337D01*
X24942787Y-25805548D01*
X24715052Y-25577813D01*
X24447263Y-25398882D01*
X24149712Y-25275632D01*
X23833833Y-25212800D01*
X23511767Y-25212800D01*
X23195888Y-25275632D01*
X22898337Y-25398882D01*
X22630548Y-25577813D01*
X22402813Y-25805548D01*
X22223882Y-26073337D01*
X22100632Y-26370888D01*
X22037800Y-26686767D01*
X20227800Y-26686767D01*
X20164968Y-26370888D01*
X20041718Y-26073337D01*
X19862787Y-25805548D01*
X19635052Y-25577813D01*
X19367263Y-25398882D01*
X19069712Y-25275632D01*
X18753833Y-25212800D01*
X18431767Y-25212800D01*
X18115888Y-25275632D01*
X17818337Y-25398882D01*
X17550548Y-25577813D01*
X17322813Y-25805548D01*
X17143882Y-26073337D01*
X17020632Y-26370888D01*
X16957800Y-26686767D01*
X16013237Y-26686767D01*
X16010766Y-19801244D01*
X16123225Y-19801244D01*
X16181124Y-19992126D01*
X16322818Y-20283115D01*
X16518558Y-20540869D01*
X16760823Y-20755484D01*
X17040302Y-20918711D01*
X17346255Y-21024278D01*
X17602200Y-20905662D01*
X17602200Y-19545300D01*
X17856200Y-19545300D01*
X17856200Y-20905662D01*
X18112145Y-21024278D01*
X18418098Y-20918711D01*
X18697577Y-20755484D01*
X18939842Y-20540869D01*
X19135582Y-20283115D01*
X19277276Y-19992126D01*
X19335175Y-19801244D01*
X19216036Y-19545300D01*
X17856200Y-19545300D01*
X17602200Y-19545300D01*
X16242364Y-19545300D01*
X16123225Y-19801244D01*
X16010766Y-19801244D01*
X16009352Y-15862300D01*
X16075128Y-15862300D01*
X16075128Y-17894300D01*
X16087388Y-18018782D01*
X16123698Y-18138480D01*
X16182663Y-18248794D01*
X16262015Y-18345485D01*
X16358706Y-18424837D01*
X16402669Y-18448336D01*
X16322818Y-18553485D01*
X16181124Y-18844474D01*
X16123225Y-19035356D01*
X16242364Y-19291300D01*
X17602200Y-19291300D01*
X17602200Y-19271300D01*
X17856200Y-19271300D01*
X17856200Y-19291300D01*
X19216036Y-19291300D01*
X19335175Y-19035356D01*
X19277276Y-18844474D01*
X19135582Y-18553485D01*
X19055731Y-18448336D01*
X19099694Y-18424837D01*
X19196385Y-18345485D01*
X19275737Y-18248794D01*
X19334702Y-18138480D01*
X19371012Y-18018782D01*
X19383272Y-17894300D01*
X19383272Y-15862300D01*
X19371012Y-15737818D01*
X19334702Y-15618120D01*
X19275737Y-15507806D01*
X19196385Y-15411115D01*
X19099694Y-15331763D01*
X18989380Y-15272798D01*
X18869682Y-15236488D01*
X18745200Y-15224228D01*
X16713200Y-15224228D01*
X16588718Y-15236488D01*
X16469020Y-15272798D01*
X16358706Y-15331763D01*
X16262015Y-15411115D01*
X16182663Y-15507806D01*
X16123698Y-15618120D01*
X16087388Y-15737818D01*
X16075128Y-15862300D01*
X16009352Y-15862300D01*
X16009065Y-15063910D01*
X20726890Y-15063707D01*
X20701478Y-15074233D01*
X20433773Y-15253108D01*
X20206108Y-15480773D01*
X20027233Y-15748478D01*
X19904022Y-16045937D01*
X19841210Y-16361717D01*
X19841210Y-16683683D01*
X19904022Y-16999463D01*
X20027233Y-17296922D01*
X20206108Y-17564627D01*
X20433773Y-17792292D01*
X20701478Y-17971167D01*
X20998937Y-18094378D01*
X21314717Y-18157190D01*
X21636683Y-18157190D01*
X21952463Y-18094378D01*
X22249922Y-17971167D01*
X22517627Y-17792292D01*
X22745292Y-17564627D01*
X22924167Y-17296922D01*
X23047378Y-16999463D01*
X23110190Y-16683683D01*
X23110190Y-16361717D01*
X23047378Y-16045937D01*
X22924167Y-15748478D01*
X22745292Y-15480773D01*
X22517627Y-15253108D01*
X22249922Y-15074233D01*
X22224354Y-15063643D01*
X23845324Y-15063573D01*
X23835025Y-15072025D01*
X23755673Y-15168716D01*
X23696708Y-15279030D01*
X23660398Y-15398728D01*
X23648138Y-15523210D01*
X23648138Y-17522190D01*
X23660398Y-17646672D01*
X23696708Y-17766370D01*
X23755673Y-17876684D01*
X23835025Y-17973375D01*
X23931716Y-18052727D01*
X24042030Y-18111692D01*
X24161728Y-18148002D01*
X24286210Y-18160262D01*
X26285190Y-18160262D01*
X26409672Y-18148002D01*
X26529370Y-18111692D01*
X26639684Y-18052727D01*
X26736375Y-17973375D01*
X26815727Y-17876684D01*
X26874692Y-17766370D01*
X26911002Y-17646672D01*
X26923262Y-17522190D01*
X26923262Y-15523210D01*
X26911002Y-15398728D01*
X26874692Y-15279030D01*
X26815727Y-15168716D01*
X26736375Y-15072025D01*
X26725925Y-15063449D01*
X73578720Y-15061433D01*
X73578720Y-34962923D01*
G37*
G04 #@! TD.AperFunction*
G04 #@! TD*
M02*
